<svg xmlns="http://www.w3.org/2000/svg" xmlns:xlink="http://www.w3.org/1999/xlink" viewBox="0 0 1920 1080" style="enable-background:new 0 0 1920 1080" xml:space="preserve"><style>.st4488{opacity:.21}.st4490{fill:none;stroke:#69b395;stroke-width:3;stroke-miterlimit:10}</style><path style="fill:#231f20" id="Layer_8" d="M0 0h1923v1079H0z"/><g class="st4488" id="Layer_10"><defs><linearGradient x1="0" x2="0" y1="0" y2="1" id="Gradient1"><stop offset="0%" style="stop-color:#231f20"/><stop offset="50%" style="stop-color:#231f20;stop-opacity:0"/><stop offset="100%" style="stop-color:#231f20"/></linearGradient><path id="SVGID_4487_" class="st4488" d="M0 0h1923.1v1079H0z"/></defs><clipPath id="SVGID_4488_"><use xlink:href="#SVGID_4487_" style="overflow:visible"/></clipPath><g style="clip-path:url(#SVGID_4488_)"><g id="_x3C_Grid_Repeat_x3E__155_"><path class="st4490" d="M115.5-44.3C140.7-49.4 165-33.6 169.9-9c4.9 24.6-11.6 48.6-36.7 53.7l-45.6 9.2-8.8-44.5c-4.9-24.6 11.5-48.6 36.7-53.7zM109.4 22l18.5-3.8c10.2-2.1 16.9-11.8 14.9-21.8-2-10-11.9-16.4-22.1-14.3-10.2 2.1-16.9 11.8-14.9 21.8l3.6 18.1z" id="_x3C_Radial_Repeat_x3E__308_"/><path class="st4490" d="M190.5-52.7C165.3-47.6 141-63.4 136.1-88c-4.9-24.6 11.6-48.6 36.7-53.7l45.6-9.2 8.8 44.5c4.9 24.6-11.5 48.6-36.7 53.7zm6.1-66.3-18.5 3.8c-10.2 2.1-16.9 11.8-14.9 21.8 2 10 11.9 16.4 22.1 14.3 10.2-2.1 16.9-11.8 14.9-21.8l-3.6-18.1z" id="_x3C_Radial_Repeat_x3E__307_"/></g><g id="_x3C_Grid_Repeat_x3E__153_"><path class="st4490" d="M383.4-44.3c25.2-5.1 49.5 10.7 54.4 35.3 4.9 24.6-11.6 48.6-36.7 53.7l-45.6 9.2-8.8-44.5c-4.9-24.6 11.5-48.6 36.7-53.7zM377.3 22l18.5-3.8c10.2-2.1 16.9-11.8 14.9-21.8-2-10-11.9-16.4-22.1-14.3-10.2 2.1-16.9 11.8-14.9 21.8l3.6 18.1z" id="_x3C_Radial_Repeat_x3E__304_"/><path class="st4490" d="M458.4-52.7C433.2-47.6 408.9-63.4 404-88c-4.9-24.6 11.6-48.6 36.7-53.7l45.6-9.2 8.8 44.5c4.9 24.6-11.6 48.6-36.7 53.7zm6.1-66.3-18.5 3.8c-10.2 2.1-16.9 11.8-14.9 21.8S443-77 453.2-79.1c10.2-2.1 16.9-11.8 14.9-21.8l-3.6-18.1z" id="_x3C_Radial_Repeat_x3E__303_"/></g><g id="_x3C_Grid_Repeat_x3E__151_"><path class="st4490" d="M651.2-44.3c25.2-5.1 49.5 10.7 54.4 35.3 4.9 24.6-11.6 48.6-36.7 53.7l-45.6 9.2-8.8-44.5c-4.9-24.6 11.6-48.6 36.7-53.7zM645.1 22l18.5-3.8c10.2-2.1 16.9-11.8 14.9-21.8s-11.8-16.4-22-14.3c-10.2 2.1-16.9 11.8-14.9 21.8l3.5 18.1z" id="_x3C_Radial_Repeat_x3E__300_"/><path class="st4490" d="M726.2-52.7C701-47.6 676.7-63.4 671.8-88c-4.9-24.6 11.6-48.6 36.7-53.7l45.6-9.2 8.8 44.5c4.9 24.6-11.5 48.6-36.7 53.7zm6.1-66.3-18.5 3.8c-10.2 2.1-16.9 11.8-14.9 21.8S710.7-77 721-79.1c10.2-2.1 16.9-11.8 14.9-21.8l-3.6-18.1z" id="_x3C_Radial_Repeat_x3E__299_"/></g><g id="_x3C_Grid_Repeat_x3E__149_"><path class="st4490" d="M919.1-44.3c25.2-5.1 49.5 10.7 54.4 35.3 4.9 24.6-11.6 48.6-36.7 53.7l-45.6 9.2-8.8-44.5c-4.9-24.6 11.5-48.6 36.7-53.7zM913 22l18.5-3.8c10.2-2.1 16.9-11.8 14.9-21.8-2-10-11.9-16.4-22.1-14.3-10.2 2.1-16.9 11.8-14.9 21.8L913 22z" id="_x3C_Radial_Repeat_x3E__296_"/><path class="st4490" d="M994.1-52.7c-25.2 5.1-49.5-10.7-54.4-35.3-4.9-24.6 11.6-48.6 36.7-53.7l45.6-9.2 8.8 44.5c4.9 24.6-11.6 48.6-36.7 53.7zm6.1-66.3-18.5 3.8c-10.2 2.1-16.9 11.8-14.9 21.8s11.9 16.4 22.1 14.3c10.2-2.1 16.9-11.8 14.9-21.8l-3.6-18.1z" id="_x3C_Radial_Repeat_x3E__295_"/></g><g id="_x3C_Grid_Repeat_x3E__147_"><path class="st4490" d="M1186.9-44.3c25.2-5.1 49.5 10.7 54.4 35.3 4.9 24.6-11.6 48.6-36.7 53.7l-45.6 9.2-8.8-44.5c-4.9-24.6 11.6-48.6 36.7-53.7zm-6.1 66.3 18.5-3.8c10.2-2.1 16.9-11.8 14.9-21.8-2-10-11.9-16.4-22.1-14.3-10.2 2.1-16.9 11.8-14.9 21.8l3.6 18.1z" id="_x3C_Radial_Repeat_x3E__292_"/><path class="st4490" d="M1261.9-52.7c-25.2 5.1-49.5-10.7-54.4-35.3-4.9-24.6 11.6-48.6 36.7-53.7l45.6-9.2 8.8 44.5c4.9 24.6-11.5 48.6-36.7 53.7zm6.1-66.3-18.5 3.8c-10.2 2.1-16.9 11.8-14.9 21.8 2 10 11.9 16.4 22.1 14.3 10.2-2.1 16.9-11.8 14.9-21.8L1268-119z" id="_x3C_Radial_Repeat_x3E__291_"/></g><g id="_x3C_Grid_Repeat_x3E__145_"><path class="st4490" d="M1454.8-44.3c25.2-5.1 49.5 10.7 54.4 35.3 4.9 24.6-11.6 48.6-36.7 53.7l-45.6 9.2-8.8-44.5c-4.9-24.6 11.5-48.6 36.7-53.7zm-6.1 66.3 18.5-3.8c10.2-2.1 16.9-11.8 14.9-21.8-2-10-11.9-16.4-22.1-14.3-10.2 2.1-16.9 11.8-14.9 21.8l3.6 18.1z" id="_x3C_Radial_Repeat_x3E__288_"/><path class="st4490" d="M1529.8-52.7c-25.2 5.1-49.5-10.7-54.4-35.3-4.9-24.6 11.6-48.6 36.7-53.7l45.6-9.2 8.8 44.5c4.9 24.6-11.5 48.6-36.7 53.7zm6.1-66.3-18.5 3.8c-10.2 2.1-16.9 11.8-14.9 21.8s11.9 16.4 22.1 14.3c10.2-2.1 16.9-11.8 14.9-21.8l-3.6-18.1z" id="_x3C_Radial_Repeat_x3E__287_"/></g><g id="_x3C_Grid_Repeat_x3E__143_"><path class="st4490" d="M1722.7-44.3c25.2-5.1 49.5 10.7 54.4 35.3 4.9 24.6-11.6 48.6-36.7 53.7l-45.6 9.2-8.8-44.5c-4.9-24.6 11.5-48.6 36.7-53.7zm-6.1 66.3 18.5-3.8c10.2-2.1 16.9-11.8 14.9-21.8-2-10-11.9-16.4-22.1-14.3-10.2 2.1-16.9 11.8-14.9 21.8l3.6 18.1z" id="_x3C_Radial_Repeat_x3E__284_"/><path class="st4490" d="M1797.7-52.7c-25.2 5.1-49.5-10.7-54.4-35.3-4.9-24.6 11.6-48.6 36.7-53.7l45.6-9.2 8.8 44.5c4.9 24.6-11.6 48.6-36.7 53.7zm6.1-66.3-18.5 3.8c-10.2 2.1-16.9 11.8-14.9 21.8 2 10 11.9 16.4 22.1 14.3 10.2-2.1 16.9-11.8 14.9-21.8l-3.6-18.1z" id="_x3C_Radial_Repeat_x3E__283_"/></g><g id="_x3C_Grid_Repeat_x3E__139_"><path class="st4490" d="M-18.4 32.6C6.7 37.7 31.1 21.9 36-2.7 40.9-27.3 24.4-51.3-.7-56.4l-45.6-9.2-8.8 44.5C-60 3.4-43.6 27.5-18.4 32.6zm-6.1-66.3L-6-30C4.2-27.9 10.9-18.1 8.9-8.1S-3 8.3-13.2 6.2C-23.4 4.1-30.1-5.7-28.1-15.6l3.6-18.1z" id="_x3C_Radial_Repeat_x3E__276_"/><path class="st4490" d="M56.6 40.9C31.4 35.8 7.1 51.6 2.2 76.2c-4.9 24.6 11.6 48.6 36.7 53.7l45.6 9.2 8.8-44.5C98.2 70.1 81.7 46 56.6 40.9zm6.1 66.3-18.5-3.8C34 101.3 27.3 91.6 29.3 81.6s11.9-16.4 22.1-14.3c10.2 2.1 16.9 11.8 14.9 21.8l-3.6 18.1z" id="_x3C_Radial_Repeat_x3E__275_"/></g><g id="_x3C_Grid_Repeat_x3E__138_"><path class="st4490" d="M115.5 126.2c25.2-5.1 49.5 10.7 54.4 35.3 4.9 24.6-11.6 48.6-36.7 53.7l-45.6 9.2-8.8-44.5c-4.9-24.6 11.5-48.6 36.7-53.7zm-6.1 66.3 18.5-3.8c10.2-2.1 16.9-11.8 14.9-21.8-2-10-11.9-16.4-22.1-14.3-10.2 2.1-16.9 11.8-14.9 21.8l3.6 18.1z" id="_x3C_Radial_Repeat_x3E__274_"/><path class="st4490" d="M190.5 117.9c-25.2 5.1-49.5-10.7-54.4-35.3-4.9-24.6 11.6-48.6 36.7-53.7l45.6-9.2 8.8 44.5c4.9 24.5-11.5 48.6-36.7 53.7zm6.1-66.4-18.5 3.8c-10.2 2.1-16.9 11.8-14.9 21.8 2 10 11.9 16.4 22.1 14.3 10.2-2.1 16.9-11.8 14.9-21.8l-3.6-18.1z" id="_x3C_Radial_Repeat_x3E__273_"/></g><g id="_x3C_Grid_Repeat_x3E__137_"><path class="st4490" d="M249.4 32.6c25.2 5.1 49.5-10.7 54.4-35.3 4.9-24.6-11.6-48.6-36.7-53.7l-45.6-9.2-8.8 44.5c-4.9 24.5 11.6 48.6 36.7 53.7zm-6.1-66.3 18.5 3.8c10.2 2.1 16.9 11.8 14.9 21.8-2 10-11.9 16.4-22.1 14.3-10.2-2.1-16.9-11.8-14.9-21.8l3.6-18.1z" id="_x3C_Radial_Repeat_x3E__272_"/><path class="st4490" d="M324.4 40.9c-25.2-5.1-49.5 10.7-54.4 35.3-4.9 24.6 11.6 48.6 36.7 53.7l45.6 9.2 8.8-44.5c4.9-24.5-11.5-48.6-36.7-53.7zm6.1 66.3-18.5-3.8c-10.2-2.1-16.9-11.8-14.9-21.8s11.9-16.4 22.1-14.3c10.2 2.1 16.9 11.8 14.9 21.8l-3.6 18.1z" id="_x3C_Radial_Repeat_x3E__271_"/></g><g id="_x3C_Grid_Repeat_x3E__136_"><path class="st4490" d="M383.4 126.2c25.2-5.1 49.5 10.7 54.4 35.3 4.9 24.6-11.6 48.6-36.7 53.7l-45.6 9.2-8.8-44.5c-4.9-24.6 11.5-48.6 36.7-53.7zm-6.1 66.3 18.5-3.8c10.2-2.1 16.9-11.8 14.9-21.8-2-10-11.9-16.4-22.1-14.3-10.2 2.1-16.9 11.8-14.9 21.8l3.6 18.1z" id="_x3C_Radial_Repeat_x3E__270_"/><path class="st4490" d="M458.4 117.9c-25.2 5.1-49.5-10.7-54.4-35.3-4.9-24.6 11.5-48.6 36.7-53.7l45.6-9.2 8.8 44.5c4.9 24.5-11.6 48.6-36.7 53.7zm6.1-66.4L446 55.3c-10.3 2.1-17 11.8-15 21.8s11.9 16.4 22.1 14.3c10.2-2.1 16.9-11.8 14.9-21.8l-3.5-18.1z" id="_x3C_Radial_Repeat_x3E__269_"/></g><g id="_x3C_Grid_Repeat_x3E__135_"><path class="st4490" d="M517.3 32.6c25.2 5.1 49.5-10.7 54.4-35.3 4.9-24.6-11.6-48.6-36.7-53.7l-45.6-9.2-8.8 44.5c-4.9 24.5 11.5 48.6 36.7 53.7zm-6.1-66.3 18.5 3.8c10.2 2.1 16.9 11.8 14.9 21.8S532.8 8.3 522.5 6.2c-10.2-2.1-16.9-11.8-14.9-21.8l3.6-18.1z" id="_x3C_Radial_Repeat_x3E__268_"/><path class="st4490" d="M592.3 40.9c-25.2-5.1-49.5 10.7-54.4 35.3-4.9 24.6 11.6 48.6 36.7 53.7l45.6 9.2 8.8-44.5c4.9-24.5-11.5-48.6-36.7-53.7zm6.1 66.3-18.5-3.8c-10.2-2.1-16.9-11.8-14.9-21.8 2-10 11.9-16.4 22.1-14.3 10.2 2.1 16.9 11.8 14.9 21.8l-3.6 18.1z" id="_x3C_Radial_Repeat_x3E__267_"/></g><g id="_x3C_Grid_Repeat_x3E__134_"><path class="st4490" d="M651.2 126.2c25.2-5.1 49.5 10.7 54.4 35.3 4.9 24.6-11.6 48.6-36.7 53.7l-45.6 9.2-8.8-44.5c-4.9-24.6 11.6-48.6 36.7-53.7zm-6.1 66.3 18.5-3.8c10.2-2.1 16.9-11.8 14.9-21.8-2-10-11.9-16.4-22.1-14.3-10.2 2.1-16.9 11.8-14.9 21.8l3.6 18.1z" id="_x3C_Radial_Repeat_x3E__266_"/><path class="st4490" d="M726.2 117.9c-25.2 5.1-49.5-10.7-54.4-35.3-4.9-24.6 11.6-48.6 36.7-53.7l45.6-9.2 8.8 44.5c4.9 24.5-11.5 48.6-36.7 53.7zm6.1-66.4-18.5 3.8c-10.2 2.1-16.9 11.8-14.9 21.8s11.9 16.4 22.1 14.3c10.2-2.1 16.9-11.8 14.9-21.8l-3.6-18.1z" id="_x3C_Radial_Repeat_x3E__265_"/></g><g id="_x3C_Grid_Repeat_x3E__133_"><path class="st4490" d="M785.1 32.6c25.2 5.1 49.5-10.7 54.4-35.3 4.9-24.6-11.6-48.6-36.7-53.7l-45.6-9.2-8.8 44.5c-4.9 24.5 11.6 48.6 36.7 53.7zm-6-66.3 18.5 3.8c10.2 2.1 16.9 11.8 14.9 21.8S800.6 8.3 790.4 6.2c-10.2-2.1-16.9-11.8-14.9-21.8l3.6-18.1z" id="_x3C_Radial_Repeat_x3E__264_"/><path class="st4490" d="M860.2 40.9c-25.2-5.1-49.5 10.7-54.4 35.3-4.9 24.6 11.6 48.6 36.7 53.7l45.6 9.2 8.8-44.5c4.9-24.5-11.6-48.6-36.7-53.7zm6 66.3-18.5-3.8c-10.2-2.1-16.9-11.8-14.9-21.8s11.9-16.4 22.1-14.3c10.2 2.1 16.9 11.8 14.9 21.8l-3.6 18.1z" id="_x3C_Radial_Repeat_x3E__263_"/></g><g id="_x3C_Grid_Repeat_x3E__132_"><path class="st4490" d="M919.1 126.2c25.2-5.1 49.5 10.7 54.4 35.3 4.9 24.6-11.6 48.6-36.7 53.7l-45.6 9.2-8.8-44.5c-4.9-24.6 11.5-48.6 36.7-53.7zm-6.1 66.3 18.5-3.8c10.2-2.1 16.9-11.8 14.9-21.8-2-10-11.9-16.4-22.1-14.3-10.2 2.1-16.9 11.8-14.9 21.8l3.6 18.1z" id="_x3C_Radial_Repeat_x3E__262_"/><path class="st4490" d="M994.1 117.9c-25.2 5.1-49.5-10.7-54.4-35.3-4.9-24.6 11.5-48.6 36.7-53.7l45.6-9.2 8.8 44.5c4.9 24.5-11.6 48.6-36.7 53.7zm6.1-66.4-18.5 3.8c-10.2 2.1-16.9 11.8-14.9 21.8s11.9 16.4 22.1 14.3c10.2-2.1 16.9-11.8 14.9-21.8l-3.6-18.1z" id="_x3C_Radial_Repeat_x3E__261_"/></g><g id="_x3C_Grid_Repeat_x3E__131_"><path class="st4490" d="M1053 32.6c25.2 5.1 49.5-10.7 54.4-35.3 4.9-24.6-11.6-48.6-36.7-53.7l-45.6-9.2-8.8 44.5c-4.9 24.5 11.5 48.6 36.7 53.7zm-6.1-66.3 18.5 3.8c10.2 2.1 16.9 11.8 14.9 21.8-2 10-11.9 16.4-22.1 14.3-10.2-2.1-16.9-11.8-14.9-21.8l3.6-18.1z" id="_x3C_Radial_Repeat_x3E__260_"/><path class="st4490" d="M1128 40.9c-25.2-5.1-49.5 10.7-54.4 35.3-4.9 24.6 11.6 48.6 36.7 53.7l45.6 9.2 8.8-44.5c4.9-24.5-11.5-48.6-36.7-53.7zm6.1 66.3-18.5-3.8c-10.2-2.1-16.9-11.8-14.9-21.8 2-10 11.9-16.4 22.1-14.3 10.2 2.1 16.9 11.8 14.9 21.8l-3.6 18.1z" id="_x3C_Radial_Repeat_x3E__259_"/></g><g id="_x3C_Grid_Repeat_x3E__130_"><path class="st4490" d="M1186.9 126.2c25.2-5.1 49.5 10.7 54.4 35.3 4.9 24.6-11.6 48.6-36.7 53.7l-45.6 9.2-8.8-44.5c-4.9-24.6 11.6-48.6 36.7-53.7zm-6.1 66.3 18.5-3.8c10.2-2.1 16.9-11.8 14.9-21.8-2-10-11.9-16.4-22.1-14.3-10.2 2.1-16.9 11.8-14.9 21.8l3.6 18.1z" id="_x3C_Radial_Repeat_x3E__258_"/><path class="st4490" d="M1261.9 117.9c-25.2 5.1-49.5-10.7-54.4-35.3-4.9-24.6 11.6-48.6 36.7-53.7l45.6-9.2 8.8 44.5c4.9 24.5-11.5 48.6-36.7 53.7zm6.1-66.4-18.5 3.8c-10.2 2.1-16.9 11.8-14.9 21.8 2 10 11.9 16.4 22.1 14.3 10.2-2.1 16.9-11.8 14.9-21.8l-3.6-18.1z" id="_x3C_Radial_Repeat_x3E__257_"/></g><g id="_x3C_Grid_Repeat_x3E__129_"><path class="st4490" d="M1320.9 32.6c25.2 5.1 49.5-10.7 54.4-35.3 4.9-24.6-11.6-48.6-36.7-53.7l-45.6-9.2-8.8 44.5c-4.9 24.5 11.5 48.6 36.7 53.7zm-6.1-66.3 18.5 3.8c10.2 2.1 16.9 11.8 14.9 21.8-2 10-11.9 16.4-22.1 14.3-10.2-2.1-16.9-11.8-14.9-21.8l3.6-18.1z" id="_x3C_Radial_Repeat_x3E__256_"/><path class="st4490" d="M1395.9 40.9c-25.2-5.1-49.5 10.7-54.4 35.3-4.9 24.6 11.6 48.6 36.7 53.7l45.6 9.2 8.8-44.5c4.9-24.5-11.6-48.6-36.7-53.7zm6.1 66.3-18.5-3.8c-10.2-2.1-16.9-11.8-14.9-21.8 2-10 11.9-16.4 22.1-14.3 10.2 2.1 16.9 11.8 14.9 21.8l-3.6 18.1z" id="_x3C_Radial_Repeat_x3E__255_"/></g><g id="_x3C_Grid_Repeat_x3E__128_"><path class="st4490" d="M1454.8 126.2c25.2-5.1 49.5 10.7 54.4 35.3 4.9 24.6-11.6 48.6-36.7 53.7l-45.6 9.2-8.8-44.5c-4.9-24.6 11.5-48.6 36.7-53.7zm-6.1 66.3 18.5-3.8c10.2-2.1 16.9-11.8 14.9-21.8-2-10-11.9-16.4-22.1-14.3-10.2 2.1-16.9 11.8-14.9 21.8l3.6 18.1z" id="_x3C_Radial_Repeat_x3E__254_"/><path class="st4490" d="M1529.8 117.9c-25.2 5.1-49.5-10.7-54.4-35.3-4.9-24.6 11.6-48.6 36.7-53.7l45.6-9.2 8.8 44.5c4.9 24.5-11.5 48.6-36.7 53.7zm6.1-66.4-18.5 3.8c-10.2 2.1-16.9 11.8-14.9 21.8s11.9 16.4 22.1 14.3c10.2-2.1 16.9-11.8 14.9-21.8l-3.6-18.1z" id="_x3C_Radial_Repeat_x3E__253_"/></g><g id="_x3C_Grid_Repeat_x3E__127_"><path class="st4490" d="M1588.7 32.6c25.2 5.1 49.5-10.7 54.4-35.3 4.9-24.6-11.6-48.6-36.7-53.7l-45.6-9.2-8.8 44.5c-4.9 24.5 11.6 48.6 36.7 53.7zm-6.1-66.3 18.5 3.8c10.2 2.1 16.9 11.8 14.9 21.8-2 10-11.9 16.4-22.1 14.3-10.2-2.1-16.9-11.8-14.9-21.8l3.6-18.1z" id="_x3C_Radial_Repeat_x3E__252_"/><path class="st4490" d="M1663.7 40.9c-25.2-5.1-49.5 10.7-54.4 35.3-4.9 24.6 11.6 48.6 36.7 53.7l45.6 9.2 8.8-44.5c4.9-24.5-11.5-48.6-36.7-53.7zm6.1 66.3-18.5-3.8c-10.2-2.1-16.9-11.8-14.9-21.8 2-10 11.9-16.4 22.1-14.3 10.2 2.1 16.9 11.8 14.9 21.8l-3.6 18.1z" id="_x3C_Radial_Repeat_x3E__251_"/></g><g id="_x3C_Grid_Repeat_x3E__126_"><path class="st4490" d="M1722.7 126.2c25.2-5.1 49.5 10.7 54.4 35.3 4.9 24.6-11.6 48.6-36.7 53.7l-45.6 9.2-8.8-44.5c-4.9-24.6 11.5-48.6 36.7-53.7zm-6.1 66.3 18.5-3.8c10.2-2.1 16.9-11.8 14.9-21.8-2-10-11.9-16.4-22.1-14.3-10.2 2.1-16.9 11.8-14.9 21.8l3.6 18.1z" id="_x3C_Radial_Repeat_x3E__250_"/><path class="st4490" d="M1797.7 117.9c-25.2 5.1-49.5-10.7-54.4-35.3-4.9-24.6 11.6-48.6 36.7-53.7l45.6-9.2 8.8 44.5c4.9 24.5-11.6 48.6-36.7 53.7zm6.1-66.4-18.5 3.8c-10.2 2.1-16.9 11.8-14.9 21.8 2 10 11.9 16.4 22.1 14.3 10.2-2.1 16.9-11.8 14.9-21.8l-3.6-18.1z" id="_x3C_Radial_Repeat_x3E__249_"/></g><g id="_x3C_Grid_Repeat_x3E__125_"><path class="st4490" d="M1856.6 32.6c25.2 5.1 49.5-10.7 54.4-35.3 4.9-24.6-11.6-48.6-36.7-53.7l-45.6-9.2-8.8 44.5c-4.9 24.5 11.5 48.6 36.7 53.7zm-6.1-66.3L1869-30c10.2 2.1 16.9 11.8 14.9 21.8-2 10-11.9 16.4-22.1 14.3-10.2-2.1-16.9-11.8-14.9-21.8l3.6-18z" id="_x3C_Radial_Repeat_x3E__248_"/><path class="st4490" d="M1931.6 40.9c-25.2-5.1-49.5 10.7-54.4 35.3-4.9 24.6 11.6 48.6 36.7 53.7l45.6 9.2 8.8-44.5c4.9-24.5-11.5-48.6-36.7-53.7zm6.1 66.3-18.5-3.8c-10.2-2.1-16.9-11.8-14.9-21.8 2-10 11.9-16.4 22.1-14.3 10.2 2.1 16.9 11.8 14.9 21.8l-3.6 18.1z" id="_x3C_Radial_Repeat_x3E__247_"/></g><g id="_x3C_Grid_Repeat_x3E__122_"><path class="st4490" d="M-18.4 203.1c25.2 5.1 49.5-10.7 54.4-35.3 4.9-24.6-11.6-48.6-36.7-53.7l-45.6-9.2-8.8 44.5C-60 174-43.6 198-18.4 203.1zm-6.1-66.3 18.5 3.8c10.2 2.1 16.9 11.8 14.9 21.8-2 10-11.9 16.4-22.1 14.3-10.2-2.1-16.9-11.8-14.9-21.8l3.6-18.1z" id="_x3C_Radial_Repeat_x3E__242_"/><path class="st4490" d="M56.6 211.5c-25.2-5.1-49.5 10.7-54.4 35.3-4.9 24.6 11.6 48.6 36.7 53.7l45.6 9.2 8.8-44.5c4.9-24.6-11.6-48.7-36.7-53.7zm6.1 66.3L44.1 274c-10.2-2.1-16.9-11.8-14.9-21.8 2-10 11.9-16.4 22.1-14.3 10.2 2.1 16.9 11.8 14.9 21.8l-3.5 18.1z" id="_x3C_Radial_Repeat_x3E__241_"/></g><g id="_x3C_Grid_Repeat_x3E__121_"><path class="st4490" d="M115.5 296.7c25.2-5.1 49.5 10.7 54.4 35.3 4.9 24.6-11.6 48.6-36.7 53.7l-45.6 9.2-8.8-44.5c-4.9-24.5 11.5-48.6 36.7-53.7zm-6.1 66.3 18.5-3.8c10.2-2.1 16.9-11.8 14.9-21.8-2-10-11.9-16.4-22.1-14.3-10.2 2.1-16.9 11.8-14.9 21.8l3.6 18.1z" id="_x3C_Radial_Repeat_x3E__240_"/><path class="st4490" d="M190.5 288.4c-25.2 5.1-49.5-10.7-54.4-35.3-4.9-24.6 11.6-48.6 36.7-53.7l45.6-9.2 8.8 44.5c4.9 24.5-11.5 48.6-36.7 53.7zm6.1-66.3-18.5 3.8c-10.2 2.1-16.9 11.8-14.9 21.8 2 10 11.9 16.4 22.1 14.3 10.2-2.1 16.9-11.8 14.9-21.8l-3.6-18.1z" id="_x3C_Radial_Repeat_x3E__239_"/></g><g id="_x3C_Grid_Repeat_x3E__120_"><path class="st4490" d="M249.4 203.1c25.2 5.1 49.5-10.7 54.4-35.3 4.9-24.6-11.6-48.6-36.7-53.7l-45.6-9.2-8.8 44.5c-4.9 24.6 11.6 48.6 36.7 53.7zm-6.1-66.3 18.5 3.8c10.2 2.1 16.9 11.8 14.9 21.8-2 10-11.9 16.4-22.1 14.3-10.2-2.1-16.9-11.8-14.9-21.8l3.6-18.1z" id="_x3C_Radial_Repeat_x3E__238_"/><path class="st4490" d="M324.4 211.5c-25.2-5.1-49.5 10.7-54.4 35.3-4.9 24.6 11.6 48.6 36.7 53.7l45.6 9.2 8.8-44.5c4.9-24.6-11.5-48.7-36.7-53.7zm6.1 66.3L312 274c-10.2-2.1-16.9-11.8-14.9-21.8 2-10 11.9-16.4 22.1-14.3 10.2 2.1 16.9 11.8 14.9 21.8l-3.6 18.1z" id="_x3C_Radial_Repeat_x3E__237_"/></g><g id="_x3C_Grid_Repeat_x3E__119_"><path class="st4490" d="M383.4 296.7c25.2-5.1 49.5 10.7 54.4 35.3 4.9 24.6-11.6 48.6-36.7 53.7l-45.6 9.2-8.8-44.5c-4.9-24.5 11.5-48.6 36.7-53.7zm-6.1 66.3 18.5-3.8c10.2-2.1 16.9-11.8 14.9-21.8-2-10-11.9-16.4-22.1-14.3-10.2 2.1-16.9 11.8-14.9 21.8l3.6 18.1z" id="_x3C_Radial_Repeat_x3E__236_"/><path class="st4490" d="M458.4 288.4c-25.2 5.1-49.5-10.7-54.4-35.3-4.9-24.6 11.6-48.6 36.7-53.7l45.6-9.2 8.8 44.5c4.9 24.5-11.6 48.6-36.7 53.7zm6.1-66.3-18.5 3.8c-10.2 2.1-16.9 11.8-14.9 21.8 2 10 11.9 16.4 22.1 14.3 10.2-2.1 16.9-11.8 14.9-21.8l-3.6-18.1z" id="_x3C_Radial_Repeat_x3E__235_"/></g><g id="_x3C_Grid_Repeat_x3E__118_"><path class="st4490" d="M517.3 203.1c25.2 5.1 49.5-10.7 54.4-35.3 4.9-24.6-11.6-48.6-36.7-53.7l-45.6-9.2-8.8 44.5c-4.9 24.6 11.5 48.6 36.7 53.7zm-6.1-66.3 18.5 3.8c10.2 2.1 16.9 11.8 14.9 21.8-2 10-11.9 16.4-22.1 14.3-10.2-2.1-16.9-11.8-14.9-21.8l3.6-18.1z" id="_x3C_Radial_Repeat_x3E__234_"/><path class="st4490" d="M592.3 211.5c-25.2-5.1-49.5 10.7-54.4 35.3-4.9 24.6 11.6 48.6 36.7 53.7l45.6 9.2 8.8-44.5c4.9-24.6-11.5-48.7-36.7-53.7zm6.1 66.3-18.5-3.8c-10.2-2.1-16.9-11.8-14.9-21.8 2-10 11.9-16.4 22.1-14.3 10.2 2.1 16.9 11.8 14.9 21.8l-3.6 18.1z" id="_x3C_Radial_Repeat_x3E__233_"/></g><g id="_x3C_Grid_Repeat_x3E__117_"><path class="st4490" d="M651.2 296.7c25.2-5.1 49.5 10.7 54.4 35.3 4.9 24.6-11.6 48.6-36.7 53.7l-45.6 9.2-8.8-44.5c-4.9-24.5 11.6-48.6 36.7-53.7zm-6.1 66.3 18.5-3.8c10.2-2.1 16.9-11.8 14.9-21.8-2-10-11.9-16.4-22.1-14.3-10.2 2.1-16.9 11.8-14.9 21.8l3.6 18.1z" id="_x3C_Radial_Repeat_x3E__232_"/><path class="st4490" d="M726.2 288.4c-25.2 5.1-49.5-10.7-54.4-35.3-4.9-24.6 11.6-48.6 36.7-53.7l45.6-9.2 8.8 44.5c4.9 24.5-11.5 48.6-36.7 53.7zm6.1-66.3-18.5 3.8c-10.2 2.1-16.9 11.8-14.9 21.8 2 10 11.9 16.4 22.1 14.3 10.2-2.1 16.9-11.8 14.9-21.8l-3.6-18.1z" id="_x3C_Radial_Repeat_x3E__231_"/></g><g id="_x3C_Grid_Repeat_x3E__116_"><path class="st4490" d="M785.1 203.1c25.2 5.1 49.5-10.7 54.4-35.3 4.9-24.6-11.6-48.6-36.7-53.7l-45.6-9.2-8.8 44.5c-4.9 24.6 11.6 48.6 36.7 53.7zm-6-66.3 18.5 3.8c10.2 2.1 16.9 11.8 14.9 21.8-2 10-11.9 16.4-22.1 14.3-10.2-2.1-16.9-11.8-14.9-21.8l3.6-18.1z" id="_x3C_Radial_Repeat_x3E__230_"/><path class="st4490" d="M860.2 211.5c-25.2-5.1-49.5 10.7-54.4 35.3-4.9 24.6 11.6 48.6 36.7 53.7l45.6 9.2 8.8-44.5c4.9-24.6-11.6-48.7-36.7-53.7zm6 66.3-18.5-3.8c-10.2-2.1-16.9-11.8-14.9-21.8 2-10 11.9-16.4 22.1-14.3 10.2 2.1 16.9 11.8 14.9 21.8l-3.6 18.1z" id="_x3C_Radial_Repeat_x3E__229_"/></g><g id="_x3C_Grid_Repeat_x3E__115_"><path class="st4490" d="M919.1 296.7c25.2-5.1 49.5 10.7 54.4 35.3 4.9 24.6-11.6 48.6-36.7 53.7l-45.6 9.2-8.8-44.5c-4.9-24.5 11.5-48.6 36.7-53.7zM913 363l18.5-3.8c10.2-2.1 16.9-11.8 14.9-21.8-2-10-11.9-16.4-22.1-14.3-10.2 2.1-16.9 11.8-14.9 21.8L913 363z" id="_x3C_Radial_Repeat_x3E__228_"/><path class="st4490" d="M994.1 288.4c-25.2 5.1-49.5-10.7-54.4-35.3-4.9-24.6 11.6-48.6 36.7-53.7l45.6-9.2 8.8 44.5c4.9 24.5-11.6 48.6-36.7 53.7zm6.1-66.3-18.5 3.8c-10.2 2.1-16.9 11.8-14.9 21.8 2 10 11.9 16.4 22.1 14.3 10.2-2.1 16.9-11.8 14.9-21.8l-3.6-18.1z" id="_x3C_Radial_Repeat_x3E__227_"/></g><g id="_x3C_Grid_Repeat_x3E__114_"><path class="st4490" d="M1053 203.1c25.2 5.1 49.5-10.7 54.4-35.3 4.9-24.6-11.6-48.6-36.7-53.7l-45.6-9.2-8.8 44.5c-4.9 24.6 11.5 48.6 36.7 53.7zm-6.1-66.3 18.5 3.8c10.2 2.1 16.9 11.8 14.9 21.8-2 10-11.9 16.4-22.1 14.3-10.2-2.1-16.9-11.8-14.9-21.8l3.6-18.1z" id="_x3C_Radial_Repeat_x3E__226_"/><path class="st4490" d="M1128 211.5c-25.2-5.1-49.5 10.7-54.4 35.3-4.9 24.6 11.6 48.6 36.7 53.7l45.6 9.2 8.8-44.5c4.9-24.6-11.5-48.7-36.7-53.7zm6.1 66.3-18.5-3.8c-10.2-2.1-16.9-11.8-14.9-21.8 2-10 11.9-16.4 22.1-14.3 10.2 2.1 16.9 11.8 14.9 21.8l-3.6 18.1z" id="_x3C_Radial_Repeat_x3E__225_"/></g><g id="_x3C_Grid_Repeat_x3E__113_"><path class="st4490" d="M1186.9 296.7c25.2-5.1 49.5 10.7 54.4 35.3 4.9 24.6-11.6 48.6-36.7 53.7l-45.6 9.2-8.8-44.5c-4.9-24.5 11.6-48.6 36.7-53.7zm-6.1 66.3 18.5-3.8c10.2-2.1 16.9-11.8 14.9-21.8-2-10-11.9-16.4-22.1-14.3-10.2 2.1-16.9 11.8-14.9 21.8l3.6 18.1z" id="_x3C_Radial_Repeat_x3E__224_"/><path class="st4490" d="M1261.9 288.4c-25.2 5.1-49.5-10.7-54.4-35.3-4.9-24.6 11.6-48.6 36.7-53.7l45.6-9.2 8.8 44.5c4.9 24.5-11.5 48.6-36.7 53.7zm6.1-66.3-18.5 3.8c-10.2 2.1-16.9 11.8-14.9 21.8 2 10 11.9 16.4 22.1 14.3 10.2-2.1 16.9-11.8 14.9-21.8l-3.6-18.1z" id="_x3C_Radial_Repeat_x3E__223_"/></g><g id="_x3C_Grid_Repeat_x3E__112_"><path class="st4490" d="M1320.9 203.1c25.2 5.1 49.5-10.7 54.4-35.3 4.9-24.6-11.6-48.6-36.7-53.7l-45.6-9.2-8.8 44.5c-4.9 24.6 11.5 48.6 36.7 53.7zm-6.1-66.3 18.5 3.8c10.2 2.1 16.9 11.8 14.9 21.8-2 10-11.9 16.4-22.1 14.3-10.2-2.1-16.9-11.8-14.9-21.8l3.6-18.1z" id="_x3C_Radial_Repeat_x3E__222_"/><path class="st4490" d="M1395.9 211.5c-25.2-5.1-49.5 10.7-54.4 35.3-4.9 24.6 11.6 48.6 36.7 53.7l45.6 9.2 8.8-44.5c4.9-24.6-11.6-48.7-36.7-53.7zm6.1 66.3-18.5-3.8c-10.2-2.1-16.9-11.8-14.9-21.8 2-10 11.9-16.4 22.1-14.3 10.2 2.1 16.9 11.8 14.9 21.8l-3.6 18.1z" id="_x3C_Radial_Repeat_x3E__221_"/></g><g id="_x3C_Grid_Repeat_x3E__111_"><path class="st4490" d="M1454.8 296.7c25.2-5.1 49.5 10.7 54.4 35.3 4.9 24.6-11.6 48.6-36.7 53.7l-45.6 9.2-8.8-44.5c-4.9-24.5 11.5-48.6 36.7-53.7zm-6.1 66.3 18.5-3.8c10.2-2.1 16.9-11.8 14.9-21.8-2-10-11.9-16.4-22.1-14.3-10.2 2.1-16.9 11.8-14.9 21.8l3.6 18.1z" id="_x3C_Radial_Repeat_x3E__220_"/><path class="st4490" d="M1529.8 288.4c-25.2 5.1-49.5-10.7-54.4-35.3-4.9-24.6 11.6-48.6 36.7-53.7l45.6-9.2 8.8 44.5c4.9 24.5-11.5 48.6-36.7 53.7zm6.1-66.3-18.5 3.8c-10.2 2.1-16.9 11.8-14.9 21.8 2 10 11.9 16.4 22.1 14.3 10.2-2.1 16.9-11.8 14.9-21.8l-3.6-18.1z" id="_x3C_Radial_Repeat_x3E__219_"/></g><g id="_x3C_Grid_Repeat_x3E__110_"><path class="st4490" d="M1588.7 203.1c25.2 5.1 49.5-10.7 54.4-35.3 4.9-24.6-11.6-48.6-36.7-53.7l-45.6-9.2-8.8 44.5c-4.9 24.6 11.6 48.6 36.7 53.7zm-6.1-66.3 18.5 3.8c10.2 2.1 16.9 11.8 14.9 21.8-2 10-11.9 16.4-22.1 14.3-10.2-2.1-16.9-11.8-14.9-21.8l3.6-18.1z" id="_x3C_Radial_Repeat_x3E__218_"/><path class="st4490" d="M1663.7 211.5c-25.2-5.1-49.5 10.7-54.4 35.3-4.9 24.6 11.6 48.6 36.7 53.7l45.6 9.2 8.8-44.5c4.9-24.6-11.5-48.7-36.7-53.7zm6.1 66.3-18.5-3.8c-10.2-2.1-16.9-11.8-14.9-21.8 2-10 11.9-16.4 22.1-14.3 10.2 2.1 16.9 11.8 14.9 21.8l-3.6 18.1z" id="_x3C_Radial_Repeat_x3E__217_"/></g><g id="_x3C_Grid_Repeat_x3E__109_"><path class="st4490" d="M1722.7 296.7c25.2-5.1 49.5 10.7 54.4 35.3 4.9 24.6-11.6 48.6-36.7 53.7l-45.6 9.2-8.8-44.5c-4.9-24.5 11.5-48.6 36.7-53.7zm-6.1 66.3 18.5-3.8c10.2-2.1 16.9-11.8 14.9-21.8-2-10-11.9-16.4-22.1-14.3-10.2 2.1-16.9 11.8-14.9 21.8l3.6 18.1z" id="_x3C_Radial_Repeat_x3E__216_"/><path class="st4490" d="M1797.7 288.4c-25.2 5.1-49.5-10.7-54.4-35.3-4.9-24.6 11.6-48.6 36.7-53.7l45.6-9.2 8.8 44.5c4.9 24.5-11.6 48.6-36.7 53.7zm6.1-66.3-18.5 3.8c-10.2 2.1-16.9 11.8-14.9 21.8 2 10 11.9 16.4 22.1 14.3 10.2-2.1 16.9-11.8 14.9-21.8l-3.6-18.1z" id="_x3C_Radial_Repeat_x3E__215_"/></g><g id="_x3C_Grid_Repeat_x3E__108_"><path class="st4490" d="M1856.6 203.1c25.2 5.1 49.5-10.7 54.4-35.3 4.9-24.6-11.6-48.6-36.7-53.7l-45.6-9.2-8.8 44.5c-4.9 24.6 11.5 48.6 36.7 53.7zm-6.1-66.3 18.5 3.8c10.2 2.1 16.9 11.8 14.9 21.8-2 10-11.9 16.4-22.1 14.3-10.2-2.1-16.9-11.8-14.9-21.8l3.6-18.1z" id="_x3C_Radial_Repeat_x3E__214_"/><path class="st4490" d="M1931.6 211.5c-25.2-5.1-49.5 10.7-54.4 35.3-4.9 24.6 11.6 48.6 36.7 53.7l45.6 9.2 8.8-44.5c4.9-24.6-11.5-48.7-36.7-53.7zm6.1 66.3-18.5-3.8c-10.2-2.1-16.9-11.8-14.9-21.8 2-10 11.9-16.4 22.1-14.3 10.2 2.1 16.9 11.8 14.9 21.8l-3.6 18.1z" id="_x3C_Radial_Repeat_x3E__213_"/></g><g id="_x3C_Grid_Repeat_x3E__105_"><path class="st4490" d="M-18.4 373.6C6.7 378.7 31.1 363 36 338.4c4.9-24.6-11.6-48.6-36.7-53.7l-45.6-9.2-8.8 44.5c-4.9 24.5 11.5 48.6 36.7 53.6zm-6.1-66.3 18.5 3.8c10.2 2.1 16.9 11.8 14.9 21.8-2 10-11.9 16.4-22.1 14.3-10.2-2.1-16.9-11.8-14.9-21.8l3.6-18.1z" id="_x3C_Radial_Repeat_x3E__208_"/><path class="st4490" d="M56.6 382c-25.2-5.1-49.5 10.7-54.4 35.3-4.9 24.6 11.6 48.6 36.7 53.7l45.6 9.2 8.8-44.5c4.9-24.6-11.6-48.6-36.7-53.7zm6.1 66.3-18.5-3.8c-10.2-2.1-16.9-11.8-14.9-21.8s11.9-16.4 22.1-14.3c10.2 2.1 16.9 11.8 14.9 21.8l-3.6 18.1z" id="_x3C_Radial_Repeat_x3E__207_"/></g><g id="_x3C_Grid_Repeat_x3E__104_"><path class="st4490" d="M115.5 467.2c25.2-5.1 49.5 10.7 54.4 35.3 4.9 24.6-11.6 48.6-36.7 53.7l-45.6 9.2-8.8-44.4c-4.9-24.6 11.5-48.7 36.7-53.8zm-6.1 66.4 18.5-3.8c10.2-2.1 16.9-11.8 14.9-21.8-2-10-11.9-16.4-22.1-14.3-10.2 2.1-16.9 11.8-14.9 21.8l3.6 18.1z" id="_x3C_Radial_Repeat_x3E__206_"/><path class="st4490" d="M190.5 458.9c-25.2 5.1-49.5-10.7-54.4-35.3-4.9-24.6 11.6-48.6 36.7-53.7l45.6-9.2 8.8 44.5c4.9 24.6-11.5 48.6-36.7 53.7zm6.1-66.3-18.5 3.8c-10.2 2.1-16.9 11.8-14.9 21.8 2 10 11.9 16.4 22.1 14.3 10.2-2.1 16.9-11.8 14.9-21.8l-3.6-18.1z" id="_x3C_Radial_Repeat_x3E__205_"/></g><g id="_x3C_Grid_Repeat_x3E__103_"><path class="st4490" d="M249.4 373.6c25.2 5.1 49.5-10.7 54.4-35.3 4.9-24.6-11.6-48.6-36.7-53.7l-45.6-9.2-8.8 44.5c-4.9 24.6 11.6 48.7 36.7 53.7zm-6.1-66.3 18.5 3.8c10.2 2.1 16.9 11.8 14.9 21.8-2 10-11.9 16.4-22.1 14.3-10.2-2.1-16.9-11.8-14.9-21.8l3.6-18.1z" id="_x3C_Radial_Repeat_x3E__204_"/><path class="st4490" d="M324.4 382c-25.2-5.1-49.5 10.7-54.4 35.3-4.9 24.6 11.6 48.6 36.7 53.7l45.6 9.2 8.8-44.5c4.9-24.6-11.5-48.6-36.7-53.7zm6.1 66.3-18.5-3.8c-10.2-2.1-16.9-11.8-14.9-21.8s11.9-16.4 22.1-14.3c10.2 2.1 16.9 11.8 14.9 21.8l-3.6 18.1z" id="_x3C_Radial_Repeat_x3E__203_"/></g><g id="_x3C_Grid_Repeat_x3E__102_"><path class="st4490" d="M383.4 467.2c25.2-5.1 49.5 10.7 54.4 35.3 4.9 24.6-11.6 48.6-36.7 53.7l-45.6 9.2-8.8-44.5c-4.9-24.5 11.5-48.6 36.7-53.7zm-6.1 66.4 18.5-3.8c10.2-2.1 16.9-11.8 14.9-21.8-2-10-11.9-16.4-22.1-14.3-10.2 2.1-16.9 11.8-14.9 21.8l3.6 18.1z" id="_x3C_Radial_Repeat_x3E__202_"/><path class="st4490" d="M458.4 458.9c-25.2 5.1-49.5-10.7-54.4-35.3-4.9-24.6 11.6-48.6 36.7-53.7l45.6-9.2 8.8 44.5c4.9 24.6-11.6 48.6-36.7 53.7zm6.1-66.3-18.5 3.8c-10.2 2.1-16.9 11.8-14.9 21.8s11.9 16.4 22.1 14.3c10.2-2.1 16.9-11.8 14.9-21.8l-3.6-18.1z" id="_x3C_Radial_Repeat_x3E__201_"/></g><g id="_x3C_Grid_Repeat_x3E__101_"><path class="st4490" d="M517.3 373.6c25.2 5.1 49.5-10.7 54.4-35.3 4.9-24.6-11.6-48.6-36.7-53.7l-45.6-9.2-8.8 44.5c-4.9 24.6 11.5 48.7 36.7 53.7zm-6.1-66.3 18.5 3.8c10.2 2.1 16.9 11.8 14.9 21.8-2 10-11.9 16.4-22.1 14.3-10.2-2.1-16.9-11.8-14.9-21.8l3.6-18.1z" id="_x3C_Radial_Repeat_x3E__200_"/><path class="st4490" d="M592.3 382c-25.2-5.1-49.5 10.7-54.4 35.3-4.9 24.6 11.6 48.6 36.7 53.7l45.6 9.2 8.8-44.5c4.9-24.6-11.5-48.6-36.7-53.7zm6.1 66.3-18.5-3.8c-10.2-2.1-16.9-11.8-14.9-21.8 2-10 11.9-16.4 22.1-14.3 10.2 2.1 16.9 11.8 14.9 21.8l-3.6 18.1z" id="_x3C_Radial_Repeat_x3E__199_"/></g><g id="_x3C_Grid_Repeat_x3E__100_"><path class="st4490" d="M651.2 467.2c25.2-5.1 49.5 10.7 54.4 35.3 4.9 24.6-11.6 48.6-36.7 53.7l-45.6 9.2-8.8-44.5c-4.9-24.5 11.6-48.6 36.7-53.7zm-6.1 66.4 18.5-3.8c10.2-2.1 16.9-11.8 14.9-21.8s-11.9-16.4-22.1-14.3c-10.2 2.1-16.9 11.8-14.9 21.8l3.6 18.1z" id="_x3C_Radial_Repeat_x3E__198_"/><path class="st4490" d="M726.2 458.9c-25.2 5.1-49.5-10.7-54.4-35.3-4.9-24.6 11.6-48.6 36.7-53.7l45.6-9.2 8.8 44.5c4.9 24.6-11.5 48.6-36.7 53.7zm6.1-66.3-18.5 3.8c-10.2 2.1-16.9 11.8-14.9 21.8s11.9 16.4 22.1 14.3c10.2-2.1 16.9-11.8 14.9-21.8l-3.6-18.1z" id="_x3C_Radial_Repeat_x3E__197_"/></g><g id="_x3C_Grid_Repeat_x3E__99_"><path class="st4490" d="M785.1 373.6c25.2 5.1 49.5-10.7 54.4-35.3 4.9-24.6-11.6-48.6-36.7-53.7l-45.6-9.2-8.8 44.5c-4.9 24.6 11.6 48.7 36.7 53.7zm-6-66.3 18.5 3.8c10.2 2.1 16.9 11.8 14.9 21.8-2 10-11.9 16.4-22.1 14.3-10.2-2.1-16.9-11.8-14.9-21.8l3.6-18.1z" id="_x3C_Radial_Repeat_x3E__196_"/><path class="st4490" d="M860.2 382c-25.2-5.1-49.5 10.7-54.4 35.3-4.9 24.6 11.6 48.6 36.7 53.7l45.6 9.2 8.8-44.5c4.9-24.6-11.6-48.6-36.7-53.7zm6 66.3-18.5-3.8c-10.2-2.1-16.9-11.8-14.9-21.8s11.9-16.4 22.1-14.3c10.2 2.1 16.9 11.8 14.9 21.8l-3.6 18.1z" id="_x3C_Radial_Repeat_x3E__195_"/></g><g id="_x3C_Grid_Repeat_x3E__98_"><path class="st4490" d="M919.1 467.2c25.2-5.1 49.5 10.7 54.4 35.3 4.9 24.6-11.6 48.6-36.7 53.7l-45.6 9.2-8.8-44.5c-4.9-24.5 11.5-48.6 36.7-53.7zm-6.1 66.4 18.5-3.8c10.2-2.1 16.9-11.8 14.9-21.8-2-10-11.9-16.4-22.1-14.3-10.2 2.1-16.9 11.8-14.9 21.8l3.6 18.1z" id="_x3C_Radial_Repeat_x3E__194_"/><path class="st4490" d="M994.1 458.9c-25.2 5.1-49.5-10.7-54.4-35.3-4.9-24.6 11.6-48.6 36.7-53.7l45.6-9.2 8.8 44.5c4.9 24.6-11.6 48.6-36.7 53.7zm6.1-66.3-18.5 3.8c-10.2 2.1-16.9 11.8-14.9 21.8s11.9 16.4 22.1 14.3c10.2-2.1 16.9-11.8 14.9-21.8l-3.6-18.1z" id="_x3C_Radial_Repeat_x3E__193_"/></g><g id="_x3C_Grid_Repeat_x3E__97_"><path class="st4490" d="M1053 373.6c25.2 5.1 49.5-10.7 54.4-35.3 4.9-24.6-11.6-48.6-36.7-53.7l-45.6-9.2-8.8 44.5c-4.9 24.6 11.5 48.7 36.7 53.7zm-6.1-66.3 18.5 3.8c10.2 2.1 16.9 11.8 14.9 21.8-2 10-11.9 16.4-22.1 14.3-10.2-2.1-16.9-11.8-14.9-21.8l3.6-18.1z" id="_x3C_Radial_Repeat_x3E__192_"/><path class="st4490" d="M1128 382c-25.2-5.1-49.5 10.7-54.4 35.3-4.9 24.6 11.6 48.6 36.7 53.7l45.6 9.2 8.8-44.5c4.9-24.6-11.5-48.6-36.7-53.7zm6.1 66.3-18.5-3.8c-10.2-2.1-16.9-11.8-14.9-21.8 2-10 11.9-16.4 22.1-14.3 10.2 2.1 16.9 11.8 14.9 21.8l-3.6 18.1z" id="_x3C_Radial_Repeat_x3E__191_"/></g><g id="_x3C_Grid_Repeat_x3E__96_"><path class="st4490" d="M1186.9 467.2c25.2-5.1 49.5 10.7 54.4 35.3 4.9 24.6-11.6 48.6-36.7 53.7l-45.6 9.2-8.8-44.5c-4.9-24.5 11.6-48.6 36.7-53.7zm-6.1 66.4 18.5-3.8c10.2-2.1 16.9-11.8 14.9-21.8-2-10-11.9-16.4-22.1-14.3-10.2 2.1-16.9 11.8-14.9 21.8l3.6 18.1z" id="_x3C_Radial_Repeat_x3E__190_"/><path class="st4490" d="M1261.9 458.9c-25.2 5.1-49.5-10.7-54.4-35.3-4.9-24.6 11.6-48.6 36.7-53.7l45.6-9.2 8.8 44.5c4.9 24.6-11.5 48.6-36.7 53.7zm6.1-66.3-18.5 3.8c-10.2 2.1-16.9 11.8-14.9 21.8 2 10 11.9 16.4 22.1 14.3 10.2-2.1 16.9-11.8 14.9-21.8l-3.6-18.1z" id="_x3C_Radial_Repeat_x3E__189_"/></g><g id="_x3C_Grid_Repeat_x3E__95_"><path class="st4490" d="M1320.9 373.6c25.2 5.1 49.5-10.7 54.4-35.3 4.9-24.6-11.6-48.6-36.7-53.7l-45.6-9.2-8.8 44.5c-4.9 24.6 11.5 48.7 36.7 53.7zm-6.1-66.3 18.5 3.8c10.2 2.1 16.9 11.8 14.9 21.8-2 10-11.9 16.4-22.1 14.3-10.2-2.1-16.9-11.8-14.9-21.8l3.6-18.1z" id="_x3C_Radial_Repeat_x3E__188_"/><path class="st4490" d="M1395.9 382c-25.2-5.1-49.5 10.7-54.4 35.3-4.9 24.6 11.6 48.6 36.7 53.7l45.6 9.2 8.8-44.5c4.9-24.6-11.6-48.6-36.7-53.7zm6.1 66.3-18.5-3.8c-10.2-2.1-16.9-11.8-14.9-21.8 2-10 11.9-16.4 22.1-14.3 10.2 2.1 16.9 11.8 14.9 21.8l-3.6 18.1z" id="_x3C_Radial_Repeat_x3E__187_"/></g><g id="_x3C_Grid_Repeat_x3E__94_"><path class="st4490" d="M1454.8 467.2c25.2-5.1 49.5 10.7 54.4 35.3 4.9 24.6-11.6 48.6-36.7 53.7l-45.6 9.2-8.8-44.5c-4.9-24.5 11.5-48.6 36.7-53.7zm-6.1 66.4 18.5-3.8c10.2-2.1 16.9-11.8 14.9-21.8-2-10-11.9-16.4-22.1-14.3-10.2 2.1-16.9 11.8-14.9 21.8l3.6 18.1z" id="_x3C_Radial_Repeat_x3E__186_"/><path class="st4490" d="M1529.8 458.9c-25.2 5.1-49.5-10.7-54.4-35.3-4.9-24.6 11.6-48.6 36.7-53.7l45.6-9.2 8.8 44.5c4.9 24.6-11.5 48.6-36.7 53.7zm6.1-66.3-18.5 3.8c-10.2 2.1-16.9 11.8-14.9 21.8s11.9 16.4 22.1 14.3c10.2-2.1 16.9-11.8 14.9-21.8l-3.6-18.1z" id="_x3C_Radial_Repeat_x3E__185_"/></g><g id="_x3C_Grid_Repeat_x3E__93_"><path class="st4490" d="M1588.7 373.6c25.2 5.1 49.5-10.7 54.4-35.3 4.9-24.6-11.6-48.6-36.7-53.7l-45.6-9.2-8.8 44.5c-4.9 24.6 11.6 48.7 36.7 53.7zm-6.1-66.3 18.5 3.8c10.2 2.1 16.9 11.8 14.9 21.8-2 10-11.9 16.4-22.1 14.3-10.2-2.1-16.9-11.8-14.9-21.8l3.6-18.1z" id="_x3C_Radial_Repeat_x3E__184_"/><path class="st4490" d="M1663.7 382c-25.2-5.1-49.5 10.7-54.4 35.3-4.9 24.6 11.6 48.6 36.7 53.7l45.6 9.2 8.8-44.5c4.9-24.6-11.5-48.6-36.7-53.7zm6.1 66.3-18.5-3.8c-10.2-2.1-16.9-11.8-14.9-21.8 2-10 11.9-16.4 22.1-14.3 10.2 2.1 16.9 11.8 14.9 21.8l-3.6 18.1z" id="_x3C_Radial_Repeat_x3E__183_"/></g><g id="_x3C_Grid_Repeat_x3E__92_"><path class="st4490" d="M1722.7 467.2c25.2-5.1 49.5 10.7 54.4 35.3 4.9 24.6-11.6 48.6-36.7 53.7l-45.6 9.2-8.8-44.5c-4.9-24.5 11.5-48.6 36.7-53.7zm-6.1 66.4 18.5-3.8c10.2-2.1 16.9-11.8 14.9-21.8-2-10-11.9-16.4-22.1-14.3-10.2 2.1-16.9 11.8-14.9 21.8l3.6 18.1z" id="_x3C_Radial_Repeat_x3E__182_"/><path class="st4490" d="M1797.7 458.9c-25.2 5.1-49.5-10.7-54.4-35.3-4.9-24.6 11.6-48.6 36.7-53.7l45.6-9.2 8.8 44.5c4.9 24.6-11.6 48.6-36.7 53.7zm6.1-66.3-18.5 3.8c-10.2 2.1-16.9 11.8-14.9 21.8 2 10 11.9 16.4 22.1 14.3 10.2-2.1 16.9-11.8 14.9-21.8l-3.6-18.1z" id="_x3C_Radial_Repeat_x3E__181_"/></g><g id="_x3C_Grid_Repeat_x3E__91_"><path class="st4490" d="M1856.6 373.6c25.2 5.1 49.5-10.7 54.4-35.3 4.9-24.6-11.6-48.6-36.7-53.7l-45.6-9.2-8.8 44.5c-4.9 24.6 11.5 48.7 36.7 53.7zm-6.1-66.3 18.5 3.8c10.2 2.1 16.9 11.8 14.9 21.8-2 10-11.9 16.4-22.1 14.3-10.2-2.1-16.9-11.8-14.9-21.8l3.6-18.1z" id="_x3C_Radial_Repeat_x3E__180_"/><path class="st4490" d="M1931.6 382c-25.2-5.1-49.5 10.7-54.4 35.3-4.9 24.6 11.6 48.6 36.7 53.7l45.6 9.2 8.8-44.5c4.9-24.6-11.5-48.6-36.7-53.7zm6.1 66.3-18.5-3.8c-10.2-2.1-16.9-11.8-14.9-21.8 2-10 11.9-16.4 22.1-14.3 10.2 2.1 16.9 11.8 14.9 21.8l-3.6 18.1z" id="_x3C_Radial_Repeat_x3E__179_"/></g><g id="_x3C_Grid_Repeat_x3E__88_"><path class="st4490" d="M-18.4 544.2c25.2 5.1 49.5-10.7 54.4-35.3 4.9-24.6-11.6-48.6-36.7-53.7l-45.6-9.2-8.8 44.5c-4.9 24.5 11.5 48.6 36.7 53.7zm-6.1-66.3 18.5 3.8c10.2 2.1 16.9 11.8 14.9 21.8-2 10-11.9 16.4-22.1 14.3-10.2-2.1-16.9-11.8-14.9-21.8l3.6-18.1z" id="_x3C_Radial_Repeat_x3E__174_"/><path class="st4490" d="M56.6 552.5c-25.2-5.1-49.5 10.7-54.4 35.3-4.9 24.6 11.6 48.6 36.7 53.7l45.6 9.2 8.8-44.5c4.9-24.5-11.6-48.6-36.7-53.7zm6.1 66.3L44.2 615c-10.2-2.1-16.9-11.8-14.9-21.8s11.9-16.4 22.1-14.3c10.2 2.1 16.9 11.8 14.9 21.8l-3.6 18.1z" id="_x3C_Radial_Repeat_x3E__173_"/></g><g id="_x3C_Grid_Repeat_x3E__87_"><path class="st4490" d="M115.5 637.8c25.2-5.1 49.5 10.7 54.4 35.3 4.9 24.6-11.6 48.6-36.7 53.7L87.6 736l-8.8-44.5c-4.9-24.6 11.5-48.6 36.7-53.7zm-6.1 66.3 18.5-3.8c10.2-2.1 16.9-11.8 14.9-21.8-2-10-11.9-16.4-22.1-14.3-10.2 2.1-16.9 11.8-14.9 21.8l3.6 18.1z" id="_x3C_Radial_Repeat_x3E__172_"/><path class="st4490" d="M190.5 629.4c-25.2 5.1-49.5-10.7-54.4-35.3-4.9-24.6 11.6-48.6 36.7-53.7l45.6-9.2 8.8 44.5c4.9 24.6-11.5 48.6-36.7 53.7zm6.1-66.3-18.5 3.8c-10.2 2.1-16.9 11.8-14.9 21.8 2 10 11.9 16.4 22.1 14.3 10.2-2.1 16.9-11.8 14.9-21.8l-3.6-18.1z" id="_x3C_Radial_Repeat_x3E__171_"/></g><g id="_x3C_Grid_Repeat_x3E__86_"><path class="st4490" d="M249.4 544.2c25.2 5.1 49.5-10.7 54.4-35.3 4.9-24.6-11.6-48.6-36.7-53.7l-45.6-9.2-8.8 44.5c-4.9 24.5 11.6 48.6 36.7 53.7zm-6.1-66.3 18.5 3.8c10.2 2.1 16.9 11.8 14.9 21.8-2 10-11.9 16.4-22.1 14.3-10.2-2.1-16.9-11.8-14.9-21.8l3.6-18.1z" id="_x3C_Radial_Repeat_x3E__170_"/><path class="st4490" d="M324.4 552.5c-25.2-5.1-49.5 10.7-54.4 35.3-4.9 24.6 11.6 48.6 36.7 53.7l45.6 9.2 8.8-44.5c4.9-24.5-11.5-48.6-36.7-53.7zm6.1 66.3L312 615c-10.2-2.1-16.9-11.8-14.9-21.8s11.9-16.4 22.1-14.3c10.2 2.1 16.9 11.8 14.9 21.8l-3.6 18.1z" id="_x3C_Radial_Repeat_x3E__169_"/></g><g id="_x3C_Grid_Repeat_x3E__85_"><path class="st4490" d="M383.4 637.8c25.2-5.1 49.5 10.7 54.4 35.3 4.9 24.6-11.6 48.6-36.7 53.7l-45.6 9.2-8.8-44.5c-4.9-24.6 11.5-48.6 36.7-53.7zm-6.1 66.3 18.5-3.8c10.2-2.1 16.9-11.8 14.9-21.8-2-10-11.9-16.4-22.1-14.3-10.2 2.1-16.9 11.8-14.9 21.8l3.6 18.1z" id="_x3C_Radial_Repeat_x3E__168_"/><path class="st4490" d="M458.4 629.4c-25.2 5.1-49.5-10.7-54.4-35.3-4.9-24.6 11.6-48.6 36.7-53.7l45.6-9.2 8.8 44.5c4.9 24.6-11.6 48.6-36.7 53.7zm6.1-66.3-18.5 3.8c-10.2 2.1-16.9 11.8-14.9 21.8s11.9 16.4 22.1 14.3c10.2-2.1 16.9-11.8 14.9-21.8l-3.6-18.1z" id="_x3C_Radial_Repeat_x3E__167_"/></g><g id="_x3C_Grid_Repeat_x3E__84_"><path class="st4490" d="M517.3 544.2c25.2 5.1 49.5-10.7 54.4-35.3 4.9-24.6-11.6-48.6-36.7-53.7l-45.6-9.2-8.8 44.5c-4.9 24.5 11.5 48.6 36.7 53.7zm-6.1-66.3 18.5 3.8c10.2 2.1 16.9 11.8 14.9 21.8-2 10-11.9 16.4-22.1 14.3-10.2-2.1-16.9-11.8-14.9-21.8l3.6-18.1z" id="_x3C_Radial_Repeat_x3E__166_"/><path class="st4490" d="M592.3 552.5c-25.2-5.1-49.5 10.7-54.4 35.3-4.9 24.6 11.6 48.6 36.7 53.7l45.6 9.2 8.8-44.5c4.9-24.5-11.5-48.6-36.7-53.7zm6.1 66.3-18.5-3.8c-10.2-2.1-16.9-11.8-14.9-21.8 2-10 11.9-16.4 22.1-14.3 10.2 2.1 16.9 11.8 14.9 21.8l-3.6 18.1z" id="_x3C_Radial_Repeat_x3E__165_"/></g><g id="_x3C_Grid_Repeat_x3E__83_"><path class="st4490" d="M651.2 637.8c25.2-5.1 49.5 10.7 54.4 35.3 4.9 24.6-11.6 48.6-36.7 53.7l-45.6 9.2-8.8-44.5c-4.9-24.6 11.6-48.6 36.7-53.7zm-6.1 66.3 18.5-3.8c10.2-2.1 16.9-11.8 14.9-21.8s-11.9-16.4-22.1-14.3c-10.2 2.1-16.9 11.8-14.9 21.8l3.6 18.1z" id="_x3C_Radial_Repeat_x3E__164_"/><path class="st4490" d="M726.2 629.4c-25.2 5.1-49.5-10.7-54.4-35.3-4.9-24.6 11.6-48.6 36.7-53.7l45.6-9.2 8.8 44.5c4.9 24.6-11.5 48.6-36.7 53.7zm6.1-66.3-18.5 3.8c-10.2 2.1-16.9 11.8-14.9 21.8s11.9 16.4 22.1 14.3c10.2-2.1 16.9-11.8 14.9-21.8l-3.6-18.1z" id="_x3C_Radial_Repeat_x3E__163_"/></g><g id="_x3C_Grid_Repeat_x3E__82_"><path class="st4490" d="M785.1 544.2c25.2 5.1 49.5-10.7 54.4-35.3 4.9-24.6-11.6-48.6-36.7-53.7l-45.6-9.2-8.8 44.5c-4.9 24.5 11.6 48.6 36.7 53.7zm-6-66.3 18.5 3.8c10.2 2.1 16.9 11.8 14.9 21.8-2 10-11.9 16.4-22.1 14.3-10.2-2.1-16.9-11.8-14.9-21.8l3.6-18.1z" id="_x3C_Radial_Repeat_x3E__162_"/><path class="st4490" d="M860.2 552.5c-25.2-5.1-49.5 10.7-54.4 35.3-4.9 24.6 11.6 48.6 36.7 53.7l45.6 9.2 8.8-44.5c4.9-24.5-11.6-48.6-36.7-53.7zm6 66.3-18.5-3.8c-10.2-2.1-16.9-11.8-14.9-21.8s11.9-16.4 22.1-14.3c10.2 2.1 16.9 11.8 14.9 21.8l-3.6 18.1z" id="_x3C_Radial_Repeat_x3E__161_"/></g><g id="_x3C_Grid_Repeat_x3E__81_"><path class="st4490" d="M919.1 637.8c25.2-5.1 49.5 10.7 54.4 35.3 4.9 24.6-11.6 48.6-36.7 53.7l-45.6 9.2-8.8-44.5c-4.9-24.6 11.5-48.6 36.7-53.7zm-6.1 66.3 18.5-3.8c10.2-2.1 16.9-11.8 14.9-21.8-2-10-11.9-16.4-22.1-14.3-10.2 2.1-16.9 11.8-14.9 21.8l3.6 18.1z" id="_x3C_Radial_Repeat_x3E__160_"/><path class="st4490" d="M994.1 629.4c-25.2 5.1-49.5-10.7-54.4-35.3-4.9-24.6 11.6-48.6 36.7-53.7l45.6-9.2 8.8 44.5c4.9 24.6-11.6 48.6-36.7 53.7zm6.1-66.3-18.5 3.8c-10.2 2.1-16.9 11.8-14.9 21.8s11.9 16.4 22.1 14.3c10.2-2.1 16.9-11.8 14.9-21.8l-3.6-18.1z" id="_x3C_Radial_Repeat_x3E__159_"/></g><g id="_x3C_Grid_Repeat_x3E__80_"><path class="st4490" d="M1053 544.2c25.2 5.1 49.5-10.7 54.4-35.3 4.9-24.6-11.6-48.6-36.7-53.7l-45.6-9.2-8.8 44.5c-4.9 24.5 11.5 48.6 36.7 53.7zm-6.1-66.3 18.5 3.8c10.2 2.1 16.9 11.8 14.9 21.8-2 10-11.9 16.4-22.1 14.3-10.2-2.1-16.9-11.8-14.9-21.8l3.6-18.1z" id="_x3C_Radial_Repeat_x3E__158_"/><path class="st4490" d="M1128 552.5c-25.2-5.1-49.5 10.7-54.4 35.3-4.9 24.6 11.6 48.6 36.7 53.7l45.6 9.2 8.8-44.5c4.9-24.5-11.5-48.6-36.7-53.7zm6.1 66.3-18.5-3.8c-10.2-2.1-16.9-11.8-14.9-21.8 2-10 11.9-16.4 22.1-14.3 10.2 2.1 16.9 11.8 14.9 21.8l-3.6 18.1z" id="_x3C_Radial_Repeat_x3E__157_"/></g><g id="_x3C_Grid_Repeat_x3E__79_"><path class="st4490" d="M1186.9 637.8c25.2-5.1 49.5 10.7 54.4 35.3 4.9 24.6-11.6 48.6-36.7 53.7L1159 736l-8.8-44.5c-4.9-24.6 11.6-48.6 36.7-53.7zm-6.1 66.3 18.5-3.8c10.2-2.1 16.9-11.8 14.9-21.8-2-10-11.9-16.4-22.1-14.3-10.2 2.1-16.9 11.8-14.9 21.8l3.6 18.1z" id="_x3C_Radial_Repeat_x3E__156_"/><path class="st4490" d="M1261.9 629.4c-25.2 5.1-49.5-10.7-54.4-35.3-4.9-24.6 11.6-48.6 36.7-53.7l45.6-9.2 8.8 44.5c4.9 24.6-11.5 48.6-36.7 53.7zm6.1-66.3-18.5 3.8c-10.2 2.1-16.9 11.8-14.9 21.8 2 10 11.9 16.4 22.1 14.3 10.2-2.1 16.9-11.8 14.9-21.8l-3.6-18.1z" id="_x3C_Radial_Repeat_x3E__155_"/></g><g id="_x3C_Grid_Repeat_x3E__78_"><path class="st4490" d="M1320.9 544.2c25.2 5.1 49.5-10.7 54.4-35.3 4.9-24.6-11.6-48.6-36.7-53.7L1293 446l-8.8 44.5c-4.9 24.5 11.5 48.6 36.7 53.7zm-6.1-66.3 18.5 3.8c10.2 2.1 16.9 11.8 14.9 21.8-2 10-11.9 16.4-22.1 14.3-10.2-2.1-16.9-11.8-14.9-21.8l3.6-18.1z" id="_x3C_Radial_Repeat_x3E__154_"/><path class="st4490" d="M1395.9 552.5c-25.2-5.1-49.5 10.7-54.4 35.3-4.9 24.6 11.6 48.6 36.7 53.7l45.6 9.2 8.8-44.5c4.9-24.5-11.6-48.6-36.7-53.7zm6.1 66.3-18.5-3.8c-10.2-2.1-16.9-11.8-14.9-21.8 2-10 11.9-16.4 22.1-14.3 10.2 2.1 16.9 11.8 14.9 21.8l-3.6 18.1z" id="_x3C_Radial_Repeat_x3E__153_"/></g><g id="_x3C_Grid_Repeat_x3E__77_"><path class="st4490" d="M1454.8 637.8c25.2-5.1 49.5 10.7 54.4 35.3 4.9 24.6-11.6 48.6-36.7 53.7l-45.6 9.2-8.8-44.5c-4.9-24.6 11.5-48.6 36.7-53.7zm-6.1 66.3 18.5-3.8c10.2-2.1 16.9-11.8 14.9-21.8-2-10-11.9-16.4-22.1-14.3-10.2 2.1-16.9 11.8-14.9 21.8l3.6 18.1z" id="_x3C_Radial_Repeat_x3E__152_"/><path class="st4490" d="M1529.8 629.4c-25.2 5.1-49.5-10.7-54.4-35.3-4.9-24.6 11.6-48.6 36.7-53.7l45.6-9.2 8.8 44.5c4.9 24.6-11.5 48.6-36.7 53.7zm6.1-66.3-18.5 3.8c-10.2 2.1-16.9 11.8-14.9 21.8s11.9 16.4 22.1 14.3c10.2-2.1 16.9-11.8 14.9-21.8l-3.6-18.1z" id="_x3C_Radial_Repeat_x3E__151_"/></g><g id="_x3C_Grid_Repeat_x3E__76_"><path class="st4490" d="M1588.7 544.2c25.2 5.1 49.5-10.7 54.4-35.3 4.9-24.6-11.6-48.6-36.7-53.7l-45.6-9.2-8.8 44.5c-4.9 24.5 11.6 48.6 36.7 53.7zm-6.1-66.3 18.5 3.8c10.2 2.1 16.9 11.8 14.9 21.8-2 10-11.9 16.4-22.1 14.3-10.2-2.1-16.9-11.8-14.9-21.8l3.6-18.1z" id="_x3C_Radial_Repeat_x3E__150_"/><path class="st4490" d="M1663.7 552.5c-25.2-5.1-49.5 10.7-54.4 35.3-4.9 24.6 11.6 48.6 36.7 53.7l45.6 9.2 8.8-44.5c4.9-24.5-11.5-48.6-36.7-53.7zm6.1 66.3-18.5-3.8c-10.2-2.1-16.9-11.8-14.9-21.8 2-10 11.9-16.4 22.1-14.3 10.2 2.1 16.9 11.8 14.9 21.8l-3.6 18.1z" id="_x3C_Radial_Repeat_x3E__149_"/></g><g id="_x3C_Grid_Repeat_x3E__75_"><path class="st4490" d="M1722.7 637.8c25.2-5.1 49.5 10.7 54.4 35.3 4.9 24.6-11.6 48.6-36.7 53.7l-45.6 9.2-8.8-44.5c-4.9-24.6 11.5-48.6 36.7-53.7zm-6.1 66.3 18.5-3.8c10.2-2.1 16.9-11.8 14.9-21.8-2-10-11.9-16.4-22.1-14.3-10.2 2.1-16.9 11.8-14.9 21.8l3.6 18.1z" id="_x3C_Radial_Repeat_x3E__148_"/><path class="st4490" d="M1797.7 629.4c-25.2 5.1-49.5-10.7-54.4-35.3-4.9-24.6 11.6-48.6 36.7-53.7l45.6-9.2 8.8 44.5c4.9 24.6-11.6 48.6-36.7 53.7zm6.1-66.3-18.5 3.8c-10.2 2.1-16.9 11.8-14.9 21.8 2 10 11.9 16.4 22.1 14.3 10.2-2.1 16.9-11.8 14.9-21.8l-3.6-18.1z" id="_x3C_Radial_Repeat_x3E__147_"/></g><g id="_x3C_Grid_Repeat_x3E__74_"><path class="st4490" d="M1856.6 544.2c25.2 5.1 49.5-10.7 54.4-35.3 4.9-24.6-11.6-48.6-36.7-53.7l-45.6-9.2-8.8 44.5c-4.9 24.5 11.5 48.6 36.7 53.7zm-6.1-66.3 18.5 3.8c10.2 2.1 16.9 11.8 14.9 21.8-2 10-11.9 16.4-22.1 14.3-10.2-2.1-16.9-11.8-14.9-21.8l3.6-18.1z" id="_x3C_Radial_Repeat_x3E__146_"/><path class="st4490" d="M1931.6 552.5c-25.2-5.1-49.5 10.7-54.4 35.3-4.9 24.6 11.6 48.6 36.7 53.7l45.6 9.2 8.8-44.5c4.9-24.5-11.5-48.6-36.7-53.7zm6.1 66.3-18.5-3.8c-10.2-2.1-16.9-11.8-14.9-21.8 2-10 11.9-16.4 22.1-14.3 10.2 2.1 16.9 11.8 14.9 21.8l-3.6 18.1z" id="_x3C_Radial_Repeat_x3E__145_"/></g><g id="_x3C_Grid_Repeat_x3E__71_"><path class="st4490" d="M-18.4 714.7C6.7 719.8 31.1 704 36 679.4c4.9-24.6-11.6-48.6-36.7-53.7l-45.6-9.2-8.8 44.5c-4.9 24.6 11.5 48.6 36.7 53.7zm-6.1-66.3 18.5 3.8c10.2 2 16.9 11.8 14.9 21.8S-3 690.4-13.2 688.3c-10.2-2.1-16.9-11.8-14.9-21.8l3.6-18.1z" id="_x3C_Radial_Repeat_x3E__140_"/><path class="st4490" d="M56.6 723c-25.2-5.1-49.5 10.7-54.4 35.3-4.9 24.6 11.6 48.6 36.7 53.7l45.6 9.2 8.8-44.5c4.9-24.5-11.6-48.6-36.7-53.7zm6.1 66.4-18.5-3.8c-10.2-2.1-16.9-11.8-14.9-21.8s11.9-16.4 22.1-14.3c10.2 2.1 16.9 11.8 14.9 21.8l-3.6 18.1z" id="_x3C_Radial_Repeat_x3E__139_"/></g><g id="_x3C_Grid_Repeat_x3E__70_"><path class="st4490" d="M115.5 808.3c25.2-5.1 49.5 10.7 54.4 35.3 4.9 24.6-11.6 48.6-36.7 53.7l-45.6 9.2-8.8-44.5c-4.9-24.6 11.5-48.6 36.7-53.7zm-6.1 66.3 18.5-3.8c10.2-2.1 16.9-11.8 14.9-21.8-2-10-11.9-16.4-22.1-14.3-10.2 2.1-16.9 11.8-14.9 21.8l3.6 18.1z" id="_x3C_Radial_Repeat_x3E__138_"/><path class="st4490" d="M190.5 800c-25.2 5.1-49.5-10.7-54.4-35.3-4.9-24.6 11.6-48.6 36.7-53.7l45.6-9.2 8.8 44.5c4.9 24.5-11.5 48.6-36.7 53.7zm6.1-66.4-18.5 3.8c-10.2 2.1-16.9 11.8-14.9 21.8 2 10 11.9 16.4 22.1 14.3 10.2-2.1 16.9-11.8 14.9-21.8l-3.6-18.1z" id="_x3C_Radial_Repeat_x3E__137_"/></g><g id="_x3C_Grid_Repeat_x3E__69_"><path class="st4490" d="M249.4 714.7c25.2 5.1 49.5-10.7 54.4-35.3 4.9-24.6-11.6-48.6-36.7-53.7l-45.6-9.2-8.8 44.5c-4.9 24.6 11.6 48.6 36.7 53.7zm-6.1-66.3 18.5 3.8c10.2 2.1 16.9 11.8 14.9 21.8-2 10-11.9 16.4-22.1 14.3-10.2-2.1-16.9-11.8-14.9-21.8l3.6-18.1z" id="_x3C_Radial_Repeat_x3E__136_"/><path class="st4490" d="M324.4 723c-25.2-5.1-49.5 10.7-54.4 35.3-4.9 24.6 11.6 48.6 36.7 53.7l45.6 9.2 8.8-44.5c4.9-24.5-11.5-48.6-36.7-53.7zm6.1 66.4-18.5-3.8c-10.2-2.1-16.9-11.8-14.9-21.8s11.9-16.4 22.1-14.3c10.2 2.1 16.9 11.8 14.9 21.8l-3.6 18.1z" id="_x3C_Radial_Repeat_x3E__135_"/></g><g id="_x3C_Grid_Repeat_x3E__68_"><path class="st4490" d="M383.4 808.3c25.2-5.1 49.5 10.7 54.4 35.3 4.9 24.6-11.6 48.6-36.7 53.7l-45.6 9.2-8.8-44.5c-4.9-24.6 11.5-48.6 36.7-53.7zm-6.1 66.3 18.5-3.8c10.2-2.1 16.9-11.8 14.9-21.8-2-10-11.9-16.4-22.1-14.3-10.2 2.1-16.9 11.8-14.9 21.8l3.6 18.1z" id="_x3C_Radial_Repeat_x3E__134_"/><path class="st4490" d="M458.4 800c-25.2 5.1-49.5-10.7-54.4-35.3-4.9-24.6 11.6-48.6 36.7-53.7l45.6-9.2 8.8 44.5c4.9 24.5-11.6 48.6-36.7 53.7zm6.1-66.4-18.5 3.8c-10.2 2.1-16.9 11.8-14.9 21.8s11.9 16.4 22.1 14.3c10.2-2.1 16.9-11.8 14.9-21.8l-3.6-18.1z" id="_x3C_Radial_Repeat_x3E__133_"/></g><g id="_x3C_Grid_Repeat_x3E__67_"><path class="st4490" d="M517.3 714.7c25.2 5.1 49.5-10.7 54.4-35.3 4.9-24.6-11.6-48.6-36.7-53.7l-45.6-9.2-8.8 44.5c-4.9 24.6 11.5 48.6 36.7 53.7zm-6.1-66.3 18.5 3.8c10.2 2.1 16.9 11.8 14.9 21.8s-11.9 16.4-22.1 14.3c-10.2-2.1-16.9-11.8-14.9-21.8l3.6-18.1z" id="_x3C_Radial_Repeat_x3E__132_"/><path class="st4490" d="M592.3 723c-25.2-5.1-49.5 10.7-54.4 35.3-4.9 24.6 11.6 48.6 36.7 53.7l45.6 9.2 8.8-44.5c4.9-24.5-11.5-48.6-36.7-53.7zm6.1 66.4-18.5-3.8c-10.2-2.1-16.9-11.8-14.9-21.8 2-10 11.9-16.4 22.1-14.3 10.2 2.1 16.9 11.8 14.9 21.8l-3.6 18.1z" id="_x3C_Radial_Repeat_x3E__131_"/></g><g id="_x3C_Grid_Repeat_x3E__66_"><path class="st4490" d="M651.2 808.3c25.2-5.1 49.5 10.7 54.4 35.3 4.9 24.6-11.6 48.6-36.7 53.7l-45.6 9.2-8.8-44.5c-4.9-24.6 11.6-48.6 36.7-53.7zm-6.1 66.3 18.5-3.8c10.2-2.1 16.9-11.8 14.9-21.8s-11.9-16.4-22.1-14.3c-10.2 2.1-16.9 11.8-14.9 21.8l3.6 18.1z" id="_x3C_Radial_Repeat_x3E__130_"/><path class="st4490" d="M726.2 800c-25.2 5.1-49.5-10.7-54.4-35.3-4.9-24.6 11.6-48.6 36.7-53.7l45.6-9.2 8.8 44.5c4.9 24.5-11.5 48.6-36.7 53.7zm6.1-66.4-18.5 3.8c-10.2 2.1-16.9 11.8-14.9 21.8s11.9 16.4 22.1 14.3c10.2-2.1 16.9-11.8 14.9-21.8l-3.6-18.1z" id="_x3C_Radial_Repeat_x3E__129_"/></g><g id="_x3C_Grid_Repeat_x3E__65_"><path class="st4490" d="M785.1 714.7c25.2 5.1 49.5-10.7 54.4-35.3 4.9-24.6-11.6-48.6-36.7-53.7l-45.6-9.2-8.8 44.5c-4.9 24.6 11.6 48.6 36.7 53.7zm-6-66.3 18.5 3.8c10.2 2.1 16.9 11.8 14.9 21.8s-11.9 16.4-22.1 14.3c-10.2-2.1-16.9-11.8-14.9-21.8l3.6-18.1z" id="_x3C_Radial_Repeat_x3E__128_"/><path class="st4490" d="M860.2 723c-25.2-5.1-49.5 10.7-54.4 35.3-4.9 24.6 11.6 48.6 36.7 53.7l45.6 9.2 8.8-44.5c4.9-24.5-11.6-48.6-36.7-53.7zm6 66.4-18.5-3.8c-10.2-2.1-16.9-11.8-14.9-21.8s11.9-16.4 22.1-14.3c10.2 2.1 16.9 11.8 14.9 21.8l-3.6 18.1z" id="_x3C_Radial_Repeat_x3E__127_"/></g><g id="_x3C_Grid_Repeat_x3E__64_"><path class="st4490" d="M919.1 808.3c25.2-5.1 49.5 10.7 54.4 35.3 4.9 24.6-11.6 48.6-36.7 53.7l-45.6 9.2-8.8-44.5c-4.9-24.6 11.5-48.6 36.7-53.7zm-6.1 66.3 18.5-3.8c10.2-2.1 16.9-11.8 14.9-21.8-2-10-11.9-16.4-22.1-14.3-10.2 2.1-16.9 11.8-14.9 21.8l3.6 18.1z" id="_x3C_Radial_Repeat_x3E__126_"/><path class="st4490" d="M994.1 800c-25.2 5.1-49.5-10.7-54.4-35.3-4.9-24.6 11.6-48.6 36.7-53.7l45.6-9.2 8.8 44.5c4.9 24.5-11.6 48.6-36.7 53.7zm6.1-66.4-18.5 3.8c-10.2 2.1-16.9 11.8-14.9 21.8s11.9 16.4 22.1 14.3c10.2-2.1 16.9-11.8 14.9-21.8l-3.6-18.1z" id="_x3C_Radial_Repeat_x3E__125_"/></g><g id="_x3C_Grid_Repeat_x3E__63_"><path class="st4490" d="M1053 714.7c25.2 5.1 49.5-10.7 54.4-35.3 4.9-24.6-11.6-48.6-36.7-53.7l-45.6-9.2-8.8 44.5c-4.9 24.6 11.5 48.6 36.7 53.7zm-6.1-66.3 18.5 3.8c10.2 2.1 16.9 11.8 14.9 21.8-2 10-11.9 16.4-22.1 14.3-10.2-2.1-16.9-11.8-14.9-21.8l3.6-18.1z" id="_x3C_Radial_Repeat_x3E__124_"/><path class="st4490" d="M1128 723c-25.2-5.1-49.5 10.7-54.4 35.3-4.9 24.6 11.6 48.6 36.7 53.7l45.6 9.2 8.8-44.5c4.9-24.5-11.5-48.6-36.7-53.7zm6.1 66.4-18.5-3.8c-10.2-2.1-16.9-11.8-14.9-21.8 2-10 11.9-16.4 22.1-14.3 10.2 2.1 16.9 11.8 14.9 21.8l-3.6 18.1z" id="_x3C_Radial_Repeat_x3E__123_"/></g><g id="_x3C_Grid_Repeat_x3E__62_"><path class="st4490" d="M1186.9 808.3c25.2-5.1 49.5 10.7 54.4 35.3 4.9 24.6-11.6 48.6-36.7 53.7l-45.6 9.2-8.8-44.5c-4.9-24.6 11.6-48.6 36.7-53.7zm-6.1 66.3 18.5-3.8c10.2-2.1 16.9-11.8 14.9-21.8-2-10-11.9-16.4-22.1-14.3-10.2 2.1-16.9 11.8-14.9 21.8l3.6 18.1z" id="_x3C_Radial_Repeat_x3E__122_"/><path class="st4490" d="M1261.9 800c-25.2 5.1-49.5-10.7-54.4-35.3-4.9-24.6 11.6-48.6 36.7-53.7l45.6-9.2 8.8 44.5c4.9 24.5-11.5 48.6-36.7 53.7zm6.1-66.4-18.5 3.8c-10.2 2.1-16.9 11.8-14.9 21.8 2 10 11.9 16.4 22.1 14.3 10.2-2.1 16.9-11.8 14.9-21.8l-3.6-18.1z" id="_x3C_Radial_Repeat_x3E__121_"/></g><g id="_x3C_Grid_Repeat_x3E__61_"><path class="st4490" d="M1320.9 714.7c25.2 5.1 49.5-10.7 54.4-35.3 4.9-24.6-11.6-48.6-36.7-53.7l-45.6-9.2-8.8 44.5c-4.9 24.6 11.5 48.6 36.7 53.7zm-6.1-66.3 18.5 3.8c10.2 2.1 16.9 11.8 14.9 21.8-2 10-11.9 16.4-22.1 14.3-10.2-2.1-16.9-11.8-14.9-21.8l3.6-18.1z" id="_x3C_Radial_Repeat_x3E__120_"/><path class="st4490" d="M1395.9 723c-25.2-5.1-49.5 10.7-54.4 35.3-4.9 24.6 11.6 48.6 36.7 53.7l45.6 9.2 8.8-44.5c4.9-24.5-11.6-48.6-36.7-53.7zm6.1 66.4-18.5-3.8c-10.2-2.1-16.9-11.8-14.9-21.8 2-10 11.9-16.4 22.1-14.3 10.2 2.1 16.9 11.8 14.9 21.8l-3.6 18.1z" id="_x3C_Radial_Repeat_x3E__119_"/></g><g id="_x3C_Grid_Repeat_x3E__60_"><path class="st4490" d="M1454.8 808.3c25.2-5.1 49.5 10.7 54.4 35.3 4.9 24.6-11.6 48.6-36.7 53.7l-45.6 9.2-8.8-44.5c-4.9-24.6 11.5-48.6 36.7-53.7zm-6.1 66.3 18.5-3.8c10.2-2.1 16.9-11.8 14.9-21.8-2-10-11.9-16.4-22.1-14.3-10.2 2.1-16.9 11.8-14.9 21.8l3.6 18.1z" id="_x3C_Radial_Repeat_x3E__118_"/><path class="st4490" d="M1529.8 800c-25.2 5.1-49.5-10.7-54.4-35.3-4.9-24.6 11.6-48.6 36.7-53.7l45.6-9.2 8.8 44.5c4.9 24.5-11.5 48.6-36.7 53.7zm6.1-66.4-18.5 3.8c-10.2 2.1-16.9 11.8-14.9 21.8s11.9 16.4 22.1 14.3c10.2-2.1 16.9-11.8 14.9-21.8l-3.6-18.1z" id="_x3C_Radial_Repeat_x3E__117_"/></g><g id="_x3C_Grid_Repeat_x3E__59_"><path class="st4490" d="M1588.7 714.7c25.2 5.1 49.5-10.7 54.4-35.3 4.9-24.6-11.6-48.6-36.7-53.7l-45.6-9.2-8.8 44.5c-4.9 24.6 11.6 48.6 36.7 53.7zm-6.1-66.3 18.5 3.8c10.2 2.1 16.9 11.8 14.9 21.8-2 10-11.9 16.4-22.1 14.3-10.2-2.1-16.9-11.8-14.9-21.8l3.6-18.1z" id="_x3C_Radial_Repeat_x3E__116_"/><path class="st4490" d="M1663.7 723c-25.2-5.1-49.5 10.7-54.4 35.3-4.9 24.6 11.6 48.6 36.7 53.7l45.6 9.2 8.8-44.5c4.9-24.5-11.5-48.6-36.7-53.7zm6.1 66.4-18.5-3.8c-10.2-2.1-16.9-11.8-14.9-21.8 2-10 11.9-16.4 22.1-14.3 10.2 2.1 16.9 11.8 14.9 21.8l-3.6 18.1z" id="_x3C_Radial_Repeat_x3E__115_"/></g><g id="_x3C_Grid_Repeat_x3E__58_"><path class="st4490" d="M1722.7 808.3c25.2-5.1 49.5 10.7 54.4 35.3 4.9 24.6-11.6 48.6-36.7 53.7l-45.6 9.2-8.8-44.5c-4.9-24.6 11.5-48.6 36.7-53.7zm-6.1 66.3 18.5-3.8c10.2-2.1 16.9-11.8 14.9-21.8-2-10-11.9-16.4-22.1-14.3-10.2 2.1-16.9 11.8-14.9 21.8l3.6 18.1z" id="_x3C_Radial_Repeat_x3E__114_"/><path class="st4490" d="M1797.7 800c-25.2 5.1-49.5-10.7-54.4-35.3-4.9-24.6 11.6-48.6 36.7-53.7l45.6-9.2 8.8 44.5c4.9 24.5-11.6 48.6-36.7 53.7zm6.1-66.4-18.5 3.8c-10.2 2.1-16.9 11.8-14.9 21.8 2 10 11.9 16.4 22.1 14.3 10.2-2.1 16.9-11.8 14.9-21.8l-3.6-18.1z" id="_x3C_Radial_Repeat_x3E__113_"/></g><g id="_x3C_Grid_Repeat_x3E__57_"><path class="st4490" d="M1856.6 714.7c25.2 5.1 49.5-10.7 54.4-35.3 4.9-24.6-11.6-48.6-36.7-53.7l-45.6-9.2-8.8 44.5c-4.9 24.6 11.5 48.6 36.7 53.7zm-6.1-66.3 18.5 3.8c10.2 2.1 16.9 11.8 14.9 21.8-2 10-11.9 16.4-22.1 14.3-10.2-2.1-16.9-11.8-14.9-21.8l3.6-18.1z" id="_x3C_Radial_Repeat_x3E__112_"/><path class="st4490" d="M1931.6 723c-25.2-5.1-49.5 10.7-54.4 35.3-4.9 24.6 11.6 48.6 36.7 53.7l45.6 9.2 8.8-44.5c4.9-24.5-11.5-48.6-36.7-53.7zm6.1 66.4-18.5-3.8c-10.2-2.1-16.9-11.8-14.9-21.8 2-10 11.9-16.4 22.1-14.3 10.2 2.1 16.9 11.8 14.9 21.8l-3.6 18.1z" id="_x3C_Radial_Repeat_x3E__111_"/></g><g id="_x3C_Grid_Repeat_x3E__54_"><path class="st4490" d="M-18.4 885.2C6.7 890.3 31.1 874.5 36 850c4.9-24.6-11.6-48.6-36.7-53.7l-45.6-9.2-8.8 44.5c-4.9 24.5 11.5 48.5 36.7 53.6zm-6.1-66.3 18.5 3.8c10.2 2.1 16.9 11.8 14.9 21.8S-3 860.9-13.2 858.8c-10.2-2.1-16.9-11.8-14.9-21.8l3.6-18.1z" id="_x3C_Radial_Repeat_x3E__106_"/><path class="st4490" d="M56.6 893.6c-25.2-5.1-49.5 10.7-54.4 35.3-4.9 24.6 11.6 48.6 36.7 53.7l45.6 9.2 8.8-44.5c4.9-24.6-11.6-48.6-36.7-53.7zm6.1 66.3-18.5-3.8C34 954 27.3 944.3 29.3 934.3s11.9-16.4 22.1-14.3c10.2 2.1 16.9 11.8 14.9 21.8l-3.6 18.1z" id="_x3C_Radial_Repeat_x3E__105_"/></g><g id="_x3C_Grid_Repeat_x3E__53_"><path class="st4490" d="M115.5 978.8c25.2-5.1 49.5 10.7 54.4 35.3 4.9 24.6-11.6 48.6-36.7 53.7l-45.6 9.2-8.8-44.5c-4.9-24.5 11.5-48.6 36.7-53.7zm-6.1 66.4 18.5-3.8c10.2-2.1 16.9-11.8 14.9-21.8-2-10-11.9-16.4-22.1-14.3-10.2 2.1-16.9 11.8-14.9 21.8l3.6 18.1z" id="_x3C_Radial_Repeat_x3E__104_"/><path class="st4490" d="M190.5 970.5c-25.2 5.1-49.5-10.7-54.4-35.3-4.9-24.6 11.6-48.6 36.7-53.7l45.6-9.2 8.8 44.5c4.9 24.6-11.5 48.6-36.7 53.7zm6.1-66.3-18.5 3.8c-10.2 2.1-16.9 11.8-14.9 21.8 2 10 11.9 16.4 22.1 14.3 10.2-2.1 16.9-11.8 14.9-21.8l-3.6-18.1z" id="_x3C_Radial_Repeat_x3E__103_"/></g><g id="_x3C_Grid_Repeat_x3E__52_"><path class="st4490" d="M249.4 885.2c25.2 5.1 49.5-10.7 54.4-35.3 4.9-24.6-11.6-48.6-36.7-53.7l-45.6-9.2-8.8 44.5c-4.9 24.6 11.6 48.6 36.7 53.7zm-6.1-66.3 18.5 3.8c10.2 2.1 16.9 11.8 14.9 21.8-2 10-11.9 16.4-22.1 14.3-10.2-2.1-16.9-11.8-14.9-21.8l3.6-18.1z" id="_x3C_Radial_Repeat_x3E__102_"/><path class="st4490" d="M324.4 893.6c-25.2-5.1-49.5 10.7-54.4 35.3-4.9 24.6 11.6 48.6 36.7 53.7l45.6 9.2 8.8-44.5c4.9-24.6-11.5-48.6-36.7-53.7zm6.1 66.3-18.5-3.8c-10.2-2.1-16.9-11.8-14.9-21.8s11.9-16.4 22.1-14.3c10.2 2.1 16.9 11.8 14.9 21.8l-3.6 18.1z" id="_x3C_Radial_Repeat_x3E__101_"/></g><g id="_x3C_Grid_Repeat_x3E__51_"><path class="st4490" d="M383.4 978.8c25.2-5.1 49.5 10.7 54.4 35.3 4.9 24.6-11.6 48.6-36.7 53.7l-45.6 9.2-8.8-44.5c-4.9-24.5 11.5-48.6 36.7-53.7zm-6.1 66.4 18.5-3.8c10.2-2.1 16.9-11.8 14.9-21.8-2-10-11.9-16.4-22.1-14.3-10.2 2.1-16.9 11.8-14.9 21.8l3.6 18.1z" id="_x3C_Radial_Repeat_x3E__100_"/><path class="st4490" d="M458.4 970.5c-25.2 5.1-49.5-10.7-54.4-35.3-4.9-24.6 11.6-48.6 36.7-53.7l45.6-9.2 8.8 44.5c4.9 24.6-11.6 48.6-36.7 53.7zm6.1-66.3L446 908c-10.2 2.1-16.9 11.8-14.9 21.8s11.9 16.4 22.1 14.3c10.2-2.1 16.9-11.8 14.9-21.8l-3.6-18.1z" id="_x3C_Radial_Repeat_x3E__99_"/></g><g id="_x3C_Grid_Repeat_x3E__50_"><path class="st4490" d="M517.3 885.2c25.2 5.1 49.5-10.7 54.4-35.3 4.9-24.6-11.6-48.6-36.7-53.7l-45.6-9.2-8.8 44.5c-4.9 24.6 11.5 48.6 36.7 53.7zm-6.1-66.3 18.5 3.8c10.2 2.1 16.9 11.8 14.9 21.8s-11.9 16.4-22.1 14.3c-10.2-2.1-16.9-11.8-14.9-21.8l3.6-18.1z" id="_x3C_Radial_Repeat_x3E__98_"/><path class="st4490" d="M592.3 893.6c-25.2-5.1-49.5 10.7-54.4 35.3-4.9 24.6 11.6 48.6 36.7 53.7l45.6 9.2 8.8-44.5c4.9-24.6-11.5-48.6-36.7-53.7zm6.1 66.3-18.5-3.8c-10.2-2.1-16.9-11.8-14.9-21.8 2-10 11.9-16.4 22.1-14.3 10.2 2.1 16.9 11.8 14.9 21.8l-3.6 18.1z" id="_x3C_Radial_Repeat_x3E__97_"/></g><g id="_x3C_Grid_Repeat_x3E__49_"><path class="st4490" d="M651.2 978.8c25.2-5.1 49.5 10.7 54.4 35.3 4.9 24.6-11.6 48.6-36.7 53.7l-45.6 9.2-8.8-44.5c-4.9-24.5 11.6-48.6 36.7-53.7zm-6.1 66.4 18.5-3.8c10.2-2.1 16.9-11.8 14.9-21.8-2-10-11.9-16.4-22.1-14.3-10.2 2.1-16.9 11.8-14.9 21.8l3.6 18.1z" id="_x3C_Radial_Repeat_x3E__96_"/><path class="st4490" d="M726.2 970.5c-25.2 5.1-49.5-10.7-54.4-35.3-4.9-24.6 11.6-48.6 36.7-53.7l45.6-9.2 8.8 44.5c4.9 24.6-11.5 48.6-36.7 53.7zm6.1-66.3-18.5 3.8c-10.2 2.1-16.9 11.8-14.9 21.8s11.9 16.4 22.1 14.3c10.2-2.1 16.9-11.8 14.9-21.8l-3.6-18.1z" id="_x3C_Radial_Repeat_x3E__95_"/></g><g id="_x3C_Grid_Repeat_x3E__48_"><path class="st4490" d="M785.1 885.2c25.2 5.1 49.5-10.7 54.4-35.3 4.9-24.6-11.6-48.6-36.7-53.7l-45.6-9.2-8.8 44.5c-4.9 24.6 11.6 48.6 36.7 53.7zm-6-66.3 18.5 3.8c10.2 2.1 16.9 11.8 14.9 21.8s-11.9 16.4-22.1 14.3c-10.2-2.1-16.9-11.8-14.9-21.8l3.6-18.1z" id="_x3C_Radial_Repeat_x3E__94_"/><path class="st4490" d="M860.2 893.6c-25.2-5.1-49.5 10.7-54.4 35.3-4.9 24.6 11.6 48.6 36.7 53.7l45.6 9.2 8.8-44.5c4.9-24.6-11.6-48.6-36.7-53.7zm6 66.3-18.5-3.8c-10.2-2.1-16.9-11.8-14.9-21.8s11.9-16.4 22.1-14.3c10.2 2.1 16.9 11.8 14.9 21.8l-3.6 18.1z" id="_x3C_Radial_Repeat_x3E__93_"/></g><g id="_x3C_Grid_Repeat_x3E__47_"><path class="st4490" d="M919.1 978.8c25.2-5.1 49.5 10.7 54.4 35.3 4.9 24.6-11.6 48.6-36.7 53.7l-45.6 9.2-8.8-44.5c-4.9-24.5 11.5-48.6 36.7-53.7zm-6.1 66.4 18.5-3.8c10.2-2.1 16.9-11.8 14.9-21.8-2-10-11.9-16.4-22.1-14.3-10.2 2.1-16.9 11.8-14.9 21.8l3.6 18.1z" id="_x3C_Radial_Repeat_x3E__92_"/><path class="st4490" d="M994.1 970.5c-25.2 5.1-49.5-10.7-54.4-35.3-4.9-24.6 11.6-48.6 36.7-53.7l45.6-9.2 8.8 44.5c4.9 24.6-11.6 48.6-36.7 53.7zm6.1-66.3-18.5 3.8c-10.2 2.1-16.9 11.8-14.9 21.8s11.9 16.4 22.1 14.3c10.2-2.1 16.9-11.8 14.9-21.8l-3.6-18.1z" id="_x3C_Radial_Repeat_x3E__91_"/></g><g id="_x3C_Grid_Repeat_x3E__46_"><path class="st4490" d="M1053 885.2c25.2 5.1 49.5-10.7 54.4-35.3 4.9-24.6-11.6-48.6-36.7-53.7l-45.6-9.2-8.8 44.5c-4.9 24.6 11.5 48.6 36.7 53.7zm-6.1-66.3 18.5 3.8c10.2 2.1 16.9 11.8 14.9 21.8-2 10-11.9 16.4-22.1 14.3-10.2-2.1-16.9-11.8-14.9-21.8l3.6-18.1z" id="_x3C_Radial_Repeat_x3E__90_"/><path class="st4490" d="M1128 893.6c-25.2-5.1-49.5 10.7-54.4 35.3-4.9 24.6 11.6 48.6 36.7 53.7l45.6 9.2 8.8-44.5c4.9-24.6-11.5-48.6-36.7-53.7zm6.1 66.3-18.5-3.8c-10.2-2.1-16.9-11.8-14.9-21.8 2-10 11.9-16.4 22.1-14.3 10.2 2.1 16.9 11.8 14.9 21.8l-3.6 18.1z" id="_x3C_Radial_Repeat_x3E__89_"/></g><g id="_x3C_Grid_Repeat_x3E__45_"><path class="st4490" d="M1186.9 978.8c25.2-5.1 49.5 10.7 54.4 35.3 4.9 24.6-11.6 48.6-36.7 53.7l-45.6 9.2-8.8-44.5c-4.9-24.5 11.6-48.6 36.7-53.7zm-6.1 66.4 18.5-3.8c10.2-2.1 16.9-11.8 14.9-21.8-2-10-11.9-16.4-22.1-14.3-10.2 2.1-16.9 11.8-14.9 21.8l3.6 18.1z" id="_x3C_Radial_Repeat_x3E__88_"/><path class="st4490" d="M1261.9 970.5c-25.2 5.1-49.5-10.7-54.4-35.3-4.9-24.6 11.6-48.6 36.7-53.7l45.6-9.2 8.8 44.5c4.9 24.6-11.5 48.6-36.7 53.7zm6.1-66.3-18.5 3.8c-10.2 2.1-16.9 11.8-14.9 21.8 2 10 11.9 16.4 22.1 14.3 10.2-2.1 16.9-11.8 14.9-21.8l-3.6-18.1z" id="_x3C_Radial_Repeat_x3E__87_"/></g><g id="_x3C_Grid_Repeat_x3E__44_"><path class="st4490" d="M1320.9 885.2c25.2 5.1 49.5-10.7 54.4-35.3 4.9-24.6-11.6-48.6-36.7-53.7L1293 787l-8.8 44.5c-4.9 24.6 11.5 48.6 36.7 53.7zm-6.1-66.3 18.5 3.8c10.2 2.1 16.9 11.8 14.9 21.8-2 10-11.9 16.4-22.1 14.3-10.2-2.1-16.9-11.8-14.9-21.8l3.6-18.1z" id="_x3C_Radial_Repeat_x3E__86_"/><path class="st4490" d="M1395.9 893.6c-25.2-5.1-49.5 10.7-54.4 35.3-4.9 24.6 11.6 48.6 36.7 53.7l45.6 9.2 8.8-44.5c4.9-24.6-11.6-48.6-36.7-53.7zm6.1 66.3-18.5-3.8c-10.2-2.1-16.9-11.8-14.9-21.8 2-10 11.9-16.4 22.1-14.3 10.2 2.1 16.9 11.8 14.9 21.8l-3.6 18.1z" id="_x3C_Radial_Repeat_x3E__85_"/></g><g id="_x3C_Grid_Repeat_x3E__43_"><path class="st4490" d="M1454.8 978.8c25.2-5.1 49.5 10.7 54.4 35.3 4.9 24.6-11.6 48.6-36.7 53.7l-45.6 9.2-8.8-44.5c-4.9-24.5 11.5-48.6 36.7-53.7zm-6.1 66.4 18.5-3.8c10.2-2.1 16.9-11.8 14.9-21.8-2-10-11.9-16.4-22.1-14.3-10.2 2.1-16.9 11.8-14.9 21.8l3.6 18.1z" id="_x3C_Radial_Repeat_x3E__84_"/><path class="st4490" d="M1529.8 970.5c-25.2 5.1-49.5-10.7-54.4-35.3-4.9-24.6 11.6-48.6 36.7-53.7l45.6-9.2 8.8 44.5c4.9 24.6-11.5 48.6-36.7 53.7zm6.1-66.3-18.5 3.8c-10.2 2.1-16.9 11.8-14.9 21.8s11.9 16.4 22.1 14.3c10.2-2.1 16.9-11.8 14.9-21.8l-3.6-18.1z" id="_x3C_Radial_Repeat_x3E__83_"/></g><g id="_x3C_Grid_Repeat_x3E__42_"><path class="st4490" d="M1588.7 885.2c25.2 5.1 49.5-10.7 54.4-35.3 4.9-24.6-11.6-48.6-36.7-53.7l-45.6-9.2-8.8 44.5c-4.9 24.6 11.6 48.6 36.7 53.7zm-6.1-66.3 18.5 3.8c10.2 2.1 16.9 11.8 14.9 21.8-2 10-11.9 16.4-22.1 14.3-10.2-2.1-16.9-11.8-14.9-21.8l3.6-18.1z" id="_x3C_Radial_Repeat_x3E__82_"/><path class="st4490" d="M1663.7 893.6c-25.2-5.1-49.5 10.7-54.4 35.3-4.9 24.6 11.6 48.6 36.7 53.7l45.6 9.2 8.8-44.5c4.9-24.6-11.5-48.6-36.7-53.7zm6.1 66.3-18.5-3.8c-10.2-2.1-16.9-11.8-14.9-21.8 2-10 11.9-16.4 22.1-14.3 10.2 2.1 16.9 11.8 14.9 21.8l-3.6 18.1z" id="_x3C_Radial_Repeat_x3E__81_"/></g><g id="_x3C_Grid_Repeat_x3E__41_"><path class="st4490" d="M1722.7 978.8c25.2-5.1 49.5 10.7 54.4 35.3 4.9 24.6-11.6 48.6-36.7 53.7l-45.6 9.2-8.8-44.5c-4.9-24.5 11.5-48.6 36.7-53.7zm-6.1 66.4 18.5-3.8c10.2-2.1 16.9-11.8 14.9-21.8-2-10-11.9-16.4-22.1-14.3-10.2 2.1-16.9 11.8-14.9 21.8l3.6 18.1z" id="_x3C_Radial_Repeat_x3E__80_"/><path class="st4490" d="M1797.7 970.5c-25.2 5.1-49.5-10.7-54.4-35.3-4.9-24.6 11.6-48.6 36.7-53.7l45.6-9.2 8.8 44.5c4.9 24.6-11.6 48.6-36.7 53.7zm6.1-66.3-18.5 3.8c-10.2 2.1-16.9 11.8-14.9 21.8 2 10 11.9 16.4 22.1 14.3 10.2-2.1 16.9-11.8 14.9-21.8l-3.6-18.1z" id="_x3C_Radial_Repeat_x3E__79_"/></g><g id="_x3C_Grid_Repeat_x3E__40_"><path class="st4490" d="M1856.6 885.2c25.2 5.1 49.5-10.7 54.4-35.3 4.9-24.6-11.6-48.6-36.7-53.7l-45.6-9.2-8.8 44.5c-4.9 24.6 11.5 48.6 36.7 53.7zm-6.1-66.3 18.5 3.8c10.2 2.1 16.9 11.8 14.9 21.8-2 10-11.9 16.4-22.1 14.3-10.2-2.1-16.9-11.8-14.9-21.8l3.6-18.1z" id="_x3C_Radial_Repeat_x3E__78_"/><path class="st4490" d="M1931.6 893.6c-25.2-5.1-49.5 10.7-54.4 35.3-4.9 24.6 11.6 48.6 36.7 53.7l45.6 9.2 8.8-44.5c4.9-24.6-11.5-48.6-36.7-53.7zm6.1 66.3-18.5-3.8c-10.2-2.1-16.9-11.8-14.9-21.8 2-10 11.9-16.4 22.1-14.3 10.2 2.1 16.9 11.8 14.9 21.8l-3.6 18.1z" id="_x3C_Radial_Repeat_x3E__77_"/></g><g id="_x3C_Grid_Repeat_x3E__37_"><path class="st4490" d="M-18.4 1055.8c25.2 5.1 49.5-10.7 54.4-35.3 4.9-24.6-11.6-48.6-36.7-53.7l-45.6-9.2-8.8 44.5c-4.9 24.5 11.5 48.6 36.7 53.7zm-6.1-66.4 18.5 3.8c10.2 2.1 16.9 11.8 14.9 21.8s-11.9 16.4-22.1 14.3c-10.2-2.1-16.9-11.8-14.9-21.8l3.6-18.1z" id="_x3C_Radial_Repeat_x3E__72_"/><path class="st4490" d="M56.6 1064.1c-25.2-5.1-49.5 10.7-54.4 35.3-4.9 24.6 11.6 48.6 36.7 53.7l45.6 9.2 8.8-44.5c4.9-24.6-11.6-48.6-36.7-53.7zm6.1 66.3-18.5-3.8c-10.2-2.1-16.9-11.8-14.9-21.8 2-10 11.9-16.4 22.1-14.3 10.2 2.1 16.9 11.8 14.9 21.8l-3.6 18.1z" id="_x3C_Radial_Repeat_x3E__71_"/></g><g id="_x3C_Grid_Repeat_x3E__36_"><path class="st4490" d="M115.5 1149.4c25.2-5.1 49.5 10.7 54.4 35.3 4.9 24.6-11.6 48.6-36.7 53.7l-45.6 9.2-8.8-44.5c-4.9-24.6 11.5-48.6 36.7-53.7zm-6.1 66.3 18.5-3.8c10.2-2.1 16.9-11.8 14.9-21.8-2-10-11.9-16.4-22.1-14.3-10.2 2.1-16.9 11.8-14.9 21.8l3.6 18.1z" id="_x3C_Radial_Repeat_x3E__70_"/><path class="st4490" d="M190.5 1141c-25.2 5.1-49.5-10.7-54.4-35.3-4.9-24.6 11.6-48.6 36.7-53.7l45.6-9.2 8.8 44.5c4.9 24.6-11.5 48.6-36.7 53.7zm6.1-66.3-18.5 3.8c-10.2 2.1-16.9 11.8-14.9 21.8 2 10 11.9 16.4 22.1 14.3 10.2-2.1 16.9-11.8 14.9-21.8l-3.6-18.1z" id="_x3C_Radial_Repeat_x3E__69_"/></g><g id="_x3C_Grid_Repeat_x3E__35_"><path class="st4490" d="M249.4 1055.8c25.2 5.1 49.5-10.7 54.4-35.3 4.9-24.6-11.6-48.6-36.7-53.7l-45.6-9.2-8.8 44.5c-4.9 24.5 11.6 48.6 36.7 53.7zm-6.1-66.4 18.5 3.8c10.2 2.1 16.9 11.8 14.9 21.8-2 10-11.9 16.4-22.1 14.3-10.2-2.1-16.9-11.8-14.9-21.8l3.6-18.1z" id="_x3C_Radial_Repeat_x3E__68_"/><path class="st4490" d="M324.4 1064.1c-25.2-5.1-49.5 10.7-54.4 35.3-4.9 24.6 11.6 48.6 36.7 53.7l45.6 9.2 8.8-44.5c4.9-24.6-11.5-48.6-36.7-53.7zm6.1 66.3-18.5-3.8c-10.2-2.1-16.9-11.8-14.9-21.8 2-10 11.9-16.4 22.1-14.3 10.2 2.1 16.9 11.8 14.9 21.8l-3.6 18.1z" id="_x3C_Radial_Repeat_x3E__67_"/></g><g id="_x3C_Grid_Repeat_x3E__34_"><path class="st4490" d="M383.4 1149.4c25.2-5.1 49.5 10.7 54.4 35.3 4.9 24.6-11.6 48.6-36.7 53.7l-45.6 9.2-8.8-44.5c-4.9-24.6 11.5-48.6 36.7-53.7zm-6.1 66.3 18.5-3.8c10.2-2.1 16.9-11.8 14.9-21.8-2-10-11.9-16.4-22.1-14.3-10.2 2.1-16.9 11.8-14.9 21.8l3.6 18.1z" id="_x3C_Radial_Repeat_x3E__66_"/><path class="st4490" d="M458.4 1141c-25.2 5.1-49.5-10.7-54.4-35.3-4.9-24.6 11.6-48.6 36.7-53.7l45.6-9.2 8.8 44.5c4.9 24.6-11.6 48.6-36.7 53.7zm6.1-66.3-18.5 3.8c-10.2 2.1-16.9 11.8-14.9 21.8 2 10 11.9 16.4 22.1 14.3 10.2-2.1 16.9-11.8 14.9-21.8l-3.6-18.1z" id="_x3C_Radial_Repeat_x3E__65_"/></g><g id="_x3C_Grid_Repeat_x3E__33_"><path class="st4490" d="M517.3 1055.8c25.2 5.1 49.5-10.7 54.4-35.3 4.9-24.6-11.6-48.6-36.7-53.7l-45.6-9.2-8.8 44.5c-4.9 24.5 11.5 48.6 36.7 53.7zm-6.1-66.4 18.5 3.8c10.2 2.1 16.9 11.8 14.9 21.8s-11.9 16.4-22.1 14.3c-10.2-2.1-16.9-11.8-14.9-21.8l3.6-18.1z" id="_x3C_Radial_Repeat_x3E__64_"/><path class="st4490" d="M592.3 1064.1c-25.2-5.1-49.5 10.7-54.4 35.3-4.9 24.6 11.6 48.6 36.7 53.7l45.6 9.2 8.8-44.5c4.9-24.6-11.5-48.6-36.7-53.7zm6.1 66.3-18.5-3.8c-10.2-2.1-16.9-11.8-14.9-21.8 2-10 11.9-16.4 22.1-14.3 10.2 2.1 16.9 11.8 14.9 21.8l-3.6 18.1z" id="_x3C_Radial_Repeat_x3E__63_"/></g><g id="_x3C_Grid_Repeat_x3E__32_"><path class="st4490" d="M651.2 1149.4c25.2-5.1 49.5 10.7 54.4 35.3 4.9 24.6-11.6 48.6-36.7 53.7l-45.6 9.2-8.8-44.5c-4.9-24.6 11.6-48.6 36.7-53.7zm-6.1 66.3 18.5-3.8c10.2-2.1 16.9-11.8 14.9-21.8-2-10-11.9-16.4-22.1-14.3-10.2 2.1-16.9 11.8-14.9 21.8l3.6 18.1z" id="_x3C_Radial_Repeat_x3E__62_"/><path class="st4490" d="M726.2 1141c-25.2 5.1-49.5-10.7-54.4-35.3-4.9-24.6 11.6-48.6 36.7-53.7l45.6-9.2 8.8 44.5c4.9 24.6-11.5 48.6-36.7 53.7zm6.1-66.3-18.5 3.8c-10.2 2.1-16.9 11.8-14.9 21.8 2 10 11.9 16.4 22.1 14.3 10.2-2.1 16.9-11.8 14.9-21.8l-3.6-18.1z" id="_x3C_Radial_Repeat_x3E__61_"/></g><g id="_x3C_Grid_Repeat_x3E__31_"><path class="st4490" d="M785.1 1055.8c25.2 5.1 49.5-10.7 54.4-35.3 4.9-24.6-11.6-48.6-36.7-53.7l-45.6-9.2-8.8 44.5c-4.9 24.5 11.6 48.6 36.7 53.7zm-6-66.4 18.5 3.8c10.2 2.1 16.9 11.8 14.9 21.8s-11.9 16.4-22.1 14.3c-10.2-2.1-16.9-11.8-14.9-21.8l3.6-18.1z" id="_x3C_Radial_Repeat_x3E__60_"/><path class="st4490" d="M860.2 1064.1c-25.2-5.1-49.5 10.7-54.4 35.3-4.9 24.6 11.6 48.6 36.7 53.7l45.6 9.2 8.8-44.5c4.9-24.6-11.6-48.6-36.7-53.7zm6 66.3-18.5-3.8c-10.2-2.1-16.9-11.8-14.9-21.8 2-10 11.9-16.4 22.1-14.3 10.2 2.1 16.9 11.8 14.9 21.8l-3.6 18.1z" id="_x3C_Radial_Repeat_x3E__59_"/></g><g id="_x3C_Grid_Repeat_x3E__30_"><path class="st4490" d="M919.1 1149.4c25.2-5.1 49.5 10.7 54.4 35.3 4.9 24.6-11.6 48.6-36.7 53.7l-45.6 9.2-8.8-44.5c-4.9-24.6 11.5-48.6 36.7-53.7zm-6.1 66.3 18.5-3.8c10.2-2.1 16.9-11.8 14.9-21.8-2-10-11.9-16.4-22.1-14.3-10.2 2.1-16.9 11.8-14.9 21.8l3.6 18.1z" id="_x3C_Radial_Repeat_x3E__58_"/><path class="st4490" d="M994.1 1141c-25.2 5.1-49.5-10.7-54.4-35.3-4.9-24.6 11.6-48.6 36.7-53.7l45.6-9.2 8.8 44.5c4.9 24.6-11.6 48.6-36.7 53.7zm6.1-66.3-18.5 3.8c-10.2 2.1-16.9 11.8-14.9 21.8 2 10 11.9 16.4 22.1 14.3 10.2-2.1 16.9-11.8 14.9-21.8l-3.6-18.1z" id="_x3C_Radial_Repeat_x3E__57_"/></g><g id="_x3C_Grid_Repeat_x3E__29_"><path class="st4490" d="M1053 1055.8c25.2 5.1 49.5-10.7 54.4-35.3 4.9-24.6-11.6-48.6-36.7-53.7l-45.6-9.2-8.8 44.5c-4.9 24.5 11.5 48.6 36.7 53.7zm-6.1-66.4 18.5 3.8c10.2 2.1 16.9 11.8 14.9 21.8-2 10-11.9 16.4-22.1 14.3-10.2-2.1-16.9-11.8-14.9-21.8l3.6-18.1z" id="_x3C_Radial_Repeat_x3E__56_"/><path class="st4490" d="M1128 1064.1c-25.2-5.1-49.5 10.7-54.4 35.3-4.9 24.6 11.6 48.6 36.7 53.7l45.6 9.2 8.8-44.5c4.9-24.6-11.5-48.6-36.7-53.7zm6.1 66.3-18.5-3.8c-10.2-2.1-16.9-11.8-14.9-21.8 2-10 11.9-16.4 22.1-14.3 10.2 2.1 16.9 11.8 14.9 21.8l-3.6 18.1z" id="_x3C_Radial_Repeat_x3E__55_"/></g><g id="_x3C_Grid_Repeat_x3E__28_"><path class="st4490" d="M1186.9 1149.4c25.2-5.1 49.5 10.7 54.4 35.3 4.9 24.6-11.6 48.6-36.7 53.7l-45.6 9.2-8.8-44.5c-4.9-24.6 11.6-48.6 36.7-53.7zm-6.1 66.3 18.5-3.8c10.2-2.1 16.9-11.8 14.9-21.8-2-10-11.9-16.4-22.1-14.3-10.2 2.1-16.9 11.8-14.9 21.8l3.6 18.1z" id="_x3C_Radial_Repeat_x3E__54_"/><path class="st4490" d="M1261.9 1141c-25.2 5.1-49.5-10.7-54.4-35.3-4.9-24.6 11.6-48.6 36.7-53.7l45.6-9.2 8.8 44.5c4.9 24.6-11.5 48.6-36.7 53.7zm6.1-66.3-18.5 3.8c-10.2 2.1-16.9 11.8-14.9 21.8 2 10 11.9 16.4 22.1 14.3 10.2-2.1 16.9-11.8 14.9-21.8l-3.6-18.1z" id="_x3C_Radial_Repeat_x3E__53_"/></g><g id="_x3C_Grid_Repeat_x3E__27_"><path class="st4490" d="M1320.9 1055.8c25.2 5.1 49.5-10.7 54.4-35.3 4.9-24.6-11.6-48.6-36.7-53.7l-45.6-9.2-8.8 44.5c-4.9 24.5 11.5 48.6 36.7 53.7zm-6.1-66.4 18.5 3.8c10.2 2.1 16.9 11.8 14.9 21.8-2 10-11.9 16.4-22.1 14.3-10.2-2.1-16.9-11.8-14.9-21.8l3.6-18.1z" id="_x3C_Radial_Repeat_x3E__52_"/><path class="st4490" d="M1395.9 1064.1c-25.2-5.1-49.5 10.7-54.4 35.3-4.9 24.6 11.6 48.6 36.7 53.7l45.6 9.2 8.8-44.5c4.9-24.6-11.6-48.6-36.7-53.7zm6.1 66.3-18.5-3.8c-10.2-2.1-16.9-11.8-14.9-21.8 2-10 11.9-16.4 22.1-14.3 10.2 2.1 16.9 11.8 14.9 21.8l-3.6 18.1z" id="_x3C_Radial_Repeat_x3E__51_"/></g><g id="_x3C_Grid_Repeat_x3E__26_"><path class="st4490" d="M1454.8 1149.4c25.2-5.1 49.5 10.7 54.4 35.3 4.9 24.6-11.6 48.6-36.7 53.7l-45.6 9.2-8.8-44.5c-4.9-24.6 11.5-48.6 36.7-53.7zm-6.1 66.3 18.5-3.8c10.2-2.1 16.9-11.8 14.9-21.8-2-10-11.9-16.4-22.1-14.3-10.2 2.1-16.9 11.8-14.9 21.8l3.6 18.1z" id="_x3C_Radial_Repeat_x3E__50_"/><path class="st4490" d="M1529.8 1141c-25.2 5.1-49.5-10.7-54.4-35.3-4.9-24.6 11.6-48.6 36.7-53.7l45.6-9.2 8.8 44.5c4.9 24.6-11.5 48.6-36.7 53.7zm6.1-66.3-18.5 3.8c-10.2 2.1-16.9 11.8-14.9 21.8 2 10 11.9 16.4 22.1 14.3 10.2-2.1 16.9-11.8 14.9-21.8l-3.6-18.1z" id="_x3C_Radial_Repeat_x3E__49_"/></g><g id="_x3C_Grid_Repeat_x3E__25_"><path class="st4490" d="M1588.7 1055.8c25.2 5.1 49.5-10.7 54.4-35.3 4.9-24.6-11.6-48.6-36.7-53.7l-45.6-9.2-8.8 44.5c-4.9 24.5 11.6 48.6 36.7 53.7zm-6.1-66.4 18.5 3.8c10.2 2.1 16.9 11.8 14.9 21.8-2 10-11.9 16.4-22.1 14.3-10.2-2.1-16.9-11.8-14.9-21.8l3.6-18.1z" id="_x3C_Radial_Repeat_x3E__48_"/><path class="st4490" d="M1663.7 1064.1c-25.2-5.1-49.5 10.7-54.4 35.3-4.9 24.6 11.6 48.6 36.7 53.7l45.6 9.2 8.8-44.5c4.9-24.6-11.5-48.6-36.7-53.7zm6.1 66.3-18.5-3.8c-10.2-2.1-16.9-11.8-14.9-21.8 2-10 11.9-16.4 22.1-14.3 10.2 2.1 16.9 11.8 14.9 21.8l-3.6 18.1z" id="_x3C_Radial_Repeat_x3E__47_"/></g><g id="_x3C_Grid_Repeat_x3E__24_"><path class="st4490" d="M1722.7 1149.4c25.2-5.1 49.5 10.7 54.4 35.3 4.9 24.6-11.6 48.6-36.7 53.7l-45.6 9.2-8.8-44.5c-4.9-24.6 11.5-48.6 36.7-53.7zm-6.1 66.3 18.5-3.8c10.2-2.1 16.9-11.8 14.9-21.8-2-10-11.9-16.4-22.1-14.3-10.2 2.1-16.9 11.8-14.9 21.8l3.6 18.1z" id="_x3C_Radial_Repeat_x3E__46_"/><path class="st4490" d="M1797.7 1141c-25.2 5.1-49.5-10.7-54.4-35.3-4.9-24.6 11.6-48.6 36.7-53.7l45.6-9.2 8.8 44.5c4.9 24.6-11.6 48.6-36.7 53.7zm6.1-66.3-18.5 3.8c-10.2 2.1-16.9 11.8-14.9 21.8 2 10 11.9 16.4 22.1 14.3 10.2-2.1 16.9-11.8 14.9-21.8l-3.6-18.1z" id="_x3C_Radial_Repeat_x3E__45_"/></g><g id="_x3C_Grid_Repeat_x3E__23_"><path class="st4490" d="M1856.6 1055.8c25.2 5.1 49.5-10.7 54.4-35.3 4.9-24.6-11.6-48.6-36.7-53.7l-45.6-9.2-8.8 44.5c-4.9 24.5 11.5 48.6 36.7 53.7zm-6.1-66.4 18.5 3.8c10.2 2.1 16.9 11.8 14.9 21.8-2 10-11.9 16.4-22.1 14.3-10.2-2.1-16.9-11.8-14.9-21.8l3.6-18.1z" id="_x3C_Radial_Repeat_x3E__44_"/><path class="st4490" d="M1931.6 1064.1c-25.2-5.1-49.5 10.7-54.4 35.3-4.9 24.6 11.6 48.6 36.7 53.7l45.6 9.2 8.8-44.5c4.9-24.6-11.5-48.6-36.7-53.7zm6.1 66.3-18.5-3.8c-10.2-2.1-16.9-11.8-14.9-21.8 2-10 11.9-16.4 22.1-14.3 10.2 2.1 16.9 11.8 14.9 21.8l-3.6 18.1z" id="_x3C_Radial_Repeat_x3E__43_"/></g></g><use xlink:href="#SVGID_4487_" style="overflow:visible;fill:none;stroke:#69b395;stroke-miterlimit:10"/></g><path style="fill:url(#Gradient1)" d="M0 0h1920v1080H0z"/></svg>