<svg xmlns="http://www.w3.org/2000/svg" xmlns:xlink="http://www.w3.org/1999/xlink" viewBox="0 0 1920 1080" style="enable-background:new 0 0 1920 1080" xml:space="preserve"><style>.st4487{fill:none;stroke:#7df3a1;stroke-width:3;stroke-miterlimit:10}</style><path style="fill:#e6f7fa" id="Layer_1" d="M-29-30h1977v1134H-29z"/><g id="Layer_5"><defs><path id="SVGID_4485_" d="M-10.8-24.3h1950.1v1115.6H-10.8z"/></defs><clipPath id="SVGID_4486_"><use xlink:href="#SVGID_4485_" style="overflow:visible"/></clipPath><g style="clip-path:url(#SVGID_4486_)"><g id="_x3C_Grid_Repeat_x3E__377_"><path class="st4487" d="M105.1-68.7c25.2-5.1 49.7 10.7 54.6 35.4 4.9 24.6-11.6 48.8-36.8 53.9l-45.7 9.3-8.9-44.6c-4.9-24.8 11.6-48.9 36.8-54zM99-2.2 117.6-6c10.3-2.1 17-11.9 15-21.9-2-10-11.9-16.5-22.2-14.4-10.3 2.1-17 11.9-15 21.9L99-2.2z" id="_x3C_Radial_Repeat_x3E__4785_"/><path class="st4487" d="M180.4-77.1c-25.2 5.1-49.7-10.7-54.6-35.4-4.9-24.6 11.6-48.8 36.8-53.9l45.7-9.3 8.9 44.6c4.9 24.8-11.6 48.9-36.8 54zm6.1-66.5-18.6 3.8c-10.3 2.1-17 11.9-15 21.9 2 10 11.9 16.5 22.2 14.4 10.3-2.1 17-11.9 15-21.9l-3.6-18.2z" id="_x3C_Radial_Repeat_x3E__4784_"/></g><g id="_x3C_Grid_Repeat_x3E__375_"><path class="st4487" d="M373.8-68.7c25.2-5.1 49.7 10.7 54.6 35.4 4.9 24.6-11.6 48.8-36.8 53.9l-45.7 9.3-8.9-44.6c-5-24.8 11.5-48.9 36.8-54zm-6.2 66.5L386.2-6c10.3-2.1 17-11.9 15-21.9-2-10-11.9-16.5-22.2-14.4-10.3 2.1-17 11.9-15 21.9l3.6 18.2z" id="_x3C_Radial_Repeat_x3E__4781_"/><path class="st4487" d="M449-77.1c-25.2 5.1-49.7-10.7-54.6-35.4-4.9-24.6 11.6-48.8 36.8-53.9l45.7-9.3 8.9 44.6c4.9 24.8-11.6 48.9-36.8 54zm6.1-66.5-18.6 3.8c-10.3 2.1-17 11.9-15 21.9 2 10 11.9 16.5 22.2 14.4 10.3-2.1 17-11.9 15-21.9l-3.6-18.2z" id="_x3C_Radial_Repeat_x3E__4780_"/></g><g id="_x3C_Grid_Repeat_x3E__373_"><path class="st4487" d="M642.4-68.7c25.2-5.1 49.7 10.7 54.6 35.4 4.9 24.6-11.6 48.8-36.8 53.9l-45.7 9.3-8.9-44.6c-4.9-24.8 11.5-48.9 36.8-54zm-6.1 66.5L654.9-6c10.3-2.1 17-11.9 15-21.9S658-44.4 647.7-42.3c-10.3 2.1-17 11.9-15 21.9l3.6 18.2z" id="_x3C_Radial_Repeat_x3E__4777_"/><path class="st4487" d="M717.6-77.1c-25.2 5.1-49.7-10.7-54.6-35.4-4.9-24.6 11.6-48.8 36.8-53.9l45.7-9.3 8.9 44.6c4.9 24.8-11.6 48.9-36.8 54zm6.1-66.5-18.6 3.8c-10.3 2.1-17 11.9-15 21.9 2 10 11.9 16.5 22.2 14.4 10.3-2.1 17-11.9 15-21.9l-3.6-18.2z" id="_x3C_Radial_Repeat_x3E__4776_"/></g><g id="_x3C_Grid_Repeat_x3E__371_"><path class="st4487" d="M911-68.7c25.2-5.1 49.7 10.7 54.6 35.4 4.9 24.6-11.6 48.8-36.8 53.9L883 29.8l-8.9-44.6c-4.8-24.7 11.7-48.8 36.9-53.9zm-6.1 66.5L923.5-6c10.3-2.1 17-11.9 15-21.9s-11.9-16.5-22.2-14.4c-10.3 2.1-17 11.9-15 21.9l3.6 18.2z" id="_x3C_Radial_Repeat_x3E__4773_"/><path class="st4487" d="M986.2-77.1c-25.2 5.1-49.7-10.7-54.6-35.4-4.9-24.6 11.6-48.8 36.8-53.9l45.7-9.3 8.9 44.6c5 24.8-11.5 48.9-36.8 54zm6.1-66.5-18.6 3.8c-10.3 2.1-17 11.9-15 21.9 2 10 11.9 16.5 22.2 14.4 10.3-2.1 17-11.9 15-21.9l-3.6-18.2z" id="_x3C_Radial_Repeat_x3E__4772_"/></g><g id="_x3C_Grid_Repeat_x3E__369_"><path class="st4487" d="M1179.6-68.7c25.2-5.1 49.7 10.7 54.6 35.4 4.9 24.6-11.6 48.8-36.8 53.9l-45.7 9.3-8.9-44.6c-4.9-24.8 11.6-48.9 36.8-54zm-6.1 66.5 18.6-3.8c10.3-2.1 17-11.9 15-21.9s-11.9-16.5-22.2-14.4c-10.3 2.1-17 11.9-15 21.9l3.6 18.2z" id="_x3C_Radial_Repeat_x3E__4769_"/><path class="st4487" d="M1254.9-77.1c-25.2 5.1-49.7-10.7-54.6-35.4-4.9-24.6 11.6-48.8 36.8-53.9l45.7-9.3 8.9 44.6c4.9 24.8-11.6 48.9-36.8 54zm6.1-66.5-18.6 3.8c-10.3 2.1-17 11.9-15 21.9s11.9 16.5 22.2 14.4c10.3-2.1 17-11.9 15-21.9l-3.6-18.2z" id="_x3C_Radial_Repeat_x3E__4768_"/></g><g id="_x3C_Grid_Repeat_x3E__367_"><path class="st4487" d="M1448.3-68.7c25.2-5.1 49.7 10.7 54.6 35.4 4.9 24.6-11.6 48.8-36.8 53.9l-45.7 9.3-8.9-44.6c-5-24.8 11.5-48.9 36.8-54zm-6.1 66.5 18.6-3.8c10.3-2.1 17-11.9 15-21.9-2-10-11.9-16.5-22.2-14.4-10.3 2.1-17 11.9-15 21.9l3.6 18.2z" id="_x3C_Radial_Repeat_x3E__4765_"/><path class="st4487" d="M1523.5-77.1c-25.2 5.1-49.7-10.7-54.6-35.4-4.9-24.6 11.6-48.8 36.8-53.9l45.7-9.3 8.9 44.6c4.9 24.8-11.6 48.9-36.8 54zm6.1-66.5-18.6 3.8c-10.3 2.1-17 11.9-15 21.9s11.9 16.5 22.2 14.4c10.3-2.1 17-11.9 15-21.9l-3.6-18.2z" id="_x3C_Radial_Repeat_x3E__4764_"/></g><g id="_x3C_Grid_Repeat_x3E__365_"><path class="st4487" d="M1716.9-68.7c25.2-5.1 49.7 10.7 54.6 35.4 4.9 24.6-11.6 48.8-36.8 53.9l-45.7 9.3-8.9-44.6c-4.9-24.8 11.6-48.9 36.8-54zm-6.1 66.5 18.6-3.8c10.3-2.1 17-11.9 15-21.9s-11.9-16.5-22.2-14.4c-10.3 2.1-17 11.9-15 21.9l3.6 18.2z" id="_x3C_Radial_Repeat_x3E__4761_"/><path class="st4487" d="M1792.1-77.1c-25.2 5.1-49.7-10.7-54.6-35.4-4.9-24.6 11.6-48.8 36.8-53.9l45.7-9.3 8.9 44.6c4.9 24.8-11.5 48.9-36.8 54zm6.1-66.5-18.6 3.8c-10.3 2.1-17 11.9-15 21.9s11.9 16.5 22.2 14.4c10.3-2.1 17-11.9 15-21.9l-3.6-18.2z" id="_x3C_Radial_Repeat_x3E__4760_"/></g><g id="_x3C_Grid_Repeat_x3E__361_"><path class="st4487" d="M-29.2 8.4C-4 13.5 20.5-2.3 25.4-27c4.9-24.6-11.6-48.8-36.8-53.9L-57.1-90-66-45.4C-70.9-20.8-54.4 3.3-29.2 8.4zm-6.1-66.5 18.6 3.8c10.3 2.1 17 11.9 15 21.9S-13.7-16-23.9-18c-10.3-2.1-17-11.9-15-21.9l3.6-18.2z" id="_x3C_Radial_Repeat_x3E__4753_"/><path class="st4487" d="M46 16.8C20.8 11.7-3.6 27.5-8.5 52.2c-4.9 24.6 11.6 48.8 36.8 53.9l45.7 9.3 8.9-44.6C87.8 46 71.3 21.9 46 16.8zm6.2 66.5-18.6-3.8c-10.3-2.1-17-11.9-15-21.9s11.9-16.5 22.2-14.4c10.3 2.1 17 11.9 15 21.9l-3.6 18.2z" id="_x3C_Radial_Repeat_x3E__4752_"/></g><g id="_x3C_Grid_Repeat_x3E__360_"><path class="st4487" d="M105.1 102.3c25.2-5.1 49.7 10.7 54.6 35.4 4.9 24.6-11.6 48.8-36.8 53.9l-45.7 9.3-8.9-44.6c-4.9-24.8 11.6-48.9 36.8-54zM99 168.8l18.6-3.8c10.3-2.1 17-11.9 15-21.9-2-10-11.9-16.5-22.2-14.4-10.3 2.1-17 11.9-15 21.9l3.6 18.2z" id="_x3C_Radial_Repeat_x3E__4751_"/><path class="st4487" d="M180.4 93.9c-25.2 5.1-49.7-10.7-54.6-35.4-4.9-24.6 11.6-48.8 36.8-53.9l45.7-9.3 8.9 44.6c4.9 24.8-11.6 48.9-36.8 54zm6.1-66.5-18.6 3.8c-10.3 2.1-17 11.9-15 21.9 2 10 11.9 16.5 22.2 14.4 10.3-2.1 17-11.9 15-21.9l-3.6-18.2z" id="_x3C_Radial_Repeat_x3E__4750_"/></g><g id="_x3C_Grid_Repeat_x3E__359_"><path class="st4487" d="M239.4 8.4C264.6 13.5 289.1-2.3 294-27c4.9-24.6-11.6-48.8-36.8-53.9L211.5-90l-8.9 44.6c-4.9 24.6 11.6 48.7 36.8 53.8zm-6.1-66.5 18.6 3.8c10.3 2.1 17 11.9 15 21.9-2 10-11.9 16.5-22.2 14.4-10.3-2.1-17-11.9-15-21.9l3.6-18.2z" id="_x3C_Radial_Repeat_x3E__4749_"/><path class="st4487" d="M314.7 16.8c-25.2-5.1-49.7 10.7-54.6 35.4-4.9 24.6 11.6 48.8 36.8 53.9l45.7 9.3 8.9-44.6c4.9-24.8-11.6-48.9-36.8-54zm6.1 66.5-18.6-3.8c-10.3-2.1-17-11.9-15-21.9 2-10 11.9-16.5 22.2-14.4 10.3 2.1 17 11.9 15 21.9l-3.6 18.2z" id="_x3C_Radial_Repeat_x3E__4748_"/></g><g id="_x3C_Grid_Repeat_x3E__358_"><path class="st4487" d="M373.8 102.3c25.2-5.1 49.7 10.7 54.6 35.4 4.9 24.6-11.6 48.8-36.8 53.9l-45.7 9.3-8.9-44.6c-5-24.8 11.5-48.9 36.8-54zm-6.2 66.5 18.6-3.8c10.3-2.1 17-11.9 15-21.9-2-10-11.9-16.5-22.2-14.4-10.3 2.1-17 11.9-15 21.9l3.6 18.2z" id="_x3C_Radial_Repeat_x3E__4747_"/><path class="st4487" d="M449 93.9c-25.2 5.1-49.7-10.7-54.6-35.4-4.9-24.6 11.6-48.7 36.9-53.8L477-4.6l8.9 44.6c4.8 24.7-11.7 48.8-36.9 53.9zm6.1-66.5-18.6 3.8c-10.3 2.1-17 11.9-15 21.9 2 10 11.9 16.5 22.2 14.4 10.3-2.1 17-11.9 15-21.9l-3.6-18.2z" id="_x3C_Radial_Repeat_x3E__4746_"/></g><g id="_x3C_Grid_Repeat_x3E__357_"><path class="st4487" d="M508.1 8.4c25.2 5.1 49.7-10.7 54.6-35.4 4.9-24.6-11.6-48.8-36.8-53.9L480.1-90l-8.9 44.6c-4.9 24.6 11.6 48.7 36.9 53.8zM502-58.1l18.6 3.8c10.3 2.1 17 11.9 15 21.9S523.6-16 513.3-18c-10.3-2.1-17-11.9-15-21.9l3.7-18.2z" id="_x3C_Radial_Repeat_x3E__4745_"/><path class="st4487" d="M583.3 16.8c-25.2-5.1-49.7 10.7-54.6 35.4-4.9 24.6 11.6 48.8 36.8 53.9l45.7 9.3 8.9-44.6c4.9-24.8-11.6-48.9-36.8-54zm6.1 66.5-18.6-3.8c-10.3-2.1-17-11.9-15-21.9 2-10 11.9-16.5 22.2-14.4 10.3 2.1 17 11.9 15 21.9l-3.6 18.2z" id="_x3C_Radial_Repeat_x3E__4744_"/></g><g id="_x3C_Grid_Repeat_x3E__356_"><path class="st4487" d="M642.4 102.3c25.2-5.1 49.7 10.7 54.6 35.4 4.9 24.6-11.6 48.8-36.8 53.9l-45.7 9.3-8.9-44.6c-4.9-24.8 11.5-48.9 36.8-54zm-6.1 66.5 18.6-3.8c10.3-2.1 17-11.9 15-21.9-2-10-11.9-16.5-22.2-14.4-10.3 2.1-17 11.9-15 21.9l3.6 18.2z" id="_x3C_Radial_Repeat_x3E__4743_"/><path class="st4487" d="M717.6 93.9C692.4 99 667.9 83.2 663 58.5c-4.9-24.6 11.6-48.8 36.8-53.9l45.7-9.3 8.9 44.6c4.9 24.8-11.6 48.9-36.8 54zm6.1-66.5-18.6 3.8c-10.3 2.1-17 11.9-15 21.9 2 10 11.9 16.5 22.2 14.4 10.3-2.1 17-11.9 15-21.9l-3.6-18.2z" id="_x3C_Radial_Repeat_x3E__4742_"/></g><g id="_x3C_Grid_Repeat_x3E__355_"><path class="st4487" d="M776.7 8.4c25.2 5.1 49.7-10.7 54.6-35.4 4.9-24.6-11.6-48.8-36.8-53.9L748.7-90l-8.9 44.6C735-20.8 751.5 3.3 776.7 8.4zm-6.1-66.5 18.6 3.8c10.3 2.1 17 11.9 15 21.9-2 10-11.9 16.5-22.2 14.4-10.3-2.1-17-11.9-15-21.9l3.6-18.2z" id="_x3C_Radial_Repeat_x3E__4741_"/><path class="st4487" d="M851.9 16.8c-25.2-5.1-49.7 10.7-54.6 35.4-4.9 24.6 11.6 48.8 36.8 53.9l45.7 9.3 8.9-44.6c4.9-24.8-11.5-48.9-36.8-54zm6.1 66.5-18.6-3.8c-10.3-2.1-17-11.9-15-21.9s11.9-16.5 22.2-14.4c10.3 2.1 17 11.9 15 21.9L858 83.3z" id="_x3C_Radial_Repeat_x3E__4740_"/></g><g id="_x3C_Grid_Repeat_x3E__354_"><path class="st4487" d="M911 102.3c25.2-5.1 49.7 10.7 54.6 35.4 4.9 24.6-11.6 48.8-36.8 53.9l-45.7 9.3-8.9-44.6c-4.9-24.8 11.6-48.9 36.8-54zm-6.1 66.5 18.6-3.8c10.3-2.1 17-11.9 15-21.9-2-10-11.9-16.5-22.2-14.4-10.3 2.1-17 11.9-15 21.9l3.6 18.2z" id="_x3C_Radial_Repeat_x3E__4739_"/><path class="st4487" d="M986.2 93.9C961 99 936.5 83.2 931.6 58.5c-4.9-24.6 11.6-48.8 36.8-53.9l45.7-9.3 8.9 44.6c5 24.8-11.5 48.9-36.8 54zm6.1-66.5-18.6 3.8c-10.3 2.1-17 11.9-15 21.9 2 10 11.9 16.5 22.2 14.4 10.3-2.1 17-11.9 15-21.9l-3.6-18.2z" id="_x3C_Radial_Repeat_x3E__4738_"/></g><g id="_x3C_Grid_Repeat_x3E__353_"><path class="st4487" d="M1045.3 8.4c25.2 5.1 49.7-10.7 54.6-35.4 4.9-24.6-11.6-48.8-36.8-53.9l-45.7-9.3-8.9 44.6c-4.9 24.8 11.6 48.9 36.8 54zm-6.1-66.5 18.6 3.8c10.3 2.1 17 11.9 15 21.9-2 10-11.9 16.5-22.2 14.4-10.3-2.1-17-11.9-15-21.9l3.6-18.2z" id="_x3C_Radial_Repeat_x3E__4737_"/><path class="st4487" d="M1120.6 16.8c-25.2-5.1-49.7 10.7-54.6 35.4-4.9 24.6 11.6 48.8 36.8 53.9l45.7 9.3 8.9-44.6c4.9-24.8-11.6-48.9-36.8-54zm6.1 66.5-18.6-3.8c-10.3-2.1-17-11.9-15-21.9s11.9-16.5 22.2-14.4c10.3 2.1 17 11.9 15 21.9l-3.6 18.2z" id="_x3C_Radial_Repeat_x3E__4736_"/></g><g id="_x3C_Grid_Repeat_x3E__352_"><path class="st4487" d="M1179.6 102.3c25.2-5.1 49.7 10.7 54.6 35.4 4.9 24.6-11.6 48.8-36.8 53.9l-45.7 9.3-8.9-44.6c-4.9-24.8 11.6-48.9 36.8-54zm-6.1 66.5 18.6-3.8c10.3-2.1 17-11.9 15-21.9-2-10-11.9-16.5-22.2-14.4-10.3 2.1-17 11.9-15 21.9l3.6 18.2z" id="_x3C_Radial_Repeat_x3E__4735_"/><path class="st4487" d="M1254.9 93.9c-25.2 5.1-49.7-10.7-54.6-35.4-4.9-24.6 11.6-48.8 36.8-53.9l45.7-9.3 8.9 44.6c4.9 24.8-11.6 48.9-36.8 54zm6.1-66.5-18.6 3.8c-10.3 2.1-17 11.9-15 21.9s11.9 16.5 22.2 14.4c10.3-2.1 17-11.9 15-21.9l-3.6-18.2z" id="_x3C_Radial_Repeat_x3E__4734_"/></g><g id="_x3C_Grid_Repeat_x3E__351_"><path class="st4487" d="M1314 8.4c25.2 5.1 49.7-10.7 54.6-35.4 4.9-24.6-11.6-48.8-36.8-53.9L1286-90l-8.9 44.6c-4.9 24.6 11.6 48.7 36.9 53.8zm-6.2-66.5 18.6 3.8c10.3 2.1 17 11.9 15 21.9S1329.5-16 1319.2-18c-10.3-2.1-17-11.9-15-21.9l3.6-18.2z" id="_x3C_Radial_Repeat_x3E__4733_"/><path class="st4487" d="M1389.2 16.8c-25.2-5.1-49.7 10.7-54.6 35.4-4.9 24.6 11.6 48.8 36.8 53.9l45.7 9.3 8.9-44.6c4.9-24.8-11.6-48.9-36.8-54zm6.1 66.5-18.6-3.8c-10.3-2.1-17-11.9-15-21.9 2-10 11.9-16.5 22.2-14.4 10.3 2.1 17 11.9 15 21.9l-3.6 18.2z" id="_x3C_Radial_Repeat_x3E__4732_"/></g><g id="_x3C_Grid_Repeat_x3E__350_"><path class="st4487" d="M1448.3 102.3c25.2-5.1 49.7 10.7 54.6 35.4 4.9 24.6-11.6 48.8-36.8 53.9l-45.7 9.3-8.9-44.6c-5-24.8 11.5-48.9 36.8-54zm-6.1 66.5 18.6-3.8c10.3-2.1 17-11.9 15-21.9-2-10-11.9-16.5-22.2-14.4-10.3 2.1-17 11.9-15 21.9l3.6 18.2z" id="_x3C_Radial_Repeat_x3E__4731_"/><path class="st4487" d="M1523.5 93.9c-25.2 5.1-49.7-10.7-54.6-35.4-4.9-24.6 11.6-48.8 36.8-53.9l45.7-9.3 8.9 44.6c4.9 24.8-11.6 48.9-36.8 54zm6.1-66.5-18.6 3.8c-10.3 2.1-17 11.9-15 21.9s11.9 16.5 22.2 14.4c10.3-2.1 17-11.9 15-21.9l-3.6-18.2z" id="_x3C_Radial_Repeat_x3E__4730_"/></g><g id="_x3C_Grid_Repeat_x3E__349_"><path class="st4487" d="M1582.6 8.4c25.2 5.1 49.7-10.7 54.6-35.4 4.9-24.6-11.6-48.8-36.8-53.9l-45.7-9.3-8.9 44.6c-4.9 24.8 11.5 48.9 36.8 54zm-6.1-66.5 18.6 3.8c10.3 2.1 17 11.9 15 21.9s-12 16.4-22.3 14.4c-10.3-2.1-17-11.9-15-21.9l3.7-18.2z" id="_x3C_Radial_Repeat_x3E__4729_"/><path class="st4487" d="M1657.8 16.8c-25.2-5.1-49.7 10.7-54.6 35.4-4.9 24.6 11.6 48.8 36.8 53.9l45.7 9.3 8.9-44.6c4.9-24.8-11.6-48.9-36.8-54zm6.1 66.5-18.6-3.8c-10.3-2.1-17-11.9-15-21.9s11.9-16.5 22.2-14.4c10.3 2.1 17 11.9 15 21.9l-3.6 18.2z" id="_x3C_Radial_Repeat_x3E__4728_"/></g><g id="_x3C_Grid_Repeat_x3E__348_"><path class="st4487" d="M1716.9 102.3c25.2-5.1 49.7 10.7 54.6 35.4 4.9 24.6-11.6 48.8-36.8 53.9l-45.7 9.3-8.9-44.6c-4.9-24.8 11.6-48.9 36.8-54zm-6.1 66.5 18.6-3.8c10.3-2.1 17-11.9 15-21.9-2-10-11.9-16.5-22.2-14.4-10.3 2.1-17 11.9-15 21.9l3.6 18.2z" id="_x3C_Radial_Repeat_x3E__4727_"/><path class="st4487" d="M1792.1 93.9c-25.2 5.1-49.7-10.7-54.6-35.4-4.9-24.6 11.6-48.8 36.8-53.9l45.7-9.3 8.9 44.6c4.9 24.8-11.5 48.9-36.8 54zm6.1-66.5-18.6 3.8c-10.3 2.1-17 11.9-15 21.9s11.9 16.5 22.2 14.4c10.3-2.1 17-11.9 15-21.9l-3.6-18.2z" id="_x3C_Radial_Repeat_x3E__4726_"/></g><g id="_x3C_Grid_Repeat_x3E__347_"><path class="st4487" d="M1851.2 8.4c25.2 5.1 49.7-10.7 54.6-35.4 4.9-24.6-11.6-48.8-36.8-53.9l-45.7-9.3-8.9 44.6c-4.9 24.8 11.6 48.9 36.8 54zm-6.1-66.5 18.6 3.8c10.3 2.1 17 11.9 15 21.9-2 10-11.9 16.5-22.2 14.4-10.3-2.1-17-11.9-15-21.9l3.6-18.2z" id="_x3C_Radial_Repeat_x3E__4725_"/><path class="st4487" d="M1926.4 16.8c-25.2-5.1-49.7 10.7-54.6 35.4-4.9 24.6 11.6 48.8 36.8 53.9l45.7 9.3 8.9-44.6c5-24.8-11.5-48.9-36.8-54zm6.1 66.5-18.6-3.8c-10.3-2.1-17-11.9-15-21.9s11.9-16.5 22.2-14.4c10.3 2.1 17 11.9 15 21.9l-3.6 18.2z" id="_x3C_Radial_Repeat_x3E__4724_"/></g><g id="_x3C_Grid_Repeat_x3E__344_"><path class="st4487" d="M-29.2 179.5c25.2 5.1 49.7-10.7 54.6-35.4 4.9-24.6-11.6-48.8-36.8-53.9L-57.1 81l-8.9 44.6c-4.9 24.6 11.6 48.7 36.8 53.9zm-6.1-66.6 18.6 3.8c10.3 2.1 17 11.9 15 21.9-2 10-11.9 16.5-22.2 14.4-10.3-2.1-17-11.9-15-21.9l3.6-18.2z" id="_x3C_Radial_Repeat_x3E__4719_"/><path class="st4487" d="M46 187.8c-25.2-5.1-49.7 10.7-54.6 35.4-4.9 24.6 11.6 48.8 36.8 53.9l45.7 9.3 8.9-44.6c5-24.8-11.5-48.9-36.8-54zm6.2 66.5-18.6-3.8c-10.3-2.1-17-11.9-15-21.9 2-10 11.9-16.5 22.2-14.4 10.3 2.1 17 11.9 15 21.9l-3.6 18.2z" id="_x3C_Radial_Repeat_x3E__4718_"/></g><g id="_x3C_Grid_Repeat_x3E__343_"><path class="st4487" d="M105.1 273.3c25.2-5.1 49.7 10.7 54.6 35.4 4.9 24.6-11.6 48.8-36.8 53.9l-45.7 9.3-8.9-44.6c-4.9-24.7 11.6-48.9 36.8-54zM99 339.8l18.6-3.8c10.3-2.1 17-11.9 15-21.9-2-10-11.9-16.5-22.2-14.4-10.3 2.1-17 11.9-15 21.9l3.6 18.2z" id="_x3C_Radial_Repeat_x3E__4717_"/><path class="st4487" d="M180.4 265c-25.2 5.1-49.7-10.7-54.6-35.4-4.9-24.6 11.6-48.8 36.8-53.9l45.7-9.3 8.9 44.6c4.9 24.7-11.6 48.9-36.8 54zm6.1-66.5-18.6 3.8c-10.3 2.1-17 11.9-15 21.9 2 10 11.9 16.5 22.2 14.4 10.3-2.1 17-11.9 15-21.9l-3.6-18.2z" id="_x3C_Radial_Repeat_x3E__4716_"/></g><g id="_x3C_Grid_Repeat_x3E__342_"><path class="st4487" d="M239.4 179.5c25.2 5.1 49.7-10.7 54.6-35.4 4.9-24.6-11.6-48.8-36.8-53.9L211.5 81l-8.9 44.6c-4.9 24.6 11.6 48.7 36.8 53.9zm-6.1-66.6 18.6 3.8c10.3 2.1 17 11.9 15 21.9-2 10-11.9 16.5-22.2 14.4-10.3-2.1-17-11.9-15-21.9l3.6-18.2z" id="_x3C_Radial_Repeat_x3E__4715_"/><path class="st4487" d="M314.7 187.8c-25.2-5.1-49.7 10.7-54.6 35.4-4.9 24.6 11.6 48.8 36.8 53.9l45.7 9.3 8.9-44.6c4.9-24.8-11.6-48.9-36.8-54zm6.1 66.5-18.6-3.8c-10.3-2.1-17-11.9-15-21.9 2-10 11.9-16.5 22.2-14.4 10.3 2.1 17 11.9 15 21.9l-3.6 18.2z" id="_x3C_Radial_Repeat_x3E__4714_"/></g><g id="_x3C_Grid_Repeat_x3E__341_"><path class="st4487" d="M373.8 273.3c25.2-5.1 49.7 10.7 54.6 35.4 4.9 24.6-11.6 48.8-36.8 53.9l-45.7 9.3-8.9-44.6c-5-24.7 11.5-48.9 36.8-54zm-6.2 66.5 18.6-3.8c10.3-2.1 17-11.9 15-21.9-2-10-11.9-16.5-22.2-14.4-10.3 2.1-17 11.9-15 21.9l3.6 18.2z" id="_x3C_Radial_Repeat_x3E__4713_"/><path class="st4487" d="M449 265c-25.2 5.1-49.7-10.7-54.6-35.4-4.9-24.6 11.6-48.8 36.8-53.9l45.7-9.3 8.9 44.6c4.9 24.7-11.6 48.9-36.8 54zm6.1-66.5-18.6 3.8c-10.3 2.1-17 11.9-15 21.9 2 10 11.9 16.5 22.2 14.4 10.3-2.1 17-11.9 15-21.9l-3.6-18.2z" id="_x3C_Radial_Repeat_x3E__4712_"/></g><g id="_x3C_Grid_Repeat_x3E__340_"><path class="st4487" d="M508.1 179.5c25.2 5.1 49.7-10.7 54.6-35.4 4.9-24.6-11.6-48.8-36.8-53.9L480.1 81l-8.9 44.6c-4.9 24.6 11.6 48.7 36.9 53.9zm-6.1-66.6 18.6 3.8c10.3 2.1 17 11.9 15 21.9-2 10-11.9 16.5-22.2 14.4-10.3-2.1-17-11.9-15-21.9l3.6-18.2z" id="_x3C_Radial_Repeat_x3E__4711_"/><path class="st4487" d="M583.3 187.8c-25.2-5.1-49.7 10.7-54.6 35.4-4.9 24.6 11.6 48.8 36.8 53.9l45.7 9.3 8.9-44.6c4.9-24.8-11.6-48.9-36.8-54zm6.1 66.5-18.6-3.8c-10.3-2.1-17-11.9-15-21.9 2-10 11.9-16.5 22.2-14.4 10.3 2.1 17 11.9 15 21.9l-3.6 18.2z" id="_x3C_Radial_Repeat_x3E__4710_"/></g><g id="_x3C_Grid_Repeat_x3E__339_"><path class="st4487" d="M642.4 273.3c25.2-5.1 49.7 10.7 54.6 35.4 4.9 24.6-11.6 48.8-36.8 53.9l-45.7 9.3-8.9-44.6c-4.9-24.7 11.5-48.9 36.8-54zm-6.1 66.5 18.6-3.8c10.3-2.1 17-11.9 15-21.9s-11.9-16.5-22.2-14.4c-10.3 2.1-17 11.9-15 21.9l3.6 18.2z" id="_x3C_Radial_Repeat_x3E__4709_"/><path class="st4487" d="M717.6 265c-25.2 5.1-49.7-10.7-54.6-35.4-4.9-24.6 11.6-48.8 36.8-53.9l45.7-9.3 8.9 44.6c4.9 24.7-11.6 48.9-36.8 54zm6.1-66.5-18.6 3.8c-10.3 2.1-17 11.9-15 21.9 2 10 11.9 16.5 22.2 14.4 10.3-2.1 17-11.9 15-21.9l-3.6-18.2z" id="_x3C_Radial_Repeat_x3E__4708_"/></g><g id="_x3C_Grid_Repeat_x3E__338_"><path class="st4487" d="M776.7 179.5c25.2 5.1 49.7-10.7 54.6-35.4 4.9-24.6-11.6-48.8-36.8-53.9L748.7 81l-8.9 44.6c-4.8 24.6 11.7 48.7 36.9 53.9zm-6.1-66.6 18.6 3.8c10.3 2.1 17 11.9 15 21.9-2 10-11.9 16.5-22.2 14.4-10.3-2.1-17-11.9-15-21.9l3.6-18.2z" id="_x3C_Radial_Repeat_x3E__4707_"/><path class="st4487" d="M851.9 187.8c-25.2-5.1-49.7 10.7-54.6 35.4-4.9 24.6 11.6 48.8 36.8 53.9l45.7 9.3 8.9-44.6c4.9-24.8-11.5-48.9-36.8-54zm6.1 66.5-18.6-3.8c-10.3-2.1-17-11.9-15-21.9 2-10 11.9-16.5 22.2-14.4 10.3 2.1 17 11.9 15 21.9l-3.6 18.2z" id="_x3C_Radial_Repeat_x3E__4706_"/></g><g id="_x3C_Grid_Repeat_x3E__337_"><path class="st4487" d="M911 273.3c25.2-5.1 49.7 10.7 54.6 35.4 4.9 24.6-11.6 48.8-36.8 53.9l-45.7 9.3-8.9-44.6c-4.9-24.7 11.6-48.9 36.8-54zm-6.1 66.5 18.6-3.8c10.3-2.1 17-11.9 15-21.9s-11.9-16.5-22.2-14.4c-10.3 2.1-17 11.9-15 21.9l3.6 18.2z" id="_x3C_Radial_Repeat_x3E__4705_"/><path class="st4487" d="M986.2 265c-25.2 5.1-49.7-10.7-54.6-35.4-4.9-24.6 11.6-48.8 36.8-53.9l45.7-9.3 8.9 44.6c5 24.7-11.5 48.9-36.8 54zm6.1-66.5-18.6 3.8c-10.3 2.1-17 11.9-15 21.9 2 10 11.9 16.5 22.2 14.4 10.3-2.1 17-11.9 15-21.9l-3.6-18.2z" id="_x3C_Radial_Repeat_x3E__4704_"/></g><g id="_x3C_Grid_Repeat_x3E__336_"><path class="st4487" d="M1045.3 179.5c25.2 5.1 49.7-10.7 54.6-35.4 4.9-24.6-11.6-48.8-36.8-53.9l-45.7-9.3-8.9 44.6c-4.9 24.7 11.6 48.8 36.8 54zm-6.1-66.6 18.6 3.8c10.3 2.1 17 11.9 15 21.9-2 10-11.9 16.5-22.2 14.4-10.3-2.1-17-11.9-15-21.9l3.6-18.2z" id="_x3C_Radial_Repeat_x3E__4703_"/><path class="st4487" d="M1120.6 187.8c-25.2-5.1-49.7 10.7-54.6 35.4-4.9 24.6 11.6 48.8 36.8 53.9l45.7 9.3 8.9-44.6c4.9-24.8-11.6-48.9-36.8-54zm6.1 66.5-18.6-3.8c-10.3-2.1-17-11.9-15-21.9 2-10 11.9-16.5 22.2-14.4 10.3 2.1 17 11.9 15 21.9l-3.6 18.2z" id="_x3C_Radial_Repeat_x3E__4702_"/></g><g id="_x3C_Grid_Repeat_x3E__335_"><path class="st4487" d="M1179.6 273.3c25.2-5.1 49.7 10.7 54.6 35.4 4.9 24.6-11.6 48.8-36.8 53.9l-45.7 9.3-8.9-44.6c-4.9-24.7 11.6-48.9 36.8-54zm-6.1 66.5 18.6-3.8c10.3-2.1 17-11.9 15-21.9s-11.9-16.5-22.2-14.4c-10.3 2.1-17 11.9-15 21.9l3.6 18.2z" id="_x3C_Radial_Repeat_x3E__4701_"/><path class="st4487" d="M1254.9 265c-25.2 5.1-49.7-10.7-54.6-35.4-4.9-24.6 11.6-48.8 36.8-53.9l45.7-9.3 8.9 44.6c4.9 24.7-11.6 48.9-36.8 54zm6.1-66.5-18.6 3.8c-10.3 2.1-17 11.9-15 21.9 2 10 11.9 16.5 22.2 14.4 10.3-2.1 17-11.9 15-21.9l-3.6-18.2z" id="_x3C_Radial_Repeat_x3E__4700_"/></g><g id="_x3C_Grid_Repeat_x3E__334_"><path class="st4487" d="M1314 179.5c25.2 5.1 49.7-10.7 54.6-35.4 4.9-24.6-11.6-48.8-36.8-53.9L1286 81l-8.9 44.6c-4.9 24.6 11.6 48.7 36.9 53.9zm-6.2-66.6 18.6 3.8c10.3 2.1 17 11.9 15 21.9-2 10-11.9 16.5-22.2 14.4-10.3-2.1-17-11.9-15-21.9l3.6-18.2z" id="_x3C_Radial_Repeat_x3E__4699_"/><path class="st4487" d="M1389.2 187.8c-25.2-5.1-49.7 10.7-54.6 35.4-4.9 24.6 11.6 48.8 36.8 53.9l45.7 9.3 8.9-44.6c4.9-24.8-11.6-48.9-36.8-54zm6.1 66.5-18.6-3.8c-10.3-2.1-17-11.9-15-21.9 2-10 11.9-16.5 22.2-14.4 10.3 2.1 17 11.9 15 21.9l-3.6 18.2z" id="_x3C_Radial_Repeat_x3E__4698_"/></g><g id="_x3C_Grid_Repeat_x3E__333_"><path class="st4487" d="M1448.3 273.3c25.2-5.1 49.7 10.7 54.6 35.4 4.9 24.6-11.6 48.8-36.8 53.9l-45.7 9.3-8.9-44.6c-5-24.7 11.5-48.9 36.8-54zm-6.1 66.5 18.6-3.8c10.3-2.1 17-11.9 15-21.9-2-10-11.9-16.5-22.2-14.4-10.3 2.1-17 11.9-15 21.9l3.6 18.2z" id="_x3C_Radial_Repeat_x3E__4697_"/><path class="st4487" d="M1523.5 265c-25.2 5.1-49.7-10.7-54.6-35.4-4.9-24.6 11.6-48.8 36.8-53.9l45.7-9.3 8.9 44.6c4.9 24.7-11.6 48.9-36.8 54zm6.1-66.5-18.6 3.8c-10.3 2.1-17 11.9-15 21.9 2 10 11.9 16.5 22.2 14.4 10.3-2.1 17-11.9 15-21.9l-3.6-18.2z" id="_x3C_Radial_Repeat_x3E__4696_"/></g><g id="_x3C_Grid_Repeat_x3E__332_"><path class="st4487" d="M1582.6 179.5c25.2 5.1 49.7-10.7 54.6-35.4 4.9-24.6-11.6-48.8-36.8-53.9l-45.7-9.3-8.9 44.6c-4.9 24.7 11.5 48.8 36.8 54zm-6.1-66.6 18.6 3.8c10.3 2.1 17 11.9 15 21.9-2 10-11.9 16.5-22.2 14.4-10.3-2.1-17-11.9-15-21.9l3.6-18.2z" id="_x3C_Radial_Repeat_x3E__4695_"/><path class="st4487" d="M1657.8 187.8c-25.2-5.1-49.7 10.7-54.6 35.4-4.9 24.6 11.6 48.8 36.8 53.9l45.7 9.3 8.9-44.6c4.9-24.8-11.6-48.9-36.8-54zm6.1 66.5-18.6-3.8c-10.3-2.1-17-11.9-15-21.9 2-10 11.9-16.5 22.2-14.4 10.3 2.1 17 11.9 15 21.9l-3.6 18.2z" id="_x3C_Radial_Repeat_x3E__4694_"/></g><g id="_x3C_Grid_Repeat_x3E__331_"><path class="st4487" d="M1716.9 273.3c25.2-5.1 49.7 10.7 54.6 35.4 4.9 24.6-11.6 48.8-36.8 53.9l-45.7 9.3-8.9-44.6c-4.9-24.7 11.6-48.9 36.8-54zm-6.1 66.5 18.6-3.8c10.3-2.1 17-11.9 15-21.9s-11.9-16.5-22.2-14.4c-10.3 2.1-17 11.9-15 21.9l3.6 18.2z" id="_x3C_Radial_Repeat_x3E__4693_"/><path class="st4487" d="M1792.1 265c-25.2 5.1-49.7-10.7-54.6-35.4-4.9-24.6 11.6-48.8 36.8-53.9l45.7-9.3 8.9 44.6c4.9 24.7-11.5 48.9-36.8 54zm6.1-66.5-18.6 3.8c-10.3 2.1-17 11.9-15 21.9 2 10 11.9 16.5 22.2 14.4 10.3-2.1 17-11.9 15-21.9l-3.6-18.2z" id="_x3C_Radial_Repeat_x3E__4692_"/></g><g id="_x3C_Grid_Repeat_x3E__330_"><path class="st4487" d="M1851.2 179.5c25.2 5.1 49.7-10.7 54.6-35.4 4.9-24.6-11.6-48.8-36.8-53.9l-45.7-9.3-8.9 44.6c-4.9 24.7 11.6 48.8 36.8 54zm-6.1-66.6 18.6 3.8c10.3 2.1 17 11.9 15 21.9-2 10-11.9 16.5-22.2 14.4-10.3-2.1-17-11.9-15-21.9l3.6-18.2z" id="_x3C_Radial_Repeat_x3E__4691_"/><path class="st4487" d="M1926.4 187.8c-25.2-5.1-49.7 10.7-54.6 35.4-4.9 24.6 11.6 48.8 36.8 53.9l45.7 9.3 8.9-44.6c5-24.8-11.5-48.9-36.8-54zm6.1 66.5-18.6-3.8c-10.3-2.1-17-11.9-15-21.9 2-10 11.9-16.5 22.2-14.4 10.3 2.1 17 11.9 15 21.9l-3.6 18.2z" id="_x3C_Radial_Repeat_x3E__4690_"/></g><g id="_x3C_Grid_Repeat_x3E__327_"><path class="st4487" d="M-29.2 350.5c25.2 5.1 49.7-10.7 54.6-35.4 4.9-24.6-11.6-48.8-36.8-53.9l-45.7-9.3-8.9 44.6c-4.9 24.7 11.6 48.9 36.8 54zm-6.1-66.5 18.6 3.8c10.3 2.1 17 11.9 15 21.9s-11.9 16.5-22.2 14.4c-10.3-2.1-17-11.9-15-21.9l3.6-18.2z" id="_x3C_Radial_Repeat_x3E__4685_"/><path class="st4487" d="M46 358.8c-25.2-5.1-49.7 10.7-54.6 35.4-4.9 24.6 11.6 48.8 36.8 53.9l45.7 9.3 8.9-44.6c5-24.7-11.5-48.9-36.8-54zm6.2 66.6-18.6-3.8c-10.3-2.1-17-11.9-15-21.9 2-10 11.9-16.5 22.2-14.4 10.3 2.1 17 11.9 15 21.9l-3.6 18.2z" id="_x3C_Radial_Repeat_x3E__4684_"/></g><g id="_x3C_Grid_Repeat_x3E__326_"><path class="st4487" d="M105.1 444.3c25.2-5.1 49.7 10.7 54.6 35.4 4.9 24.6-11.6 48.8-36.8 53.9l-45.7 9.3-8.9-44.6c-4.9-24.7 11.6-48.8 36.8-54zM99 510.9l18.6-3.8c10.3-2.1 17-11.9 15-21.9-2-10-11.9-16.5-22.2-14.4-10.3 2.1-17 11.9-15 21.9l3.6 18.2z" id="_x3C_Radial_Repeat_x3E__4683_"/><path class="st4487" d="M180.4 436c-25.2 5.1-49.7-10.7-54.6-35.4-4.9-24.6 11.6-48.8 36.8-53.9l45.7-9.3 8.9 44.6c4.9 24.8-11.6 48.9-36.8 54zm6.1-66.5-18.6 3.8c-10.3 2.1-17 11.9-15 21.9 2 10 11.9 16.5 22.2 14.4 10.3-2.1 17-11.9 15-21.9l-3.6-18.2z" id="_x3C_Radial_Repeat_x3E__4682_"/></g><g id="_x3C_Grid_Repeat_x3E__325_"><path class="st4487" d="M239.4 350.5c25.2 5.1 49.7-10.7 54.6-35.4 4.9-24.6-11.6-48.8-36.8-53.9l-45.7-9.3-8.9 44.6c-4.9 24.7 11.6 48.9 36.8 54zm-6.1-66.5 18.6 3.8c10.3 2.1 17 11.9 15 21.9-2 10-11.9 16.5-22.2 14.4-10.3-2.1-17-11.9-15-21.9l3.6-18.2z" id="_x3C_Radial_Repeat_x3E__4681_"/><path class="st4487" d="M314.7 358.8c-25.2-5.1-49.7 10.7-54.6 35.4-4.9 24.6 11.6 48.8 36.8 53.9l45.7 9.3 8.9-44.6c4.9-24.7-11.6-48.9-36.8-54zm6.1 66.6-18.6-3.8c-10.3-2.1-17-11.9-15-21.9 2-10 11.9-16.5 22.2-14.4 10.3 2.1 17 11.9 15 21.9l-3.6 18.2z" id="_x3C_Radial_Repeat_x3E__4680_"/></g><g id="_x3C_Grid_Repeat_x3E__324_"><path class="st4487" d="M373.8 444.3c25.2-5.1 49.7 10.7 54.6 35.4 4.9 24.6-11.6 48.8-36.8 53.9l-45.7 9.3-8.9-44.6c-5-24.7 11.5-48.8 36.8-54zm-6.2 66.6 18.6-3.8c10.3-2.1 17-11.9 15-21.9-2-10-11.9-16.5-22.2-14.4-10.3 2.1-17 11.9-15 21.9l3.6 18.2z" id="_x3C_Radial_Repeat_x3E__4679_"/><path class="st4487" d="M449 436c-25.2 5.1-49.7-10.7-54.6-35.4-4.9-24.6 11.6-48.8 36.8-53.9l45.7-9.3 8.9 44.6c4.9 24.8-11.6 48.9-36.8 54zm6.1-66.5-18.6 3.8c-10.3 2.1-17 11.9-15 21.9 2 10 11.9 16.5 22.2 14.4 10.3-2.1 17-11.9 15-21.9l-3.6-18.2z" id="_x3C_Radial_Repeat_x3E__4678_"/></g><g id="_x3C_Grid_Repeat_x3E__323_"><path class="st4487" d="M508.1 350.5c25.2 5.1 49.7-10.7 54.6-35.4 4.9-24.6-11.6-48.8-36.8-53.9l-45.7-9.3-8.9 44.6c-5 24.7 11.5 48.9 36.8 54zM502 284l18.6 3.8c10.3 2.1 17 11.9 15 21.9s-11.9 16.5-22.2 14.4c-10.3-2.1-17-11.9-15-21.9L502 284z" id="_x3C_Radial_Repeat_x3E__4677_"/><path class="st4487" d="M583.3 358.8c-25.2-5.1-49.7 10.7-54.6 35.4-4.9 24.6 11.6 48.8 36.8 53.9l45.7 9.3 8.9-44.6c4.9-24.7-11.6-48.9-36.8-54zm6.1 66.6-18.6-3.8c-10.3-2.1-17-11.9-15-21.9 2-10 11.9-16.5 22.2-14.4 10.3 2.1 17 11.9 15 21.9l-3.6 18.2z" id="_x3C_Radial_Repeat_x3E__4676_"/></g><g id="_x3C_Grid_Repeat_x3E__322_"><path class="st4487" d="M642.4 444.3c25.2-5.1 49.7 10.7 54.6 35.4 4.9 24.6-11.6 48.8-36.8 53.9l-45.7 9.3-8.9-44.6c-4.9-24.7 11.5-48.8 36.8-54zm-6.1 66.6 18.6-3.8c10.3-2.1 17-11.9 15-21.9s-11.9-16.5-22.2-14.4c-10.3 2.1-17 11.9-15 21.9l3.6 18.2z" id="_x3C_Radial_Repeat_x3E__4675_"/><path class="st4487" d="M717.6 436c-25.2 5.1-49.7-10.7-54.6-35.4-4.9-24.6 11.6-48.8 36.8-53.9l45.7-9.3 8.9 44.6c4.9 24.8-11.6 48.9-36.8 54zm6.1-66.5-18.6 3.8c-10.3 2.1-17 11.9-15 21.9 2 10 11.9 16.5 22.2 14.4 10.3-2.1 17-11.9 15-21.9l-3.6-18.2z" id="_x3C_Radial_Repeat_x3E__4674_"/></g><g id="_x3C_Grid_Repeat_x3E__321_"><path class="st4487" d="M776.7 350.5c25.2 5.1 49.7-10.7 54.6-35.4 4.9-24.6-11.6-48.8-36.8-53.9l-45.7-9.3-8.9 44.6c-4.9 24.7 11.6 48.9 36.8 54zm-6.1-66.5 18.6 3.8c10.3 2.1 17 11.9 15 21.9-2 10-11.9 16.5-22.2 14.4-10.3-2.1-17-11.9-15-21.9l3.6-18.2z" id="_x3C_Radial_Repeat_x3E__4673_"/><path class="st4487" d="M851.9 358.8c-25.2-5.1-49.7 10.7-54.6 35.4-4.9 24.6 11.6 48.8 36.8 53.9l45.7 9.3 8.9-44.6c4.9-24.7-11.5-48.9-36.8-54zm6.1 66.6-18.6-3.8c-10.3-2.1-17-11.9-15-21.9 2-10 11.9-16.5 22.2-14.4 10.3 2.1 17 11.9 15 21.9l-3.6 18.2z" id="_x3C_Radial_Repeat_x3E__4672_"/></g><g id="_x3C_Grid_Repeat_x3E__320_"><path class="st4487" d="M911 444.3c25.2-5.1 49.7 10.7 54.6 35.4 4.9 24.6-11.6 48.8-36.8 53.9l-45.7 9.3-8.9-44.6c-4.9-24.7 11.6-48.8 36.8-54zm-6.1 66.6 18.6-3.8c10.3-2.1 17-11.9 15-21.9s-11.9-16.5-22.2-14.4c-10.3 2.1-17 11.9-15 21.9l3.6 18.2z" id="_x3C_Radial_Repeat_x3E__4671_"/><path class="st4487" d="M986.2 436c-25.2 5.1-49.7-10.7-54.6-35.4-4.9-24.6 11.6-48.8 36.8-53.9l45.7-9.3 8.9 44.6c5 24.8-11.5 48.9-36.8 54zm6.1-66.5-18.6 3.8c-10.3 2.1-17 11.9-15 21.9 2 10 11.9 16.5 22.2 14.4 10.3-2.1 17-11.9 15-21.9l-3.6-18.2z" id="_x3C_Radial_Repeat_x3E__4670_"/></g><g id="_x3C_Grid_Repeat_x3E__319_"><path class="st4487" d="M1045.3 350.5c25.2 5.1 49.7-10.7 54.6-35.4 4.9-24.6-11.6-48.8-36.8-53.9l-45.7-9.3-8.9 44.6c-4.9 24.7 11.6 48.9 36.8 54zm-6.1-66.5 18.6 3.8c10.3 2.1 17 11.9 15 21.9-2 10-11.9 16.5-22.2 14.4-10.3-2.1-17-11.9-15-21.9l3.6-18.2z" id="_x3C_Radial_Repeat_x3E__4669_"/><path class="st4487" d="M1120.6 358.8c-25.2-5.1-49.7 10.7-54.6 35.4-4.9 24.6 11.6 48.8 36.8 53.9l45.7 9.3 8.9-44.6c4.9-24.7-11.6-48.9-36.8-54zm6.1 66.6-18.6-3.8c-10.3-2.1-17-11.9-15-21.9 2-10 11.9-16.5 22.2-14.4 10.3 2.1 17 11.9 15 21.9l-3.6 18.2z" id="_x3C_Radial_Repeat_x3E__4668_"/></g><g id="_x3C_Grid_Repeat_x3E__318_"><path class="st4487" d="M1179.6 444.3c25.2-5.1 49.7 10.7 54.6 35.4 4.9 24.6-11.6 48.8-36.8 53.9l-45.7 9.3-8.9-44.6c-4.9-24.7 11.6-48.8 36.8-54zm-6.1 66.6 18.6-3.8c10.3-2.1 17-11.9 15-21.9s-11.9-16.5-22.2-14.4c-10.3 2.1-17 11.9-15 21.9l3.6 18.2z" id="_x3C_Radial_Repeat_x3E__4667_"/><path class="st4487" d="M1254.9 436c-25.2 5.1-49.7-10.7-54.6-35.4-4.9-24.6 11.6-48.8 36.8-53.9l45.7-9.3 8.9 44.6c4.9 24.8-11.6 48.9-36.8 54zm6.1-66.5-18.6 3.8c-10.3 2.1-17 11.9-15 21.9 2 10 11.9 16.5 22.2 14.4 10.3-2.1 17-11.9 15-21.9l-3.6-18.2z" id="_x3C_Radial_Repeat_x3E__4666_"/></g><g id="_x3C_Grid_Repeat_x3E__317_"><path class="st4487" d="M1314 350.5c25.2 5.1 49.7-10.7 54.6-35.4 4.9-24.6-11.6-48.8-36.8-53.9L1286 252l-8.9 44.6c-4.9 24.6 11.6 48.8 36.9 53.9zm-6.2-66.5 18.6 3.8c10.3 2.1 17 11.9 15 21.9s-11.9 16.5-22.2 14.4c-10.3-2.1-17-11.9-15-21.9l3.6-18.2z" id="_x3C_Radial_Repeat_x3E__4665_"/><path class="st4487" d="M1389.2 358.8c-25.2-5.1-49.7 10.7-54.6 35.4-4.9 24.6 11.6 48.8 36.8 53.9l45.7 9.3 8.9-44.6c4.9-24.7-11.6-48.9-36.8-54zm6.1 66.6-18.6-3.8c-10.3-2.1-17-11.9-15-21.9 2-10 11.9-16.5 22.2-14.4 10.3 2.1 17 11.9 15 21.9l-3.6 18.2z" id="_x3C_Radial_Repeat_x3E__4664_"/></g><g id="_x3C_Grid_Repeat_x3E__316_"><path class="st4487" d="M1448.3 444.3c25.2-5.1 49.7 10.7 54.6 35.4 4.9 24.6-11.6 48.8-36.8 53.9l-45.7 9.3-8.9-44.6c-5-24.7 11.5-48.8 36.8-54zm-6.1 66.6 18.6-3.8c10.3-2.1 17-11.9 15-21.9-2-10-11.9-16.5-22.2-14.4-10.3 2.1-17 11.9-15 21.9l3.6 18.2z" id="_x3C_Radial_Repeat_x3E__4663_"/><path class="st4487" d="M1523.5 436c-25.2 5.1-49.7-10.7-54.6-35.4-4.9-24.6 11.6-48.8 36.8-53.9l45.7-9.3 8.9 44.6c4.9 24.8-11.6 48.9-36.8 54zm6.1-66.5-18.6 3.8c-10.3 2.1-17 11.9-15 21.9 2 10 11.9 16.5 22.2 14.4 10.3-2.1 17-11.9 15-21.9l-3.6-18.2z" id="_x3C_Radial_Repeat_x3E__4662_"/></g><g id="_x3C_Grid_Repeat_x3E__315_"><path class="st4487" d="M1582.6 350.5c25.2 5.1 49.7-10.7 54.6-35.4 4.9-24.6-11.6-48.8-36.8-53.9l-45.7-9.3-8.9 44.6c-4.9 24.7 11.5 48.9 36.8 54zm-6.1-66.5 18.6 3.8c10.3 2.1 17 11.9 15 21.9s-11.9 16.5-22.2 14.4c-10.3-2.1-17-11.9-15-21.9l3.6-18.2z" id="_x3C_Radial_Repeat_x3E__4661_"/><path class="st4487" d="M1657.8 358.8c-25.2-5.1-49.7 10.7-54.6 35.4-4.9 24.6 11.6 48.8 36.8 53.9l45.7 9.3 8.9-44.6c4.9-24.7-11.6-48.9-36.8-54zm6.1 66.6-18.6-3.8c-10.3-2.1-17-11.9-15-21.9 2-10 11.9-16.5 22.2-14.4 10.3 2.1 17 11.9 15 21.9l-3.6 18.2z" id="_x3C_Radial_Repeat_x3E__4660_"/></g><g id="_x3C_Grid_Repeat_x3E__314_"><path class="st4487" d="M1716.9 444.3c25.2-5.1 49.7 10.7 54.6 35.4 4.9 24.6-11.6 48.8-36.8 53.9l-45.7 9.3-8.9-44.6c-4.9-24.7 11.6-48.8 36.8-54zm-6.1 66.6 18.6-3.8c10.3-2.1 17-11.9 15-21.9s-11.9-16.5-22.2-14.4c-10.3 2.1-17 11.9-15 21.9l3.6 18.2z" id="_x3C_Radial_Repeat_x3E__4659_"/><path class="st4487" d="M1792.1 436c-25.2 5.1-49.7-10.7-54.6-35.4-4.9-24.6 11.6-48.8 36.8-53.9l45.7-9.3 8.9 44.6c4.9 24.8-11.5 48.9-36.8 54zm6.1-66.5-18.6 3.8c-10.3 2.1-17 11.9-15 21.9 2 10 11.9 16.5 22.2 14.4 10.3-2.1 17-11.9 15-21.9l-3.6-18.2z" id="_x3C_Radial_Repeat_x3E__4658_"/></g><g id="_x3C_Grid_Repeat_x3E__313_"><path class="st4487" d="M1851.2 350.5c25.2 5.1 49.7-10.7 54.6-35.4 4.9-24.6-11.6-48.8-36.8-53.9l-45.7-9.3-8.9 44.6c-4.9 24.7 11.6 48.9 36.8 54zm-6.1-66.5 18.6 3.8c10.3 2.1 17 11.9 15 21.9-2 10-11.9 16.5-22.2 14.4-10.3-2.1-17-11.9-15-21.9l3.6-18.2z" id="_x3C_Radial_Repeat_x3E__4657_"/><path class="st4487" d="M1926.4 358.8c-25.2-5.1-49.7 10.7-54.6 35.4-4.9 24.6 11.6 48.8 36.8 53.9l45.7 9.3 8.9-44.6c5-24.7-11.5-48.9-36.8-54zm6.1 66.6-18.6-3.8c-10.3-2.1-17-11.9-15-21.9 2-10 11.9-16.5 22.2-14.4 10.3 2.1 17 11.9 15 21.9l-3.6 18.2z" id="_x3C_Radial_Repeat_x3E__4656_"/></g><g id="_x3C_Grid_Repeat_x3E__310_"><path class="st4487" d="M-29.2 521.5c25.2 5.1 49.7-10.7 54.6-35.4 4.9-24.6-11.6-48.8-36.8-53.9l-45.7-9.3-8.9 44.6c-4.9 24.8 11.6 48.9 36.8 54zm-6.1-66.5 18.6 3.8c10.3 2.1 17 11.9 15 21.9s-11.9 16.5-22.2 14.4c-10.3-2.1-17-11.9-15-21.9l3.6-18.2z" id="_x3C_Radial_Repeat_x3E__4651_"/><path class="st4487" d="M46 529.9c-25.2-5.1-49.7 10.7-54.6 35.4-4.9 24.6 11.6 48.8 36.8 53.9l45.7 9.3 8.9-44.6c5-24.8-11.5-48.9-36.8-54zm6.2 66.5-18.6-3.8c-10.3-2.1-17-11.9-15-21.9s11.9-16.5 22.2-14.4c10.3 2.1 17 11.9 15 21.9l-3.6 18.2z" id="_x3C_Radial_Repeat_x3E__4650_"/></g><g id="_x3C_Grid_Repeat_x3E__309_"><path class="st4487" d="M105.1 615.4c25.2-5.1 49.7 10.7 54.6 35.4 4.9 24.6-11.6 48.8-36.8 53.9L77.2 714l-8.9-44.6c-4.9-24.8 11.6-48.9 36.8-54zM99 681.9l18.6-3.8c10.3-2.1 17-11.9 15-21.9-2-10-11.9-16.5-22.2-14.4-10.3 2.1-17 11.9-15 21.9l3.6 18.2z" id="_x3C_Radial_Repeat_x3E__4649_"/><path class="st4487" d="M180.4 607c-25.2 5.1-49.7-10.7-54.6-35.4-4.9-24.6 11.6-48.8 36.8-53.9l45.7-9.3 8.9 44.6c4.9 24.8-11.6 48.9-36.8 54zm6.1-66.5-18.6 3.8c-10.3 2.1-17 11.9-15 21.9 2 10 11.9 16.5 22.2 14.4 10.3-2.1 17-11.9 15-21.9l-3.6-18.2z" id="_x3C_Radial_Repeat_x3E__4648_"/></g><g id="_x3C_Grid_Repeat_x3E__308_"><path class="st4487" d="M239.4 521.5c25.2 5.1 49.7-10.7 54.6-35.4 4.9-24.6-11.6-48.8-36.8-53.9l-45.7-9.3-8.9 44.6c-4.9 24.8 11.6 48.9 36.8 54zm-6.1-66.5 18.6 3.8c10.3 2.1 17 11.9 15 21.9-2 10-11.9 16.5-22.2 14.4-10.3-2.1-17-11.9-15-21.9l3.6-18.2z" id="_x3C_Radial_Repeat_x3E__4647_"/><path class="st4487" d="M314.7 529.9c-25.2-5.1-49.7 10.7-54.6 35.4-4.9 24.6 11.6 48.8 36.8 53.9l45.7 9.3 8.9-44.6c4.9-24.8-11.6-48.9-36.8-54zm6.1 66.5-18.6-3.8c-10.3-2.1-17-11.9-15-21.9 2-10 11.9-16.5 22.2-14.4 10.3 2.1 17 11.9 15 21.9l-3.6 18.2z" id="_x3C_Radial_Repeat_x3E__4646_"/></g><g id="_x3C_Grid_Repeat_x3E__307_"><path class="st4487" d="M373.8 615.4c25.2-5.1 49.7 10.7 54.6 35.4 4.9 24.6-11.6 48.8-36.8 53.9l-45.7 9.3-8.9-44.6c-5-24.8 11.5-48.9 36.8-54zm-6.2 66.5 18.6-3.8c10.3-2.1 17-11.9 15-21.9-2-10-11.9-16.5-22.2-14.4-10.3 2.1-17 11.9-15 21.9l3.6 18.2z" id="_x3C_Radial_Repeat_x3E__4645_"/><path class="st4487" d="M449 607c-25.2 5.1-49.7-10.7-54.6-35.4-4.9-24.6 11.6-48.8 36.8-53.9l45.7-9.3 8.9 44.6c4.9 24.8-11.6 48.9-36.8 54zm6.1-66.5-18.6 3.8c-10.3 2.1-17 11.9-15 21.9 2 10 11.9 16.5 22.2 14.4 10.3-2.1 17-11.9 15-21.9l-3.6-18.2z" id="_x3C_Radial_Repeat_x3E__4644_"/></g><g id="_x3C_Grid_Repeat_x3E__306_"><path class="st4487" d="M508.1 521.5c25.2 5.1 49.7-10.7 54.6-35.4 4.9-24.6-11.6-48.8-36.8-53.9l-45.7-9.3-8.9 44.6c-5 24.8 11.5 48.9 36.8 54zM502 455l18.6 3.8c10.3 2.1 17 11.9 15 21.9s-11.9 16.5-22.2 14.4c-10.3-2.1-17-11.9-15-21.9L502 455z" id="_x3C_Radial_Repeat_x3E__4643_"/><path class="st4487" d="M583.3 529.9c-25.2-5.1-49.7 10.7-54.6 35.4-4.9 24.6 11.6 48.8 36.8 53.9l45.7 9.3 8.9-44.6c4.9-24.8-11.6-48.9-36.8-54zm6.1 66.5-18.6-3.8c-10.3-2.1-17-11.9-15-21.9 2-10 11.9-16.5 22.2-14.4 10.3 2.1 17 11.9 15 21.9l-3.6 18.2z" id="_x3C_Radial_Repeat_x3E__4642_"/></g><g id="_x3C_Grid_Repeat_x3E__305_"><path class="st4487" d="M642.4 615.4c25.2-5.1 49.7 10.7 54.6 35.4 4.9 24.6-11.6 48.8-36.8 53.9l-45.7 9.3-8.9-44.6c-4.9-24.8 11.5-48.9 36.8-54zm-6.1 66.5 18.6-3.8c10.3-2.1 17-11.9 15-21.9-2-10-11.9-16.5-22.2-14.4-10.3 2.1-17 11.9-15 21.9l3.6 18.2z" id="_x3C_Radial_Repeat_x3E__4641_"/><path class="st4487" d="M717.6 607c-25.2 5.1-49.7-10.7-54.6-35.4-4.9-24.6 11.6-48.8 36.8-53.9l45.7-9.3 8.9 44.6c4.9 24.8-11.6 48.9-36.8 54zm6.1-66.5-18.6 3.8c-10.3 2.1-17 11.9-15 21.9 2 10 11.9 16.5 22.2 14.4 10.3-2.1 17-11.9 15-21.9l-3.6-18.2z" id="_x3C_Radial_Repeat_x3E__4640_"/></g><g id="_x3C_Grid_Repeat_x3E__304_"><path class="st4487" d="M776.7 521.5c25.2 5.1 49.7-10.7 54.6-35.4 4.9-24.6-11.6-48.8-36.8-53.9l-45.7-9.3-8.9 44.6c-4.9 24.8 11.6 48.9 36.8 54zm-6.1-66.5 18.6 3.8c10.3 2.1 17 11.9 15 21.9-2 10-11.9 16.5-22.2 14.4-10.3-2.1-17-11.9-15-21.9l3.6-18.2z" id="_x3C_Radial_Repeat_x3E__4639_"/><path class="st4487" d="M851.9 529.9c-25.2-5.1-49.7 10.7-54.6 35.4-4.9 24.6 11.6 48.8 36.8 53.9l45.7 9.3 8.9-44.6c4.9-24.8-11.5-48.9-36.8-54zm6.1 66.5-18.6-3.8c-10.3-2.1-17-11.9-15-21.9s11.9-16.5 22.2-14.4c10.3 2.1 17 11.9 15 21.9l-3.6 18.2z" id="_x3C_Radial_Repeat_x3E__4638_"/></g><g id="_x3C_Grid_Repeat_x3E__303_"><path class="st4487" d="M911 615.4c25.2-5.1 49.7 10.7 54.6 35.4 4.9 24.6-11.6 48.8-36.8 53.9l-45.7 9.3-8.9-44.6c-4.9-24.8 11.6-48.9 36.8-54zm-6.1 66.5 18.6-3.8c10.3-2.1 17-11.9 15-21.9-2-10-11.9-16.5-22.2-14.4-10.3 2.1-17 11.9-15 21.9l3.6 18.2z" id="_x3C_Radial_Repeat_x3E__4637_"/><path class="st4487" d="M986.2 607c-25.2 5.1-49.7-10.7-54.6-35.4-4.9-24.6 11.6-48.8 36.8-53.9l45.7-9.3 8.9 44.6c5 24.8-11.5 48.9-36.8 54zm6.1-66.5-18.6 3.8c-10.3 2.1-17 11.9-15 21.9 2 10 11.9 16.5 22.2 14.4 10.3-2.1 17-11.9 15-21.9l-3.6-18.2z" id="_x3C_Radial_Repeat_x3E__4636_"/></g><g id="_x3C_Grid_Repeat_x3E__302_"><path class="st4487" d="M1045.3 521.5c25.2 5.1 49.7-10.7 54.6-35.4 4.9-24.6-11.6-48.8-36.8-53.9l-45.7-9.3-8.9 44.6c-4.9 24.8 11.6 48.9 36.8 54zm-6.1-66.5 18.6 3.8c10.3 2.1 17 11.9 15 21.9-2 10-11.9 16.5-22.2 14.4-10.3-2.1-17-11.9-15-21.9l3.6-18.2z" id="_x3C_Radial_Repeat_x3E__4635_"/><path class="st4487" d="M1120.6 529.9c-25.2-5.1-49.7 10.7-54.6 35.4-4.9 24.6 11.6 48.8 36.8 53.9l45.7 9.3 8.9-44.6c4.9-24.8-11.6-48.9-36.8-54zm6.1 66.5-18.6-3.8c-10.3-2.1-17-11.9-15-21.9s11.9-16.5 22.2-14.4c10.3 2.1 17 11.9 15 21.9l-3.6 18.2z" id="_x3C_Radial_Repeat_x3E__4634_"/></g><g id="_x3C_Grid_Repeat_x3E__301_"><path class="st4487" d="M1179.6 615.4c25.2-5.1 49.7 10.7 54.6 35.4 4.9 24.6-11.6 48.8-36.8 53.9l-45.7 9.3-8.9-44.6c-4.9-24.8 11.6-48.9 36.8-54zm-6.1 66.5 18.6-3.8c10.3-2.1 17-11.9 15-21.9-2-10-11.9-16.5-22.2-14.4-10.3 2.1-17 11.9-15 21.9l3.6 18.2z" id="_x3C_Radial_Repeat_x3E__4633_"/><path class="st4487" d="M1254.9 607c-25.2 5.1-49.7-10.7-54.6-35.4-4.9-24.6 11.6-48.8 36.8-53.9l45.7-9.3 8.9 44.6c4.9 24.8-11.6 48.9-36.8 54zm6.1-66.5-18.6 3.8c-10.3 2.1-17 11.9-15 21.9s11.9 16.5 22.2 14.4c10.3-2.1 17-11.9 15-21.9l-3.6-18.2z" id="_x3C_Radial_Repeat_x3E__4632_"/></g><g id="_x3C_Grid_Repeat_x3E__300_"><path class="st4487" d="M1314 521.5c25.2 5.1 49.7-10.7 54.6-35.4 4.9-24.6-11.6-48.8-36.8-53.9L1286 423l-8.9 44.6c-4.9 24.7 11.6 48.8 36.9 53.9zm-6.2-66.5 18.6 3.8c10.3 2.1 17 11.9 15 21.9s-11.9 16.5-22.2 14.4c-10.3-2.1-17-11.9-15-21.9l3.6-18.2z" id="_x3C_Radial_Repeat_x3E__4631_"/><path class="st4487" d="M1389.2 529.9c-25.2-5.1-49.7 10.7-54.6 35.4-4.9 24.6 11.6 48.8 36.8 53.9l45.7 9.3 8.9-44.6c4.9-24.8-11.6-48.9-36.8-54zm6.1 66.5-18.6-3.8c-10.3-2.1-17-11.9-15-21.9 2-10 11.9-16.5 22.2-14.4 10.3 2.1 17 11.9 15 21.9l-3.6 18.2z" id="_x3C_Radial_Repeat_x3E__4630_"/></g><g id="_x3C_Grid_Repeat_x3E__299_"><path class="st4487" d="M1448.3 615.4c25.2-5.1 49.7 10.7 54.6 35.4 4.9 24.6-11.6 48.8-36.8 53.9l-45.7 9.3-8.9-44.6c-5-24.8 11.5-48.9 36.8-54zm-6.1 66.5 18.6-3.8c10.3-2.1 17-11.9 15-21.9-2-10-11.9-16.5-22.2-14.4-10.3 2.1-17 11.9-15 21.9l3.6 18.2z" id="_x3C_Radial_Repeat_x3E__4629_"/><path class="st4487" d="M1523.5 607c-25.2 5.1-49.7-10.7-54.6-35.4-4.9-24.6 11.6-48.8 36.8-53.9l45.7-9.3 8.9 44.6c4.9 24.8-11.6 48.9-36.8 54zm6.1-66.5-18.6 3.8c-10.3 2.1-17 11.9-15 21.9s11.9 16.5 22.2 14.4c10.3-2.1 17-11.9 15-21.9l-3.6-18.2z" id="_x3C_Radial_Repeat_x3E__4628_"/></g><g id="_x3C_Grid_Repeat_x3E__298_"><path class="st4487" d="M1582.6 521.5c25.2 5.1 49.7-10.7 54.6-35.4 4.9-24.6-11.6-48.8-36.8-53.9l-45.7-9.3-8.9 44.6c-4.9 24.8 11.5 48.9 36.8 54zm-6.1-66.5 18.6 3.8c10.3 2.1 17 11.9 15 21.9s-11.9 16.5-22.2 14.4c-10.3-2.1-17-11.9-15-21.9l3.6-18.2z" id="_x3C_Radial_Repeat_x3E__4627_"/><path class="st4487" d="M1657.8 529.9c-25.2-5.1-49.7 10.7-54.6 35.4-4.9 24.6 11.6 48.8 36.8 53.9l45.7 9.3 8.9-44.6c4.9-24.8-11.6-48.9-36.8-54zm6.1 66.5-18.6-3.8c-10.3-2.1-17-11.9-15-21.9s11.9-16.5 22.2-14.4c10.3 2.1 17 11.9 15 21.9l-3.6 18.2z" id="_x3C_Radial_Repeat_x3E__4626_"/></g><g id="_x3C_Grid_Repeat_x3E__297_"><path class="st4487" d="M1716.9 615.4c25.2-5.1 49.7 10.7 54.6 35.4 4.9 24.6-11.6 48.8-36.8 53.9L1689 714l-8.9-44.6c-4.9-24.8 11.6-48.9 36.8-54zm-6.1 66.5 18.6-3.8c10.3-2.1 17-11.9 15-21.9-2-10-11.9-16.5-22.2-14.4-10.3 2.1-17 11.9-15 21.9l3.6 18.2z" id="_x3C_Radial_Repeat_x3E__4625_"/><path class="st4487" d="M1792.1 607c-25.2 5.1-49.7-10.7-54.6-35.4-4.9-24.6 11.6-48.8 36.8-53.9l45.7-9.3 8.9 44.6c4.9 24.8-11.5 48.9-36.8 54zm6.1-66.5-18.6 3.8c-10.3 2.1-17 11.9-15 21.9s11.9 16.5 22.2 14.4c10.3-2.1 17-11.9 15-21.9l-3.6-18.2z" id="_x3C_Radial_Repeat_x3E__4624_"/></g><g id="_x3C_Grid_Repeat_x3E__296_"><path class="st4487" d="M1851.2 521.5c25.2 5.1 49.7-10.7 54.6-35.4 4.9-24.6-11.6-48.8-36.8-53.9l-45.7-9.3-8.9 44.6c-4.9 24.8 11.6 48.9 36.8 54zm-6.1-66.5 18.6 3.8c10.3 2.1 17 11.9 15 21.9-2 10-11.9 16.5-22.2 14.4-10.3-2.1-17-11.9-15-21.9l3.6-18.2z" id="_x3C_Radial_Repeat_x3E__4623_"/><path class="st4487" d="M1926.4 529.9c-25.2-5.1-49.7 10.7-54.6 35.4-4.9 24.6 11.6 48.8 36.8 53.9l45.7 9.3 8.9-44.6c5-24.8-11.5-48.9-36.8-54zm6.1 66.5-18.6-3.8c-10.3-2.1-17-11.9-15-21.9s11.9-16.5 22.2-14.4c10.3 2.1 17 11.9 15 21.9l-3.6 18.2z" id="_x3C_Radial_Repeat_x3E__4622_"/></g><g id="_x3C_Grid_Repeat_x3E__293_"><path class="st4487" d="M-29.2 692.5c25.2 5.1 49.7-10.7 54.6-35.4 4.9-24.6-11.6-48.8-36.8-53.9l-45.7-9.3-8.9 44.6c-4.9 24.8 11.6 48.9 36.8 54zm-6.1-66.5 18.6 3.8c10.3 2.1 17 11.9 15 21.9-2 10-11.9 16.5-22.2 14.4-10.3-2.1-17-11.9-15-21.9l3.6-18.2z" id="_x3C_Radial_Repeat_x3E__4617_"/><path class="st4487" d="M46 700.9c-25.2-5.1-49.7 10.7-54.6 35.4-4.9 24.6 11.6 48.8 36.8 53.9l45.7 9.3 8.9-44.6c5-24.8-11.5-48.9-36.8-54zm6.2 66.5-18.6-3.8c-10.3-2.1-17-11.9-15-21.9s11.9-16.5 22.2-14.4c10.3 2.1 17 11.9 15 21.9l-3.6 18.2z" id="_x3C_Radial_Repeat_x3E__4616_"/></g><g id="_x3C_Grid_Repeat_x3E__292_"><path class="st4487" d="M105.1 786.4c25.2-5.1 49.7 10.7 54.6 35.4 4.9 24.6-11.6 48.8-36.8 53.9L77.2 885l-8.9-44.6c-4.9-24.8 11.6-48.9 36.8-54zM99 852.9l18.6-3.8c10.3-2.1 17-11.9 15-21.9-2-10-11.9-16.5-22.2-14.4-10.3 2.1-17 11.9-15 21.9l3.6 18.2z" id="_x3C_Radial_Repeat_x3E__4615_"/><path class="st4487" d="M180.4 778c-25.2 5.1-49.7-10.7-54.6-35.4-4.9-24.6 11.6-48.8 36.8-53.9l45.7-9.3 8.9 44.6c4.9 24.8-11.6 48.9-36.8 54zm6.1-66.5-18.6 3.8c-10.3 2.1-17 11.9-15 21.9 2 10 11.9 16.5 22.2 14.4 10.3-2.1 17-11.9 15-21.9l-3.6-18.2z" id="_x3C_Radial_Repeat_x3E__4614_"/></g><g id="_x3C_Grid_Repeat_x3E__291_"><path class="st4487" d="M239.4 692.5c25.2 5.1 49.7-10.7 54.6-35.4 4.9-24.6-11.6-48.8-36.8-53.9l-45.7-9.3-8.9 44.6c-4.9 24.8 11.6 48.9 36.8 54zm-6.1-66.5 18.6 3.8c10.3 2.1 17 11.9 15 21.9-2 10-11.9 16.5-22.2 14.4-10.3-2.1-17-11.9-15-21.9l3.6-18.2z" id="_x3C_Radial_Repeat_x3E__4613_"/><path class="st4487" d="M314.7 700.9c-25.2-5.1-49.7 10.7-54.6 35.4-4.9 24.6 11.6 48.8 36.8 53.9l45.7 9.3 8.9-44.6c4.9-24.8-11.6-48.9-36.8-54zm6.1 66.5-18.6-3.8c-10.3-2.1-17-11.9-15-21.9 2-10 11.9-16.5 22.2-14.4 10.3 2.1 17 11.9 15 21.9l-3.6 18.2z" id="_x3C_Radial_Repeat_x3E__4612_"/></g><g id="_x3C_Grid_Repeat_x3E__290_"><path class="st4487" d="M373.8 786.4c25.2-5.1 49.7 10.7 54.6 35.4 4.9 24.6-11.6 48.8-36.8 53.9l-45.7 9.3-8.9-44.6c-5-24.8 11.5-48.9 36.8-54zm-6.2 66.5 18.6-3.8c10.3-2.1 17-11.9 15-21.9-2-10-11.9-16.5-22.2-14.4-10.3 2.1-17 11.9-15 21.9l3.6 18.2z" id="_x3C_Radial_Repeat_x3E__4611_"/><path class="st4487" d="M449 778c-25.2 5.1-49.7-10.7-54.6-35.4-4.9-24.6 11.6-48.8 36.8-53.9l45.7-9.3 8.9 44.6c4.9 24.8-11.6 48.9-36.8 54zm6.1-66.5-18.6 3.8c-10.3 2.1-17 11.9-15 21.9 2 10 11.9 16.5 22.2 14.4 10.3-2.1 17-11.9 15-21.9l-3.6-18.2z" id="_x3C_Radial_Repeat_x3E__4610_"/></g><g id="_x3C_Grid_Repeat_x3E__289_"><path class="st4487" d="M508.1 692.5c25.2 5.1 49.7-10.7 54.6-35.4 4.9-24.6-11.6-48.8-36.8-53.9l-45.7-9.3-8.9 44.6c-5 24.8 11.5 48.9 36.8 54zM502 626l18.6 3.8c10.3 2.1 17 11.9 15 21.9-2 10-11.9 16.5-22.2 14.4-10.3-2.1-17-11.9-15-21.9L502 626z" id="_x3C_Radial_Repeat_x3E__4609_"/><path class="st4487" d="M583.3 700.9c-25.2-5.1-49.7 10.7-54.6 35.4-4.9 24.6 11.6 48.8 36.8 53.9l45.7 9.3 8.9-44.6c4.9-24.8-11.6-48.9-36.8-54zm6.1 66.5-18.6-3.8c-10.3-2.1-17-11.9-15-21.9 2-10 11.9-16.5 22.2-14.4 10.3 2.1 17 11.9 15 21.9l-3.6 18.2z" id="_x3C_Radial_Repeat_x3E__4608_"/></g><g id="_x3C_Grid_Repeat_x3E__288_"><path class="st4487" d="M642.4 786.4c25.2-5.1 49.7 10.7 54.6 35.4 4.9 24.6-11.6 48.8-36.8 53.9l-45.7 9.3-8.9-44.6c-4.9-24.8 11.5-48.9 36.8-54zm-6.1 66.5 18.6-3.8c10.3-2.1 17-11.9 15-21.9-2-10-11.9-16.5-22.2-14.4-10.3 2.1-17 11.9-15 21.9l3.6 18.2z" id="_x3C_Radial_Repeat_x3E__4607_"/><path class="st4487" d="M717.6 778c-25.2 5.1-49.7-10.7-54.6-35.4-4.9-24.6 11.6-48.8 36.8-53.9l45.7-9.3 8.9 44.6c4.9 24.8-11.6 48.9-36.8 54zm6.1-66.5-18.6 3.8c-10.3 2.1-17 11.9-15 21.9 2 10 11.9 16.5 22.2 14.4 10.3-2.1 17-11.9 15-21.9l-3.6-18.2z" id="_x3C_Radial_Repeat_x3E__4606_"/></g><g id="_x3C_Grid_Repeat_x3E__287_"><path class="st4487" d="M776.7 692.5c25.2 5.1 49.7-10.7 54.6-35.4 4.9-24.6-11.6-48.8-36.8-53.9l-45.7-9.3-8.9 44.6c-4.9 24.8 11.6 48.9 36.8 54zm-6.1-66.5 18.6 3.8c10.3 2.1 17 11.9 15 21.9-2 10-11.9 16.5-22.2 14.4-10.3-2.1-17-11.9-15-21.9l3.6-18.2z" id="_x3C_Radial_Repeat_x3E__4605_"/><path class="st4487" d="M851.9 700.9c-25.2-5.1-49.7 10.7-54.6 35.4-4.9 24.6 11.6 48.8 36.8 53.9l45.7 9.3 8.9-44.6c4.9-24.8-11.5-48.9-36.8-54zm6.1 66.5-18.6-3.8c-10.3-2.1-17-11.9-15-21.9s11.9-16.5 22.2-14.4c10.3 2.1 17 11.9 15 21.9l-3.6 18.2z" id="_x3C_Radial_Repeat_x3E__4604_"/></g><g id="_x3C_Grid_Repeat_x3E__286_"><path class="st4487" d="M911 786.4c25.2-5.1 49.7 10.7 54.6 35.4 4.9 24.6-11.6 48.8-36.8 53.9l-45.7 9.3-8.9-44.6c-4.9-24.8 11.6-48.9 36.8-54zm-6.1 66.5 18.6-3.8c10.3-2.1 17-11.9 15-21.9-2-10-11.9-16.5-22.2-14.4-10.3 2.1-17 11.9-15 21.9l3.6 18.2z" id="_x3C_Radial_Repeat_x3E__4603_"/><path class="st4487" d="M986.2 778c-25.2 5.1-49.7-10.7-54.6-35.4-4.9-24.6 11.6-48.8 36.8-53.9l45.7-9.3 8.9 44.6c5 24.8-11.5 48.9-36.8 54zm6.1-66.5-18.6 3.8c-10.3 2.1-17 11.9-15 21.9 2 10 11.9 16.5 22.2 14.4 10.3-2.1 17-11.9 15-21.9l-3.6-18.2z" id="_x3C_Radial_Repeat_x3E__4602_"/></g><g id="_x3C_Grid_Repeat_x3E__285_"><path class="st4487" d="M1045.3 692.5c25.2 5.1 49.7-10.7 54.6-35.4 4.9-24.6-11.6-48.8-36.8-53.9l-45.7-9.3-8.9 44.6c-4.9 24.8 11.6 48.9 36.8 54zm-6.1-66.5 18.6 3.8c10.3 2.1 17 11.9 15 21.9-2 10-11.9 16.5-22.2 14.4-10.3-2.1-17-11.9-15-21.9l3.6-18.2z" id="_x3C_Radial_Repeat_x3E__4601_"/><path class="st4487" d="M1120.6 700.9c-25.2-5.1-49.7 10.7-54.6 35.4-4.9 24.6 11.6 48.8 36.8 53.9l45.7 9.3 8.9-44.6c4.9-24.8-11.6-48.9-36.8-54zm6.1 66.5-18.6-3.8c-10.3-2.1-17-11.9-15-21.9s11.9-16.5 22.2-14.4c10.3 2.1 17 11.9 15 21.9l-3.6 18.2z" id="_x3C_Radial_Repeat_x3E__4600_"/></g><g id="_x3C_Grid_Repeat_x3E__284_"><path class="st4487" d="M1179.6 786.4c25.2-5.1 49.7 10.7 54.6 35.4 4.9 24.6-11.6 48.8-36.8 53.9l-45.7 9.3-8.9-44.6c-4.9-24.8 11.6-48.9 36.8-54zm-6.1 66.5 18.6-3.8c10.3-2.1 17-11.9 15-21.9-2-10-11.9-16.5-22.2-14.4-10.3 2.1-17 11.9-15 21.9l3.6 18.2z" id="_x3C_Radial_Repeat_x3E__4599_"/><path class="st4487" d="M1254.9 778c-25.2 5.1-49.7-10.7-54.6-35.4-4.9-24.6 11.6-48.8 36.8-53.9l45.7-9.3 8.9 44.6c4.9 24.8-11.6 48.9-36.8 54zm6.1-66.5-18.6 3.8c-10.3 2.1-17 11.9-15 21.9s11.9 16.5 22.2 14.4c10.3-2.1 17-11.9 15-21.9l-3.6-18.2z" id="_x3C_Radial_Repeat_x3E__4598_"/></g><g id="_x3C_Grid_Repeat_x3E__283_"><path class="st4487" d="M1314 692.5c25.2 5.1 49.7-10.7 54.6-35.4 4.9-24.6-11.6-48.8-36.8-53.9L1286 594l-8.9 44.6c-4.9 24.7 11.6 48.8 36.9 53.9zm-6.2-66.5 18.6 3.8c10.3 2.1 17 11.9 15 21.9-2 10-11.9 16.5-22.2 14.4-10.3-2.1-17-11.9-15-21.9l3.6-18.2z" id="_x3C_Radial_Repeat_x3E__4597_"/><path class="st4487" d="M1389.2 700.9c-25.2-5.1-49.7 10.7-54.6 35.4-4.9 24.6 11.6 48.8 36.8 53.9l45.7 9.3 8.9-44.6c4.9-24.8-11.6-48.9-36.8-54zm6.1 66.5-18.6-3.8c-10.3-2.1-17-11.9-15-21.9 2-10 11.9-16.5 22.2-14.4 10.3 2.1 17 11.9 15 21.9l-3.6 18.2z" id="_x3C_Radial_Repeat_x3E__4596_"/></g><g id="_x3C_Grid_Repeat_x3E__282_"><path class="st4487" d="M1448.3 786.4c25.2-5.1 49.7 10.7 54.6 35.4 4.9 24.6-11.6 48.8-36.8 53.9l-45.7 9.3-8.9-44.6c-5-24.8 11.5-48.9 36.8-54zm-6.1 66.5 18.6-3.8c10.3-2.1 17-11.9 15-21.9-2-10-11.9-16.5-22.2-14.4-10.3 2.1-17 11.9-15 21.9l3.6 18.2z" id="_x3C_Radial_Repeat_x3E__4595_"/><path class="st4487" d="M1523.5 778c-25.2 5.1-49.7-10.7-54.6-35.4-4.9-24.6 11.6-48.8 36.8-53.9l45.7-9.3 8.9 44.6c4.9 24.8-11.6 48.9-36.8 54zm6.1-66.5-18.6 3.8c-10.3 2.1-17 11.9-15 21.9s11.9 16.5 22.2 14.4c10.3-2.1 17-11.9 15-21.9l-3.6-18.2z" id="_x3C_Radial_Repeat_x3E__4594_"/></g><g id="_x3C_Grid_Repeat_x3E__281_"><path class="st4487" d="M1582.6 692.5c25.2 5.1 49.7-10.7 54.6-35.4 4.9-24.6-11.6-48.8-36.8-53.9l-45.7-9.3-8.9 44.6c-4.9 24.8 11.5 48.9 36.8 54zm-6.1-66.5 18.6 3.8c10.3 2.1 17 11.9 15 21.9-2 10-11.9 16.5-22.2 14.4-10.3-2.1-17-11.9-15-21.9l3.6-18.2z" id="_x3C_Radial_Repeat_x3E__4593_"/><path class="st4487" d="M1657.8 700.9c-25.2-5.1-49.7 10.7-54.6 35.4-4.9 24.6 11.6 48.8 36.8 53.9l45.7 9.3 8.9-44.6c4.9-24.8-11.6-48.9-36.8-54zm6.1 66.5-18.6-3.8c-10.3-2.1-17-11.9-15-21.9s11.9-16.5 22.2-14.4c10.3 2.1 17 11.9 15 21.9l-3.6 18.2z" id="_x3C_Radial_Repeat_x3E__4592_"/></g><g id="_x3C_Grid_Repeat_x3E__280_"><path class="st4487" d="M1716.9 786.4c25.2-5.1 49.7 10.7 54.6 35.4 4.9 24.6-11.6 48.8-36.8 53.9L1689 885l-8.9-44.6c-4.9-24.8 11.6-48.9 36.8-54zm-6.1 66.5 18.6-3.8c10.3-2.1 17-11.9 15-21.9-2-10-11.9-16.5-22.2-14.4-10.3 2.1-17 11.9-15 21.9l3.6 18.2z" id="_x3C_Radial_Repeat_x3E__4591_"/><path class="st4487" d="M1792.1 778c-25.2 5.1-49.7-10.7-54.6-35.4-4.9-24.6 11.6-48.8 36.8-53.9l45.7-9.3 8.9 44.6c4.9 24.8-11.5 48.9-36.8 54zm6.1-66.5-18.6 3.8c-10.3 2.1-17 11.9-15 21.9s11.9 16.5 22.2 14.4c10.3-2.1 17-11.9 15-21.9l-3.6-18.2z" id="_x3C_Radial_Repeat_x3E__4590_"/></g><g id="_x3C_Grid_Repeat_x3E__279_"><path class="st4487" d="M1851.2 692.5c25.2 5.1 49.7-10.7 54.6-35.4 4.9-24.6-11.6-48.8-36.8-53.9l-45.7-9.3-8.9 44.6c-4.9 24.8 11.6 48.9 36.8 54zm-6.1-66.5 18.6 3.8c10.3 2.1 17 11.9 15 21.9-2 10-11.9 16.5-22.2 14.4-10.3-2.1-17-11.9-15-21.9l3.6-18.2z" id="_x3C_Radial_Repeat_x3E__4589_"/><path class="st4487" d="M1926.4 700.9c-25.2-5.1-49.7 10.7-54.6 35.4-4.9 24.6 11.6 48.8 36.8 53.9l45.7 9.3 8.9-44.6c5-24.8-11.5-48.9-36.8-54zm6.1 66.5-18.6-3.8c-10.3-2.1-17-11.9-15-21.9s11.9-16.5 22.2-14.4c10.3 2.1 17 11.9 15 21.9l-3.6 18.2z" id="_x3C_Radial_Repeat_x3E__4588_"/></g><g id="_x3C_Grid_Repeat_x3E__276_"><path class="st4487" d="M-29.2 863.5c25.2 5.1 49.7-10.7 54.6-35.4 4.9-24.6-11.6-48.8-36.8-53.9l-45.7-9.3-8.9 44.6c-4.9 24.8 11.6 48.9 36.8 54zm-6.1-66.5 18.6 3.8c10.3 2.1 17 11.9 15 21.9-2 10-11.9 16.5-22.2 14.4-10.3-2.1-17-11.9-15-21.9l3.6-18.2z" id="_x3C_Radial_Repeat_x3E__4583_"/><path class="st4487" d="M46 871.9c-25.2-5.1-49.7 10.7-54.6 35.4-4.9 24.6 11.6 48.8 36.8 53.9l45.7 9.3 8.9-44.6c5-24.8-11.5-48.9-36.8-54zm6.2 66.5-18.6-3.8c-10.3-2.1-17-11.9-15-21.9s11.9-16.5 22.2-14.4c10.3 2.1 17 11.9 15 21.9l-3.6 18.2z" id="_x3C_Radial_Repeat_x3E__4082_"/></g><g id="_x3C_Grid_Repeat_x3E__275_"><path class="st4487" d="M105.1 957.4c25.2-5.1 49.7 10.7 54.6 35.4 4.9 24.6-11.6 48.8-36.8 53.9l-45.7 9.3-8.9-44.6c-4.9-24.8 11.6-48.9 36.8-54zm-6.1 66.5 18.6-3.8c10.3-2.1 17-11.9 15-21.9-2-10-11.9-16.5-22.2-14.4-10.3 2.1-17 11.9-15 21.9l3.6 18.2z" id="_x3C_Radial_Repeat_x3E__4081_"/><path class="st4487" d="M180.4 949c-25.2 5.1-49.7-10.7-54.6-35.4-4.9-24.6 11.6-48.8 36.8-53.9l45.7-9.3 8.9 44.6c4.9 24.8-11.6 48.9-36.8 54zm6.1-66.5-18.6 3.8c-10.3 2.1-17 11.9-15 21.9 2 10 11.9 16.5 22.2 14.4 10.3-2.1 17-11.9 15-21.9l-3.6-18.2z" id="_x3C_Radial_Repeat_x3E__4080_"/></g><g id="_x3C_Grid_Repeat_x3E__274_"><path class="st4487" d="M239.4 863.5c25.2 5.1 49.7-10.7 54.6-35.4 4.9-24.6-11.6-48.8-36.8-53.9l-45.7-9.3-8.9 44.6c-4.9 24.8 11.6 48.9 36.8 54zm-6.1-66.5 18.6 3.8c10.3 2.1 17 11.9 15 21.9-2 10-11.9 16.5-22.2 14.4-10.3-2.1-17-11.9-15-21.9l3.6-18.2z" id="_x3C_Radial_Repeat_x3E__4079_"/><path class="st4487" d="M314.7 871.9c-25.2-5.1-49.7 10.7-54.6 35.4-4.9 24.6 11.6 48.8 36.8 53.9l45.7 9.3 8.9-44.6c4.9-24.8-11.6-48.9-36.8-54zm6.1 66.5-18.6-3.8c-10.3-2.1-17-11.9-15-21.9 2-10 11.9-16.5 22.2-14.4 10.3 2.1 17 11.9 15 21.9l-3.6 18.2z" id="_x3C_Radial_Repeat_x3E__4078_"/></g><g id="_x3C_Grid_Repeat_x3E__273_"><path class="st4487" d="M373.8 957.4c25.2-5.1 49.7 10.7 54.6 35.4 4.9 24.6-11.6 48.8-36.8 53.9l-45.7 9.3-8.9-44.6c-5-24.8 11.5-48.9 36.8-54zm-6.2 66.5 18.6-3.8c10.3-2.1 17-11.9 15-21.9-2-10-11.9-16.5-22.2-14.4-10.3 2.1-17 11.9-15 21.9l3.6 18.2z" id="_x3C_Radial_Repeat_x3E__4077_"/><path class="st4487" d="M449 949c-25.2 5.1-49.7-10.7-54.6-35.4-4.9-24.6 11.6-48.8 36.8-53.9l45.7-9.3 8.9 44.6c4.9 24.8-11.6 48.9-36.8 54zm6.1-66.5-18.6 3.8c-10.3 2.1-17 11.9-15 21.9 2 10 11.9 16.5 22.2 14.4 10.3-2.1 17-11.9 15-21.9l-3.6-18.2z" id="_x3C_Radial_Repeat_x3E__4076_"/></g><g id="_x3C_Grid_Repeat_x3E__272_"><path class="st4487" d="M508.1 863.5c25.2 5.1 49.7-10.7 54.6-35.4 4.9-24.6-11.6-48.8-36.8-53.9l-45.7-9.3-8.9 44.6c-5 24.8 11.5 48.9 36.8 54zM502 797l18.6 3.8c10.3 2.1 17 11.9 15 21.9-2 10-11.9 16.5-22.2 14.4-10.3-2.1-17-11.9-15-21.9L502 797z" id="_x3C_Radial_Repeat_x3E__4075_"/><path class="st4487" d="M583.3 871.9c-25.2-5.1-49.7 10.7-54.6 35.4-4.9 24.6 11.6 48.8 36.8 53.9l45.7 9.3 8.9-44.6c4.9-24.8-11.6-48.9-36.8-54zm6.1 66.5-18.6-3.8c-10.3-2.1-17-11.9-15-21.9 2-10 11.9-16.5 22.2-14.4 10.3 2.1 17 11.9 15 21.9l-3.6 18.2z" id="_x3C_Radial_Repeat_x3E__4074_"/></g><g id="_x3C_Grid_Repeat_x3E__271_"><path class="st4487" d="M642.4 957.4c25.2-5.1 49.7 10.7 54.6 35.4 4.9 24.6-11.6 48.8-36.8 53.9l-45.7 9.3-8.9-44.6c-4.9-24.8 11.5-48.9 36.8-54zm-6.1 66.5 18.6-3.8c10.3-2.1 17-11.9 15-21.9-2-10-11.9-16.5-22.2-14.4-10.3 2.1-17 11.9-15 21.9l3.6 18.2z" id="_x3C_Radial_Repeat_x3E__4073_"/><path class="st4487" d="M717.6 949c-25.2 5.1-49.7-10.7-54.6-35.4-4.9-24.6 11.6-48.8 36.8-53.9l45.7-9.3 8.9 44.6c4.9 24.8-11.6 48.9-36.8 54zm6.1-66.5-18.6 3.8c-10.3 2.1-17 11.9-15 21.9 2 10 11.9 16.5 22.2 14.4 10.3-2.1 17-11.9 15-21.9l-3.6-18.2z" id="_x3C_Radial_Repeat_x3E__4072_"/></g><g id="_x3C_Grid_Repeat_x3E__270_"><path class="st4487" d="M776.7 863.5c25.2 5.1 49.7-10.7 54.6-35.4 4.9-24.6-11.6-48.8-36.8-53.9l-45.7-9.3-8.9 44.6c-4.9 24.8 11.6 48.9 36.8 54zm-6.1-66.5 18.6 3.8c10.3 2.1 17 11.9 15 21.9-2 10-11.9 16.5-22.2 14.4-10.3-2.1-17-11.9-15-21.9l3.6-18.2z" id="_x3C_Radial_Repeat_x3E__4071_"/><path class="st4487" d="M851.9 871.9c-25.2-5.1-49.7 10.7-54.6 35.4-4.9 24.6 11.6 48.8 36.8 53.9l45.7 9.3 8.9-44.6c4.9-24.8-11.5-48.9-36.8-54zm6.1 66.5-18.6-3.8c-10.3-2.1-17-11.9-15-21.9s11.9-16.5 22.2-14.4c10.3 2.1 17 11.9 15 21.9l-3.6 18.2z" id="_x3C_Radial_Repeat_x3E__4070_"/></g><g id="_x3C_Grid_Repeat_x3E__269_"><path class="st4487" d="M911 957.4c25.2-5.1 49.7 10.7 54.6 35.4 4.9 24.6-11.6 48.8-36.8 53.9l-45.7 9.3-8.9-44.6c-4.9-24.8 11.6-48.9 36.8-54zm-6.1 66.5 18.6-3.8c10.3-2.1 17-11.9 15-21.9-2-10-11.9-16.5-22.2-14.4-10.3 2.1-17 11.9-15 21.9l3.6 18.2z" id="_x3C_Radial_Repeat_x3E__4069_"/><path class="st4487" d="M986.2 949c-25.2 5.1-49.7-10.7-54.6-35.4-4.9-24.6 11.6-48.8 36.8-53.9l45.7-9.3 8.9 44.6c5 24.8-11.5 48.9-36.8 54zm6.1-66.5-18.6 3.8c-10.3 2.1-17 11.9-15 21.9 2 10 11.9 16.5 22.2 14.4 10.3-2.1 17-11.9 15-21.9l-3.6-18.2z" id="_x3C_Radial_Repeat_x3E__4068_"/></g><g id="_x3C_Grid_Repeat_x3E__268_"><path class="st4487" d="M1045.3 863.5c25.2 5.1 49.7-10.7 54.6-35.4 4.9-24.6-11.6-48.8-36.8-53.9l-45.7-9.3-8.9 44.6c-4.9 24.8 11.6 48.9 36.8 54zm-6.1-66.5 18.6 3.8c10.3 2.1 17 11.9 15 21.9-2 10-11.9 16.5-22.2 14.4-10.3-2.1-17-11.9-15-21.9l3.6-18.2z" id="_x3C_Radial_Repeat_x3E__4067_"/><path class="st4487" d="M1120.6 871.9c-25.2-5.1-49.7 10.7-54.6 35.4-4.9 24.6 11.6 48.8 36.8 53.9l45.7 9.3 8.9-44.6c4.9-24.8-11.6-48.9-36.8-54zm6.1 66.5-18.6-3.8c-10.3-2.1-17-11.9-15-21.9s11.9-16.5 22.2-14.4c10.3 2.1 17 11.9 15 21.9l-3.6 18.2z" id="_x3C_Radial_Repeat_x3E__4066_"/></g><g id="_x3C_Grid_Repeat_x3E__267_"><path class="st4487" d="M1179.6 957.4c25.2-5.1 49.7 10.7 54.6 35.4 4.9 24.6-11.6 48.8-36.8 53.9l-45.7 9.3-8.9-44.6c-4.9-24.8 11.6-48.9 36.8-54zm-6.1 66.5 18.6-3.8c10.3-2.1 17-11.9 15-21.9-2-10-11.9-16.5-22.2-14.4-10.3 2.1-17 11.9-15 21.9l3.6 18.2z" id="_x3C_Radial_Repeat_x3E__4065_"/><path class="st4487" d="M1254.9 949c-25.2 5.1-49.7-10.7-54.6-35.4-4.9-24.6 11.6-48.8 36.8-53.9l45.7-9.3 8.9 44.6c4.9 24.8-11.6 48.9-36.8 54zm6.1-66.5-18.6 3.8c-10.3 2.1-17 11.9-15 21.9s11.9 16.5 22.2 14.4c10.3-2.1 17-11.9 15-21.9l-3.6-18.2z" id="_x3C_Radial_Repeat_x3E__4064_"/></g><g id="_x3C_Grid_Repeat_x3E__266_"><path class="st4487" d="M1314 863.5c25.2 5.1 49.7-10.7 54.6-35.4 4.9-24.6-11.6-48.8-36.8-53.9l-45.7-9.3-8.9 44.6c-5 24.8 11.5 48.9 36.8 54zm-6.2-66.5 18.6 3.8c10.3 2.1 17 11.9 15 21.9-2 10-11.9 16.5-22.2 14.4-10.3-2.1-17-11.9-15-21.9l3.6-18.2z" id="_x3C_Radial_Repeat_x3E__4063_"/><path class="st4487" d="M1389.2 871.9c-25.2-5.1-49.7 10.7-54.6 35.4-4.9 24.6 11.6 48.8 36.8 53.9l45.7 9.3 8.9-44.6c4.9-24.8-11.6-48.9-36.8-54zm6.1 66.5-18.6-3.8c-10.3-2.1-17-11.9-15-21.9 2-10 11.9-16.5 22.2-14.4 10.3 2.1 17 11.9 15 21.9l-3.6 18.2z" id="_x3C_Radial_Repeat_x3E__3562_"/></g><g id="_x3C_Grid_Repeat_x3E__265_"><path class="st4487" d="M1448.3 957.4c25.2-5.1 49.7 10.7 54.6 35.4 4.9 24.6-11.6 48.8-36.8 53.9l-45.7 9.3-8.9-44.6c-5-24.8 11.5-48.9 36.8-54zm-6.1 66.5 18.6-3.8c10.3-2.1 17-11.9 15-21.9-2-10-11.9-16.5-22.2-14.4-10.3 2.1-17 11.9-15 21.9l3.6 18.2z" id="_x3C_Radial_Repeat_x3E__3561_"/><path class="st4487" d="M1523.5 949c-25.2 5.1-49.7-10.7-54.6-35.4-4.9-24.6 11.6-48.8 36.8-53.9l45.7-9.3 8.9 44.6c4.9 24.8-11.6 48.9-36.8 54zm6.1-66.5-18.6 3.8c-10.3 2.1-17 11.9-15 21.9s11.9 16.5 22.2 14.4c10.3-2.1 17-11.9 15-21.9l-3.6-18.2z" id="_x3C_Radial_Repeat_x3E__3560_"/></g><g id="_x3C_Grid_Repeat_x3E__264_"><path class="st4487" d="M1582.6 863.5c25.2 5.1 49.7-10.7 54.6-35.4 4.9-24.6-11.6-48.8-36.8-53.9l-45.7-9.3-8.9 44.6c-4.9 24.8 11.5 48.9 36.8 54zm-6.1-66.5 18.6 3.8c10.3 2.1 17 11.9 15 21.9-2 10-11.9 16.5-22.2 14.4-10.3-2.1-17-11.9-15-21.9l3.6-18.2z" id="_x3C_Radial_Repeat_x3E__3559_"/><path class="st4487" d="M1657.8 871.9c-25.2-5.1-49.7 10.7-54.6 35.4-4.9 24.6 11.6 48.8 36.8 53.9l45.7 9.3 8.9-44.6c4.9-24.8-11.6-48.9-36.8-54zm6.1 66.5-18.6-3.8c-10.3-2.1-17-11.9-15-21.9s11.9-16.5 22.2-14.4c10.3 2.1 17 11.9 15 21.9l-3.6 18.2z" id="_x3C_Radial_Repeat_x3E__3558_"/></g><g id="_x3C_Grid_Repeat_x3E__263_"><path class="st4487" d="M1716.9 957.4c25.2-5.1 49.7 10.7 54.6 35.4 4.9 24.6-11.6 48.8-36.8 53.9l-45.7 9.3-8.9-44.6c-4.9-24.8 11.6-48.9 36.8-54zm-6.1 66.5 18.6-3.8c10.3-2.1 17-11.9 15-21.9-2-10-11.9-16.5-22.2-14.4-10.3 2.1-17 11.9-15 21.9l3.6 18.2z" id="_x3C_Radial_Repeat_x3E__3557_"/><path class="st4487" d="M1792.1 949c-25.2 5.1-49.7-10.7-54.6-35.4-4.9-24.6 11.6-48.8 36.8-53.9l45.7-9.3 8.9 44.6c4.9 24.8-11.5 48.9-36.8 54zm6.1-66.5-18.6 3.8c-10.3 2.1-17 11.9-15 21.9s11.9 16.5 22.2 14.4c10.3-2.1 17-11.9 15-21.9l-3.6-18.2z" id="_x3C_Radial_Repeat_x3E__3556_"/></g><g id="_x3C_Grid_Repeat_x3E__262_"><path class="st4487" d="M1851.2 863.5c25.2 5.1 49.7-10.7 54.6-35.4 4.9-24.6-11.6-48.8-36.8-53.9l-45.7-9.3-8.9 44.6c-4.9 24.8 11.6 48.9 36.8 54zm-6.1-66.5 18.6 3.8c10.3 2.1 17 11.9 15 21.9-2 10-11.9 16.5-22.2 14.4-10.3-2.1-17-11.9-15-21.9l3.6-18.2z" id="_x3C_Radial_Repeat_x3E__3555_"/><path class="st4487" d="M1926.4 871.9c-25.2-5.1-49.7 10.7-54.6 35.4-4.9 24.6 11.6 48.8 36.8 53.9l45.7 9.3 8.9-44.6c5-24.8-11.5-48.9-36.8-54zm6.1 66.5-18.6-3.8c-10.3-2.1-17-11.9-15-21.9s11.9-16.5 22.2-14.4c10.3 2.1 17 11.9 15 21.9l-3.6 18.2z" id="_x3C_Radial_Repeat_x3E__3554_"/></g><g id="_x3C_Grid_Repeat_x3E__259_"><path class="st4487" d="M-29.2 1034.6c25.2 5.1 49.7-10.7 54.6-35.4 4.9-24.6-11.6-48.8-36.8-53.9l-45.7-9.3-8.9 44.6c-4.9 24.7 11.6 48.8 36.8 54zm-6.1-66.6 18.6 3.8c10.3 2.1 17 11.9 15 21.9-2 10-11.9 16.5-22.2 14.4-10.3-2.1-17-11.9-15-21.9l3.6-18.2z" id="_x3C_Radial_Repeat_x3E__3549_"/><path class="st4487" d="M46 1042.9c-25.2-5.1-49.7 10.7-54.6 35.4-4.9 24.6 11.6 48.8 36.8 53.9l45.7 9.3 8.9-44.6c5-24.8-11.5-48.9-36.8-54zm6.2 66.5-18.6-3.8c-10.3-2.1-17-11.9-15-21.9s11.9-16.5 22.2-14.4c10.3 2.1 17 11.9 15 21.9l-3.6 18.2z" id="_x3C_Radial_Repeat_x3E__3548_"/></g><g id="_x3C_Grid_Repeat_x3E__258_"><path class="st4487" d="M105.1 1128.4c25.2-5.1 49.7 10.7 54.6 35.4 4.9 24.6-11.6 48.8-36.8 53.9l-45.7 9.3-8.9-44.6c-4.9-24.7 11.6-48.9 36.8-54zm-6.1 66.5 18.6-3.8c10.3-2.1 17-11.9 15-21.9-2-10-11.9-16.5-22.2-14.4-10.3 2.1-17 11.9-15 21.9l3.6 18.2z" id="_x3C_Radial_Repeat_x3E__3547_"/><path class="st4487" d="M180.4 1120.1c-25.2 5.1-49.7-10.7-54.6-35.4-4.9-24.6 11.6-48.8 36.8-53.9l45.7-9.3 8.9 44.6c4.9 24.7-11.6 48.9-36.8 54zm6.1-66.6-18.6 3.8c-10.3 2.1-17 11.9-15 21.9 2 10 11.9 16.5 22.2 14.4 10.3-2.1 17-11.9 15-21.9l-3.6-18.2z" id="_x3C_Radial_Repeat_x3E__3546_"/></g><g id="_x3C_Grid_Repeat_x3E__257_"><path class="st4487" d="M239.4 1034.6c25.2 5.1 49.7-10.7 54.6-35.4 4.9-24.6-11.6-48.8-36.8-53.9l-45.7-9.3-8.9 44.6c-4.9 24.7 11.6 48.8 36.8 54zm-6.1-66.6 18.6 3.8c10.3 2.1 17 11.9 15 21.9-2 10-11.9 16.5-22.2 14.4-10.3-2.1-17-11.9-15-21.9l3.6-18.2z" id="_x3C_Radial_Repeat_x3E__3545_"/><path class="st4487" d="M314.7 1042.9c-25.2-5.1-49.7 10.7-54.6 35.4-4.9 24.6 11.6 48.8 36.8 53.9l45.7 9.3 8.9-44.6c4.9-24.8-11.6-48.9-36.8-54zm6.1 66.5-18.6-3.8c-10.3-2.1-17-11.9-15-21.9 2-10 11.9-16.5 22.2-14.4 10.3 2.1 17 11.9 15 21.9l-3.6 18.2z" id="_x3C_Radial_Repeat_x3E__3544_"/></g><g id="_x3C_Grid_Repeat_x3E__256_"><path class="st4487" d="M373.8 1128.4c25.2-5.1 49.7 10.7 54.6 35.4 4.9 24.6-11.6 48.8-36.8 53.9l-45.7 9.3-8.9-44.6c-5-24.7 11.5-48.9 36.8-54zm-6.2 66.5 18.6-3.8c10.3-2.1 17-11.9 15-21.9-2-10-11.9-16.5-22.2-14.4-10.3 2.1-17 11.9-15 21.9l3.6 18.2z" id="_x3C_Radial_Repeat_x3E__3543_"/><path class="st4487" d="M449 1120.1c-25.2 5.1-49.7-10.7-54.6-35.4-4.9-24.6 11.6-48.8 36.8-53.9l45.7-9.3 8.9 44.6c4.9 24.7-11.6 48.9-36.8 54zm6.1-66.6-18.6 3.8c-10.3 2.1-17 11.9-15 21.9 2 10 11.9 16.5 22.2 14.4 10.3-2.1 17-11.9 15-21.9l-3.6-18.2z" id="_x3C_Radial_Repeat_x3E__3042_"/></g><g id="_x3C_Grid_Repeat_x3E__255_"><path class="st4487" d="M508.1 1034.6c25.2 5.1 49.7-10.7 54.6-35.4 4.9-24.6-11.6-48.8-36.8-53.9l-45.7-9.3-8.9 44.6c-5 24.7 11.5 48.8 36.8 54zM502 968l18.6 3.8c10.3 2.1 17 11.9 15 21.9-2 10-11.9 16.5-22.2 14.4-10.3-2.1-17-11.9-15-21.9L502 968z" id="_x3C_Radial_Repeat_x3E__3041_"/><path class="st4487" d="M583.3 1042.9c-25.2-5.1-49.7 10.7-54.6 35.4-4.9 24.6 11.6 48.8 36.8 53.9l45.7 9.3 8.9-44.6c4.9-24.8-11.6-48.9-36.8-54zm6.1 66.5-18.6-3.8c-10.3-2.1-17-11.9-15-21.9 2-10 11.9-16.5 22.2-14.4 10.3 2.1 17 11.9 15 21.9l-3.6 18.2z" id="_x3C_Radial_Repeat_x3E__3040_"/></g><g id="_x3C_Grid_Repeat_x3E__254_"><path class="st4487" d="M642.4 1128.4c25.2-5.1 49.7 10.7 54.6 35.4 4.9 24.6-11.6 48.8-36.8 53.9l-45.7 9.3-8.9-44.6c-4.9-24.7 11.5-48.9 36.8-54zm-6.1 66.5 18.6-3.8c10.3-2.1 17-11.9 15-21.9-2-10-11.9-16.5-22.2-14.4-10.3 2.1-17 11.9-15 21.9l3.6 18.2z" id="_x3C_Radial_Repeat_x3E__3039_"/><path class="st4487" d="M717.6 1120.1c-25.2 5.1-49.7-10.7-54.6-35.4-4.9-24.6 11.6-48.8 36.8-53.9l45.7-9.3 8.9 44.6c4.9 24.7-11.6 48.9-36.8 54zm6.1-66.6-18.6 3.8c-10.3 2.1-17 11.9-15 21.9 2 10 11.9 16.5 22.2 14.4 10.3-2.1 17-11.9 15-21.9l-3.6-18.2z" id="_x3C_Radial_Repeat_x3E__3038_"/></g><g id="_x3C_Grid_Repeat_x3E__253_"><path class="st4487" d="M776.7 1034.6c25.2 5.1 49.7-10.7 54.6-35.4 4.9-24.6-11.6-48.8-36.8-53.9l-45.7-9.3-8.9 44.6c-4.9 24.7 11.6 48.8 36.8 54zm-6.1-66.6 18.6 3.8c10.3 2.1 17 11.9 15 21.9-2 10-11.9 16.5-22.2 14.4-10.3-2.1-17-11.9-15-21.9l3.6-18.2z" id="_x3C_Radial_Repeat_x3E__3037_"/><path class="st4487" d="M851.9 1042.9c-25.2-5.1-49.7 10.7-54.6 35.4-4.9 24.6 11.6 48.8 36.8 53.9l45.7 9.3 8.9-44.6c4.9-24.8-11.5-48.9-36.8-54zm6.1 66.5-18.6-3.8c-10.3-2.1-17-11.9-15-21.9s11.9-16.5 22.2-14.4c10.3 2.1 17 11.9 15 21.9l-3.6 18.2z" id="_x3C_Radial_Repeat_x3E__3036_"/></g><g id="_x3C_Grid_Repeat_x3E__252_"><path class="st4487" d="M911 1128.4c25.2-5.1 49.7 10.7 54.6 35.4 4.9 24.6-11.6 48.8-36.8 53.9l-45.7 9.3-8.9-44.6c-4.9-24.7 11.6-48.9 36.8-54zm-6.1 66.5 18.6-3.8c10.3-2.1 17-11.9 15-21.9-2-10-11.9-16.5-22.2-14.4-10.3 2.1-17 11.9-15 21.9l3.6 18.2z" id="_x3C_Radial_Repeat_x3E__3035_"/><path class="st4487" d="M986.2 1120.1c-25.2 5.1-49.7-10.7-54.6-35.4-4.9-24.6 11.6-48.8 36.8-53.9l45.7-9.3 8.9 44.6c5 24.7-11.5 48.9-36.8 54zm6.1-66.6-18.6 3.8c-10.3 2.1-17 11.9-15 21.9 2 10 11.9 16.5 22.2 14.4 10.3-2.1 17-11.9 15-21.9l-3.6-18.2z" id="_x3C_Radial_Repeat_x3E__3034_"/></g><g id="_x3C_Grid_Repeat_x3E__251_"><path class="st4487" d="M1045.3 1034.6c25.2 5.1 49.7-10.7 54.6-35.4 4.9-24.6-11.6-48.8-36.8-53.9l-45.7-9.3-8.9 44.6c-4.9 24.7 11.6 48.8 36.8 54zm-6.1-66.6 18.6 3.8c10.3 2.1 17 11.9 15 21.9-2 10-11.9 16.5-22.2 14.4-10.3-2.1-17-11.9-15-21.9l3.6-18.2z" id="_x3C_Radial_Repeat_x3E__3033_"/><path class="st4487" d="M1120.6 1042.9c-25.2-5.1-49.7 10.7-54.6 35.4-4.9 24.6 11.6 48.8 36.8 53.9l45.7 9.3 8.9-44.6c4.9-24.8-11.6-48.9-36.8-54zm6.1 66.5-18.6-3.8c-10.3-2.1-17-11.9-15-21.9s11.9-16.5 22.2-14.4c10.3 2.1 17 11.9 15 21.9l-3.6 18.2z" id="_x3C_Radial_Repeat_x3E__3032_"/></g><g id="_x3C_Grid_Repeat_x3E__250_"><path class="st4487" d="M1179.6 1128.4c25.2-5.1 49.7 10.7 54.6 35.4 4.9 24.6-11.6 48.8-36.8 53.9l-45.7 9.3-8.9-44.6c-4.9-24.7 11.6-48.9 36.8-54zm-6.1 66.5 18.6-3.8c10.3-2.1 17-11.9 15-21.9-2-10-11.9-16.5-22.2-14.4-10.3 2.1-17 11.9-15 21.9l3.6 18.2z" id="_x3C_Radial_Repeat_x3E__3031_"/><path class="st4487" d="M1254.9 1120.1c-25.2 5.1-49.7-10.7-54.6-35.4-4.9-24.6 11.6-48.8 36.8-53.9l45.7-9.3 8.9 44.6c4.9 24.7-11.6 48.9-36.8 54zm6.1-66.6-18.6 3.8c-10.3 2.1-17 11.9-15 21.9s11.9 16.5 22.2 14.4c10.3-2.1 17-11.9 15-21.9l-3.6-18.2z" id="_x3C_Radial_Repeat_x3E__3030_"/></g><g id="_x3C_Grid_Repeat_x3E__249_"><path class="st4487" d="M1314 1034.6c25.2 5.1 49.7-10.7 54.6-35.4 4.9-24.6-11.6-48.8-36.8-53.9l-45.7-9.3-8.9 44.6c-5 24.7 11.5 48.8 36.8 54zm-6.2-66.6 18.6 3.8c10.3 2.1 17 11.9 15 21.9-2 10-11.9 16.5-22.2 14.4-10.3-2.1-17-11.9-15-21.9l3.6-18.2z" id="_x3C_Radial_Repeat_x3E__3029_"/><path class="st4487" d="M1389.2 1042.9c-25.2-5.1-49.7 10.7-54.6 35.4-4.9 24.6 11.6 48.8 36.8 53.9l45.7 9.3 8.9-44.6c4.9-24.8-11.6-48.9-36.8-54zm6.1 66.5-18.6-3.8c-10.3-2.1-17-11.9-15-21.9 2-10 11.9-16.5 22.2-14.4 10.3 2.1 17 11.9 15 21.9l-3.6 18.2z" id="_x3C_Radial_Repeat_x3E__3028_"/></g><g id="_x3C_Grid_Repeat_x3E__248_"><path class="st4487" d="M1448.3 1128.4c25.2-5.1 49.7 10.7 54.6 35.4 4.9 24.6-11.6 48.8-36.8 53.9l-45.7 9.3-8.9-44.6c-5-24.7 11.5-48.9 36.8-54zm-6.1 66.5 18.6-3.8c10.3-2.1 17-11.9 15-21.9-2-10-11.9-16.5-22.2-14.4-10.3 2.1-17 11.9-15 21.9l3.6 18.2z" id="_x3C_Radial_Repeat_x3E__3027_"/><path class="st4487" d="M1523.5 1120.1c-25.2 5.1-49.7-10.7-54.6-35.4-4.9-24.6 11.6-48.8 36.8-53.9l45.7-9.3 8.9 44.6c4.9 24.7-11.6 48.9-36.8 54zm6.1-66.6-18.6 3.8c-10.3 2.1-17 11.9-15 21.9s11.9 16.5 22.2 14.4c10.3-2.1 17-11.9 15-21.9l-3.6-18.2z" id="_x3C_Radial_Repeat_x3E__3026_"/></g><g id="_x3C_Grid_Repeat_x3E__247_"><path class="st4487" d="M1582.6 1034.6c25.2 5.1 49.7-10.7 54.6-35.4 4.9-24.6-11.6-48.8-36.8-53.9l-45.7-9.3-8.9 44.6c-4.9 24.7 11.5 48.8 36.8 54zm-6.1-66.6 18.6 3.8c10.3 2.1 17 11.9 15 21.9-2 10-11.9 16.5-22.2 14.4-10.3-2.1-17-11.9-15-21.9l3.6-18.2z" id="_x3C_Radial_Repeat_x3E__3025_"/><path class="st4487" d="M1657.8 1042.9c-25.2-5.1-49.7 10.7-54.6 35.4-4.9 24.6 11.6 48.8 36.8 53.9l45.7 9.3 8.9-44.6c4.9-24.8-11.6-48.9-36.8-54zm6.1 66.5-18.6-3.8c-10.3-2.1-17-11.9-15-21.9s11.9-16.5 22.2-14.4c10.3 2.1 17 11.9 15 21.9l-3.6 18.2z" id="_x3C_Radial_Repeat_x3E__3024_"/></g><g id="_x3C_Grid_Repeat_x3E__246_"><path class="st4487" d="M1716.9 1128.4c25.2-5.1 49.7 10.7 54.6 35.4 4.9 24.6-11.6 48.8-36.8 53.9l-45.7 9.3-8.9-44.6c-4.9-24.7 11.6-48.9 36.8-54zm-6.1 66.5 18.6-3.8c10.3-2.1 17-11.9 15-21.9-2-10-11.9-16.5-22.2-14.4-10.3 2.1-17 11.9-15 21.9l3.6 18.2z" id="_x3C_Radial_Repeat_x3E__3023_"/><path class="st4487" d="M1792.1 1120.1c-25.2 5.1-49.7-10.7-54.6-35.4-4.9-24.6 11.6-48.8 36.8-53.9l45.7-9.3 8.9 44.6c4.9 24.7-11.5 48.9-36.8 54zm6.1-66.6-18.6 3.8c-10.3 2.1-17 11.9-15 21.9s11.9 16.5 22.2 14.4c10.3-2.1 17-11.9 15-21.9l-3.6-18.2z" id="_x3C_Radial_Repeat_x3E__2282_"/></g><g id="_x3C_Grid_Repeat_x3E__245_"><path class="st4487" d="M1851.2 1034.6c25.2 5.1 49.7-10.7 54.6-35.4 4.9-24.6-11.6-48.8-36.8-53.9l-45.7-9.3-8.9 44.6c-4.9 24.7 11.6 48.8 36.8 54zm-6.1-66.6 18.6 3.8c10.3 2.1 17 11.9 15 21.9-2 10-11.9 16.5-22.2 14.4-10.3-2.1-17-11.9-15-21.9l3.6-18.2z" id="_x3C_Radial_Repeat_x3E__2281_"/><path class="st4487" d="M1926.4 1042.9c-25.2-5.1-49.7 10.7-54.6 35.4-4.9 24.6 11.6 48.8 36.8 53.9l45.7 9.3 8.9-44.6c5-24.8-11.5-48.9-36.8-54zm6.1 66.5-18.6-3.8c-10.3-2.1-17-11.9-15-21.9s11.9-16.5 22.2-14.4c10.3 2.1 17 11.9 15 21.9l-3.6 18.2z" id="_x3C_Radial_Repeat_x3E__2280_"/></g></g></g></svg>